<svg width="1920" height="1080" viewBox="0 0 1920 1080" fill="none" xmlns="http://www.w3.org/2000/svg">
<rect width="1920" height="1080" fill="white"/>
<line x1="120" y1="61.5" x2="1800" y2="61.5" stroke="#212529" stroke-width="5"/>
<path d="M138.545 104.266H143.858C143.182 99.3757 138.871 95.9347 133.281 95.9347C126.749 95.9347 121.714 100.643 121.714 108.661C121.714 116.484 126.423 121.338 133.39 121.338C139.632 121.338 144.087 117.39 144.087 110.882V107.767H133.74V111.703H139.053C138.98 114.77 136.891 116.714 133.414 116.714C129.49 116.714 127.015 113.78 127.015 108.612C127.015 103.469 129.587 100.559 133.366 100.559C136.058 100.559 137.881 101.947 138.545 104.266ZM147.918 121H153.061V110.508C153.061 108.226 154.727 106.656 156.997 106.656C157.71 106.656 158.688 106.777 159.171 106.934V102.37C158.712 102.261 158.072 102.189 157.553 102.189C155.476 102.189 153.774 103.396 153.097 105.69H152.904V102.455H147.918V121ZM166.587 121.35C169.328 121.35 171.103 120.155 172.008 118.428H172.153V121H177.031V108.491C177.031 104.072 173.288 102.213 169.159 102.213C164.716 102.213 161.794 104.338 161.081 107.719L165.838 108.105C166.189 106.874 167.287 105.968 169.135 105.968C170.885 105.968 171.887 106.849 171.887 108.371V108.443C171.887 109.638 170.62 109.795 167.396 110.109C163.725 110.447 160.429 111.679 160.429 115.82C160.429 119.491 163.049 121.35 166.587 121.35ZM168.06 117.8C166.478 117.8 165.343 117.064 165.343 115.651C165.343 114.202 166.539 113.49 168.35 113.237C169.473 113.08 171.308 112.814 171.924 112.403V114.371C171.924 116.315 170.318 117.8 168.06 117.8ZM183.533 127.955C187.36 127.955 189.388 125.999 190.439 123.004L197.647 102.479L192.202 102.455L188.326 116.074H188.133L184.293 102.455H178.884L185.537 121.531L185.235 122.316C184.559 124.055 183.267 124.139 181.456 123.584L180.297 127.423C181.033 127.737 182.229 127.955 183.533 127.955Z" fill="#212529"/>
<rect x="120" y="220" width="316.8" height="640" rx="32" fill="#CED4DA"/>
<path d="M177.455 751.25H182.455C181.818 746.648 177.761 743.409 172.5 743.409C166.352 743.409 161.614 747.841 161.614 755.386C161.614 762.75 166.045 767.318 172.602 767.318C178.477 767.318 182.67 763.602 182.67 757.477V754.545H172.932V758.25H177.932C177.864 761.136 175.898 762.966 172.625 762.966C168.932 762.966 166.602 760.205 166.602 755.341C166.602 750.5 169.023 747.761 172.58 747.761C175.114 747.761 176.83 749.068 177.455 751.25ZM186.276 767H191.116V757.125C191.116 754.977 192.685 753.5 194.821 753.5C195.491 753.5 196.412 753.614 196.866 753.761V749.466C196.435 749.364 195.832 749.295 195.344 749.295C193.389 749.295 191.787 750.432 191.151 752.591H190.969V749.545H186.276V767ZM203.847 767.33C206.426 767.33 208.097 766.205 208.949 764.58H209.085V767H213.676V755.227C213.676 751.068 210.153 749.318 206.267 749.318C202.085 749.318 199.335 751.318 198.665 754.5L203.142 754.864C203.472 753.705 204.506 752.852 206.244 752.852C207.892 752.852 208.835 753.682 208.835 755.114V755.182C208.835 756.307 207.642 756.455 204.608 756.75C201.153 757.068 198.051 758.227 198.051 762.125C198.051 765.58 200.517 767.33 203.847 767.33ZM205.233 763.989C203.744 763.989 202.676 763.295 202.676 761.966C202.676 760.602 203.801 759.932 205.506 759.693C206.562 759.545 208.29 759.295 208.869 758.909V760.761C208.869 762.591 207.358 763.989 205.233 763.989ZM219.795 773.545C223.398 773.545 225.307 771.705 226.295 768.886L233.08 749.568L227.955 749.545L224.307 762.364H224.125L220.511 749.545H215.42L221.682 767.5L221.398 768.239C220.761 769.875 219.545 769.955 217.841 769.432L216.75 773.045C217.443 773.341 218.568 773.545 219.795 773.545ZM253.043 743.727H248.418L242.656 747.375V751.739L247.986 748.398H248.122V767H253.043V743.727ZM267.699 767.511C273.551 767.511 277.085 763.057 277.097 755.386C277.108 747.773 273.528 743.409 267.699 743.409C261.858 743.409 258.312 747.761 258.301 755.386C258.278 763.034 261.835 767.5 267.699 767.511ZM267.699 763.432C265.028 763.432 263.301 760.75 263.312 755.386C263.324 750.102 265.04 747.443 267.699 747.443C270.347 747.443 272.074 750.102 272.074 755.386C272.085 760.75 270.358 763.432 267.699 763.432ZM289.73 767.511C295.582 767.511 299.116 763.057 299.128 755.386C299.139 747.773 295.56 743.409 289.73 743.409C283.889 743.409 280.344 747.761 280.332 755.386C280.31 763.034 283.866 767.5 289.73 767.511ZM289.73 763.432C287.06 763.432 285.332 760.75 285.344 755.386C285.355 750.102 287.071 747.443 289.73 747.443C292.378 747.443 294.105 750.102 294.105 755.386C294.116 760.75 292.389 763.432 289.73 763.432Z" fill="#495057"/>
<path d="M168.352 814H170.057L170.849 809.159H173.432L173.705 807.455H171.131L171.847 803.091H174.455L174.727 801.386H172.128L172.92 796.545H171.216L170.423 801.386H165.991L166.784 796.545H165.08L164.287 801.386H161.705L161.432 803.091H164.006L163.29 807.455H160.682L160.409 809.159H163.009L162.216 814H163.92L164.713 809.159H169.145L168.352 814ZM164.994 807.455L165.71 803.091H170.142L169.426 807.455H164.994ZM191.3 802C190.652 798.42 187.788 796.307 184.277 796.307C179.811 796.307 176.572 799.75 176.572 805.273C176.572 810.795 179.811 814.239 184.277 814.239C187.788 814.239 190.652 812.125 191.3 808.545H189.186C188.675 810.966 186.595 812.261 184.277 812.261C181.107 812.261 178.618 809.807 178.618 805.273C178.618 800.739 181.107 798.284 184.277 798.284C186.595 798.284 188.675 799.58 189.186 802H191.3ZM194.715 814H205.386V812.125H196.829V806.193H204.704V804.318H196.829V798.42H205.249V796.545H194.715V814ZM214.445 814C219.763 814 222.763 810.693 222.763 805.239C222.763 799.818 219.763 796.545 214.684 796.545H209.059V814H214.445ZM211.173 812.125V798.42H214.548C218.638 798.42 220.718 801.011 220.718 805.239C220.718 809.5 218.638 812.125 214.309 812.125H211.173ZM225.593 810.42H233.809V814H235.82V810.42H238.207V808.545H235.82V796.545H233.263L225.593 808.682V810.42ZM233.809 808.545H227.877V808.409L233.673 799.239H233.809V808.545ZM247.094 814C252.412 814 255.412 810.693 255.412 805.239C255.412 799.818 252.412 796.545 247.332 796.545H241.707V814H247.094ZM243.821 812.125V798.42H247.196C251.287 798.42 253.366 801.011 253.366 805.239C253.366 809.5 251.287 812.125 246.957 812.125H243.821ZM258.853 814L260.609 809.057H267.665L269.421 814H271.637L265.228 796.545H263.046L256.637 814H258.853ZM261.273 807.182L264.069 799.307H264.205L267.001 807.182H261.273Z" fill="#495057"/>
<rect x="460.8" y="220" width="316.8" height="640" rx="32" fill="#ADB5BD"/>
<path d="M518.255 751.25H523.255C522.618 746.648 518.561 743.409 513.3 743.409C507.152 743.409 502.414 747.841 502.414 755.386C502.414 762.75 506.846 767.318 513.402 767.318C519.277 767.318 523.471 763.602 523.471 757.477V754.545H513.732V758.25H518.732C518.664 761.136 516.698 762.966 513.425 762.966C509.732 762.966 507.402 760.205 507.402 755.341C507.402 750.5 509.823 747.761 513.38 747.761C515.914 747.761 517.63 749.068 518.255 751.25ZM527.076 767H531.917V757.125C531.917 754.977 533.485 753.5 535.621 753.5C536.292 753.5 537.212 753.614 537.667 753.761V749.466C537.235 749.364 536.632 749.295 536.144 749.295C534.189 749.295 532.587 750.432 531.951 752.591H531.769V749.545H527.076V767ZM544.647 767.33C547.226 767.33 548.897 766.205 549.749 764.58H549.885V767H554.476V755.227C554.476 751.068 550.953 749.318 547.067 749.318C542.885 749.318 540.135 751.318 539.465 754.5L543.942 754.864C544.272 753.705 545.306 752.852 547.044 752.852C548.692 752.852 549.635 753.682 549.635 755.114V755.182C549.635 756.307 548.442 756.455 545.408 756.75C541.953 757.068 538.851 758.227 538.851 762.125C538.851 765.58 541.317 767.33 544.647 767.33ZM546.033 763.989C544.544 763.989 543.476 763.295 543.476 761.966C543.476 760.602 544.601 759.932 546.306 759.693C547.363 759.545 549.09 759.295 549.669 758.909V760.761C549.669 762.591 548.158 763.989 546.033 763.989ZM560.596 773.545C564.198 773.545 566.107 771.705 567.096 768.886L573.88 749.568L568.755 749.545L565.107 762.364H564.925L561.311 749.545H556.221L562.482 767.5L562.198 768.239C561.561 769.875 560.346 769.955 558.641 769.432L557.55 773.045C558.243 773.341 559.368 773.545 560.596 773.545ZM583.718 767H600.309V762.977H590.536V762.818L593.934 759.489C598.718 755.125 600.002 752.943 600.002 750.295C600.002 746.261 596.706 743.409 591.718 743.409C586.831 743.409 583.479 746.33 583.49 750.898H588.161C588.149 748.67 589.559 747.307 591.684 747.307C593.729 747.307 595.252 748.58 595.252 750.625C595.252 752.477 594.115 753.75 592.002 755.784L583.718 763.455V767ZM612.999 767.511C618.851 767.511 622.385 763.057 622.397 755.386C622.408 747.773 618.828 743.409 612.999 743.409C607.158 743.409 603.613 747.761 603.601 755.386C603.578 763.034 607.135 767.5 612.999 767.511ZM612.999 763.432C610.328 763.432 608.601 760.75 608.613 755.386C608.624 750.102 610.34 747.443 612.999 747.443C615.647 747.443 617.374 750.102 617.374 755.386C617.385 760.75 615.658 763.432 612.999 763.432ZM635.03 767.511C640.882 767.511 644.417 763.057 644.428 755.386C644.439 747.773 640.86 743.409 635.03 743.409C629.189 743.409 625.644 747.761 625.632 755.386C625.61 763.034 629.167 767.5 635.03 767.511ZM635.03 763.432C632.36 763.432 630.632 760.75 630.644 755.386C630.655 750.102 632.371 747.443 635.03 747.443C637.678 747.443 639.405 750.102 639.405 755.386C639.417 760.75 637.689 763.432 635.03 763.432Z" fill="#495057"/>
<path d="M509.152 814H510.857L511.649 809.159H514.232L514.505 807.455H511.931L512.647 803.091H515.255L515.527 801.386H512.928L513.721 796.545H512.016L511.223 801.386H506.792L507.584 796.545H505.88L505.087 801.386H502.505L502.232 803.091H504.806L504.09 807.455H501.482L501.209 809.159H503.809L503.016 814H504.721L505.513 809.159H509.945L509.152 814ZM505.794 807.455L506.51 803.091H510.942L510.226 807.455H505.794ZM518.77 814L520.526 809.057H527.583L529.338 814H531.554L525.145 796.545H522.963L516.554 814H518.77ZM521.191 807.182L523.986 799.307H524.122L526.918 807.182H521.191ZM539.659 814C544.978 814 547.978 810.693 547.978 805.239C547.978 799.818 544.978 796.545 539.898 796.545H534.273V814H539.659ZM536.387 812.125V798.42H539.762C543.853 798.42 545.932 801.011 545.932 805.239C545.932 809.5 543.853 812.125 539.523 812.125H536.387ZM551.523 814H557.83C561.955 814 563.659 811.989 563.659 809.364C563.659 806.602 561.75 805.102 560.148 805V804.83C561.648 804.42 562.978 803.432 562.978 801.182C562.978 798.625 561.273 796.545 557.625 796.545H551.523V814ZM553.637 812.125V806.057H557.932C560.216 806.057 561.648 807.591 561.648 809.364C561.648 810.898 560.591 812.125 557.83 812.125H553.637ZM553.637 804.216V798.42H557.625C559.944 798.42 560.966 799.648 560.966 801.182C560.966 803.023 559.466 804.216 557.557 804.216H553.637ZM572.28 814.239C575.604 814.239 578.042 811.784 578.042 808.443C578.042 805.06 575.689 802.58 572.485 802.58C571.309 802.58 570.167 802.997 569.451 803.568H569.348L569.962 798.42H577.257V796.545H568.189L567.132 805.136L569.11 805.375C569.834 804.855 571.07 804.48 572.144 804.489C574.368 804.506 575.996 806.193 575.996 808.477C575.996 810.719 574.428 812.364 572.28 812.364C570.49 812.364 569.067 811.213 568.905 809.636H566.86C566.988 812.295 569.28 814.239 572.28 814.239ZM581.734 814H588.041C592.166 814 593.87 811.989 593.87 809.364C593.87 806.602 591.961 805.102 590.359 805V804.83C591.859 804.42 593.189 803.432 593.189 801.182C593.189 798.625 591.484 796.545 587.836 796.545H581.734V814ZM583.848 812.125V806.057H588.143C590.427 806.057 591.859 807.591 591.859 809.364C591.859 810.898 590.802 812.125 588.041 812.125H583.848ZM583.848 804.216V798.42H587.836C590.154 798.42 591.177 799.648 591.177 801.182C591.177 803.023 589.677 804.216 587.768 804.216H583.848ZM602.73 814C608.048 814 611.048 810.693 611.048 805.239C611.048 799.818 608.048 796.545 602.968 796.545H597.343V814H602.73ZM599.457 812.125V798.42H602.832C606.923 798.42 609.002 801.011 609.002 805.239C609.002 809.5 606.923 812.125 602.593 812.125H599.457Z" fill="#495057"/>
<rect x="801.6" y="220" width="316.8" height="640" rx="32" fill="#868E96"/>
<path d="M859.055 751.25H864.055C863.418 746.648 859.361 743.409 854.1 743.409C847.952 743.409 843.214 747.841 843.214 755.386C843.214 762.75 847.646 767.318 854.202 767.318C860.077 767.318 864.271 763.602 864.271 757.477V754.545H854.532V758.25H859.532C859.464 761.136 857.498 762.966 854.225 762.966C850.532 762.966 848.202 760.205 848.202 755.341C848.202 750.5 850.623 747.761 854.18 747.761C856.714 747.761 858.43 749.068 859.055 751.25ZM867.876 767H872.717V757.125C872.717 754.977 874.285 753.5 876.421 753.5C877.092 753.5 878.012 753.614 878.467 753.761V749.466C878.035 749.364 877.432 749.295 876.944 749.295C874.989 749.295 873.387 750.432 872.751 752.591H872.569V749.545H867.876V767ZM885.447 767.33C888.026 767.33 889.697 766.205 890.549 764.58H890.685V767H895.276V755.227C895.276 751.068 891.754 749.318 887.867 749.318C883.685 749.318 880.935 751.318 880.265 754.5L884.742 754.864C885.072 753.705 886.106 752.852 887.844 752.852C889.492 752.852 890.435 753.682 890.435 755.114V755.182C890.435 756.307 889.242 756.455 886.208 756.75C882.754 757.068 879.651 758.227 879.651 762.125C879.651 765.58 882.117 767.33 885.447 767.33ZM886.833 763.989C885.344 763.989 884.276 763.295 884.276 761.966C884.276 760.602 885.401 759.932 887.106 759.693C888.163 759.545 889.89 759.295 890.469 758.909V760.761C890.469 762.591 888.958 763.989 886.833 763.989ZM901.396 773.545C904.998 773.545 906.907 771.705 907.896 768.886L914.68 749.568L909.555 749.545L905.907 762.364H905.725L902.111 749.545H897.021L903.282 767.5L902.998 768.239C902.361 769.875 901.146 769.955 899.441 769.432L898.35 773.045C899.043 773.341 900.168 773.545 901.396 773.545ZM933.018 767.318C938.2 767.318 941.722 763.943 941.711 759.239C941.722 754.784 938.609 751.58 934.415 751.58C932.37 751.58 930.609 752.432 929.79 753.58H929.654L930.256 747.75H940.427V743.727H926.2L925.097 756L929.472 756.784C930.188 755.818 931.575 755.216 932.95 755.216C935.29 755.227 936.972 756.92 936.972 759.364C936.972 761.784 935.325 763.455 933.018 763.455C931.063 763.455 929.484 762.227 929.37 760.42H924.597C924.688 764.443 928.2 767.318 933.018 767.318ZM954.268 767.511C960.12 767.511 963.654 763.057 963.665 755.386C963.677 747.773 960.097 743.409 954.268 743.409C948.427 743.409 944.881 747.761 944.87 755.386C944.847 763.034 948.404 767.5 954.268 767.511ZM954.268 763.432C951.597 763.432 949.87 760.75 949.881 755.386C949.893 750.102 951.609 747.443 954.268 747.443C956.915 747.443 958.643 750.102 958.643 755.386C958.654 760.75 956.927 763.432 954.268 763.432ZM976.299 767.511C982.151 767.511 985.685 763.057 985.697 755.386C985.708 747.773 982.129 743.409 976.299 743.409C970.458 743.409 966.913 747.761 966.901 755.386C966.879 763.034 970.435 767.5 976.299 767.511ZM976.299 763.432C973.629 763.432 971.901 760.75 971.913 755.386C971.924 750.102 973.64 747.443 976.299 747.443C978.947 747.443 980.674 750.102 980.674 755.386C980.685 760.75 978.958 763.432 976.299 763.432Z" fill="white"/>
<path d="M849.952 814H851.657L852.45 809.159H855.032L855.305 807.455H852.731L853.447 803.091H856.055L856.327 801.386H853.728L854.521 796.545H852.816L852.023 801.386H847.592L848.384 796.545H846.68L845.887 801.386H843.305L843.032 803.091H845.606L844.89 807.455H842.282L842.009 809.159H844.609L843.816 814H845.521L846.313 809.159H850.745L849.952 814ZM846.594 807.455L847.31 803.091H851.742L851.026 807.455H846.594ZM864.138 814.239C867.624 814.239 870.053 812.202 870.07 809.364C870.053 807.156 868.579 805.281 866.695 804.932V804.83C868.332 804.403 869.405 802.801 869.423 800.943C869.405 798.284 867.173 796.307 864.138 796.307C861.07 796.307 858.837 798.284 858.854 800.943C858.837 802.801 859.911 804.403 861.582 804.83V804.932C859.664 805.281 858.19 807.156 858.207 809.364C858.19 812.202 860.619 814.239 864.138 814.239ZM864.138 812.364C861.744 812.364 860.269 811.136 860.286 809.261C860.269 807.293 861.897 805.886 864.138 805.886C866.346 805.886 867.974 807.293 867.991 809.261C867.974 811.136 866.499 812.364 864.138 812.364ZM864.138 804.08C862.229 804.08 860.883 802.886 860.9 801.08C860.883 799.307 862.178 798.148 864.138 798.148C866.065 798.148 867.36 799.307 867.377 801.08C867.36 802.886 866.013 804.08 864.138 804.08ZM879.132 814.239C882.66 814.281 884.962 811.622 884.962 808.375C884.962 805 882.464 802.58 879.473 802.58C877.675 802.58 876.132 803.457 875.178 804.898H875.041C875.05 800.645 876.703 798.182 879.405 798.182C881.246 798.182 882.354 799.341 882.746 800.909H884.825C884.399 798.199 882.337 796.307 879.405 796.307C875.476 796.307 873.064 799.784 873.064 805.955C873.064 812.406 876.268 814.205 879.132 814.239ZM879.132 812.364C876.942 812.364 875.339 810.497 875.348 808.409C875.356 806.321 877.035 804.455 879.2 804.455C881.339 804.455 882.916 806.21 882.916 808.375C882.916 810.591 881.271 812.364 879.132 812.364ZM893.904 814.239C897.39 814.239 899.819 812.202 899.836 809.364C899.819 807.156 898.344 805.281 896.461 804.932V804.83C898.097 804.403 899.171 802.801 899.188 800.943C899.171 798.284 896.938 796.307 893.904 796.307C890.836 796.307 888.603 798.284 888.62 800.943C888.603 802.801 889.677 804.403 891.347 804.83V804.932C889.43 805.281 887.955 807.156 887.972 809.364C887.955 812.202 890.384 814.239 893.904 814.239ZM893.904 812.364C891.509 812.364 890.035 811.136 890.052 809.261C890.035 807.293 891.663 805.886 893.904 805.886C896.111 805.886 897.739 807.293 897.756 809.261C897.739 811.136 896.265 812.364 893.904 812.364ZM893.904 804.08C891.995 804.08 890.648 802.886 890.665 801.08C890.648 799.307 891.944 798.148 893.904 798.148C895.83 798.148 897.126 799.307 897.143 801.08C897.126 802.886 895.779 804.08 893.904 804.08ZM903.409 814H914.08V812.125H905.523V806.193H913.398V804.318H905.523V798.42H913.943V796.545H903.409V814ZM923.003 796.307C919.457 796.264 917.173 798.932 917.173 802.136C917.173 805.511 919.662 807.932 922.662 807.932C924.469 807.932 926.003 807.045 926.957 805.614H927.094C927.094 809.909 925.423 812.364 922.73 812.364C920.889 812.364 919.764 811.205 919.389 809.602H917.31C917.719 812.364 919.798 814.239 922.73 814.239C926.651 814.239 929.071 810.761 929.071 804.557C929.071 798.148 925.866 796.341 923.003 796.307ZM923.003 798.182C925.185 798.182 926.787 800.057 926.787 802.102C926.787 804.182 925.082 806.057 922.935 806.057C920.787 806.057 919.219 804.318 919.219 802.136C919.219 799.955 920.855 798.182 923.003 798.182ZM938.218 814.239C941.746 814.281 944.048 811.622 944.048 808.375C944.048 805 941.55 802.58 938.559 802.58C936.761 802.58 935.218 803.457 934.263 804.898H934.127C934.136 800.645 935.789 798.182 938.491 798.182C940.332 798.182 941.44 799.341 941.832 800.909H943.911C943.485 798.199 941.423 796.307 938.491 796.307C934.562 796.307 932.15 799.784 932.15 805.955C932.15 812.406 935.354 814.205 938.218 814.239ZM938.218 812.364C936.028 812.364 934.425 810.497 934.434 808.409C934.442 806.321 936.121 804.455 938.286 804.455C940.425 804.455 942.002 806.21 942.002 808.375C942.002 810.591 940.357 812.364 938.218 812.364Z" fill="white"/>
<rect x="1142.4" y="220" width="316.8" height="640" rx="32" fill="#495057"/>
<path d="M1199.85 751.25H1204.85C1204.22 746.648 1200.16 743.409 1194.9 743.409C1188.75 743.409 1184.01 747.841 1184.01 755.386C1184.01 762.75 1188.45 767.318 1195 767.318C1200.88 767.318 1205.07 763.602 1205.07 757.477V754.545H1195.33V758.25H1200.33C1200.26 761.136 1198.3 762.966 1195.02 762.966C1191.33 762.966 1189 760.205 1189 755.341C1189 750.5 1191.42 747.761 1194.98 747.761C1197.51 747.761 1199.23 749.068 1199.85 751.25ZM1208.68 767H1213.52V757.125C1213.52 754.977 1215.08 753.5 1217.22 753.5C1217.89 753.5 1218.81 753.614 1219.27 753.761V749.466C1218.83 749.364 1218.23 749.295 1217.74 749.295C1215.79 749.295 1214.19 750.432 1213.55 752.591H1213.37V749.545H1208.68V767ZM1226.25 767.33C1228.83 767.33 1230.5 766.205 1231.35 764.58H1231.49V767H1236.08V755.227C1236.08 751.068 1232.55 749.318 1228.67 749.318C1224.49 749.318 1221.74 751.318 1221.06 754.5L1225.54 754.864C1225.87 753.705 1226.91 752.852 1228.64 752.852C1230.29 752.852 1231.24 753.682 1231.24 755.114V755.182C1231.24 756.307 1230.04 756.455 1227.01 756.75C1223.55 757.068 1220.45 758.227 1220.45 762.125C1220.45 765.58 1222.92 767.33 1226.25 767.33ZM1227.63 763.989C1226.14 763.989 1225.08 763.295 1225.08 761.966C1225.08 760.602 1226.2 759.932 1227.91 759.693C1228.96 759.545 1230.69 759.295 1231.27 758.909V760.761C1231.27 762.591 1229.76 763.989 1227.63 763.989ZM1242.2 773.545C1245.8 773.545 1247.71 771.705 1248.7 768.886L1255.48 749.568L1250.35 749.545L1246.71 762.364H1246.52L1242.91 749.545H1237.82L1244.08 767.5L1243.8 768.239C1243.16 769.875 1241.95 769.955 1240.24 769.432L1239.15 773.045C1239.84 773.341 1240.97 773.545 1242.2 773.545ZM1264.97 762.909H1276.14V767H1280.84V762.909H1283.73V758.966H1280.84V743.727H1274.68L1264.97 759.034V762.909ZM1276.23 758.966H1269.92V758.784L1276.04 749.091H1276.23V758.966ZM1296.13 767.511C1301.98 767.511 1305.52 763.057 1305.53 755.386C1305.54 747.773 1301.96 743.409 1296.13 743.409C1290.29 743.409 1286.74 747.761 1286.73 755.386C1286.71 763.034 1290.27 767.5 1296.13 767.511ZM1296.13 763.432C1293.46 763.432 1291.73 760.75 1291.74 755.386C1291.76 750.102 1293.47 747.443 1296.13 747.443C1298.78 747.443 1300.51 750.102 1300.51 755.386C1300.52 760.75 1298.79 763.432 1296.13 763.432ZM1318.16 767.511C1324.01 767.511 1327.55 763.057 1327.56 755.386C1327.57 747.773 1323.99 743.409 1318.16 743.409C1312.32 743.409 1308.77 747.761 1308.76 755.386C1308.74 763.034 1312.3 767.5 1318.16 767.511ZM1318.16 763.432C1315.49 763.432 1313.76 760.75 1313.77 755.386C1313.79 750.102 1315.5 747.443 1318.16 747.443C1320.81 747.443 1322.54 750.102 1322.54 755.386C1322.55 760.75 1320.82 763.432 1318.16 763.432Z" fill="white"/>
<path d="M1190.75 814H1192.46L1193.25 809.159H1195.83L1196.1 807.455H1193.53L1194.25 803.091H1196.85L1197.13 801.386H1194.53L1195.32 796.545H1193.62L1192.82 801.386H1188.39L1189.18 796.545H1187.48L1186.69 801.386H1184.1L1183.83 803.091H1186.41L1185.69 807.455H1183.08L1182.81 809.159H1185.41L1184.62 814H1186.32L1187.11 809.159H1191.54L1190.75 814ZM1187.39 807.455L1188.11 803.091H1192.54L1191.83 807.455H1187.39ZM1198.94 810.42H1207.15V814H1209.17V810.42H1211.55V808.545H1209.17V796.545H1206.61L1198.94 808.682V810.42ZM1207.15 808.545H1201.22V808.409L1207.02 799.239H1207.15V808.545ZM1220.3 796.307C1216.76 796.264 1214.47 798.932 1214.47 802.136C1214.47 805.511 1216.96 807.932 1219.96 807.932C1221.77 807.932 1223.3 807.045 1224.26 805.614H1224.39C1224.39 809.909 1222.72 812.364 1220.03 812.364C1218.19 812.364 1217.06 811.205 1216.69 809.602H1214.61C1215.02 812.364 1217.1 814.239 1220.03 814.239C1223.95 814.239 1226.37 810.761 1226.37 804.557C1226.37 798.148 1223.17 796.341 1220.3 796.307ZM1220.3 798.182C1222.48 798.182 1224.09 800.057 1224.09 802.102C1224.09 804.182 1222.38 806.057 1220.23 806.057C1218.09 806.057 1216.52 804.318 1216.52 802.136C1216.52 799.955 1218.15 798.182 1220.3 798.182ZM1235.18 814.239C1238.5 814.239 1240.94 811.784 1240.94 808.443C1240.94 805.06 1238.59 802.58 1235.38 802.58C1234.21 802.58 1233.06 802.997 1232.35 803.568H1232.25L1232.86 798.42H1240.15V796.545H1231.09L1230.03 805.136L1232.01 805.375C1232.73 804.855 1233.97 804.48 1235.04 804.489C1237.26 804.506 1238.89 806.193 1238.89 808.477C1238.89 810.719 1237.32 812.364 1235.18 812.364C1233.39 812.364 1231.96 811.213 1231.8 809.636H1229.76C1229.88 812.295 1232.18 814.239 1235.18 814.239ZM1250.02 814.239C1253.87 814.239 1256.09 810.974 1256.09 805.273C1256.09 799.614 1253.84 796.307 1250.02 796.307C1246.2 796.307 1243.95 799.614 1243.95 805.273C1243.95 810.974 1246.16 814.239 1250.02 814.239ZM1250.02 812.364C1247.48 812.364 1245.99 809.815 1245.99 805.273C1245.99 800.739 1247.49 798.148 1250.02 798.148C1252.54 798.148 1254.04 800.739 1254.04 805.273C1254.04 809.815 1252.56 812.364 1250.02 812.364ZM1264.78 814.239C1268.1 814.239 1270.54 811.784 1270.54 808.443C1270.54 805.06 1268.19 802.58 1264.98 802.58C1263.81 802.58 1262.66 802.997 1261.95 803.568H1261.85L1262.46 798.42H1269.76V796.545H1260.69L1259.63 805.136L1261.61 805.375C1262.33 804.855 1263.57 804.48 1264.64 804.489C1266.87 804.506 1268.49 806.193 1268.49 808.477C1268.49 810.719 1266.93 812.364 1264.78 812.364C1262.99 812.364 1261.57 811.213 1261.4 809.636H1259.36C1259.49 812.295 1261.78 814.239 1264.78 814.239ZM1274.47 814H1276.69L1284.46 798.523V796.545H1273.28V798.42H1282.28V798.557L1274.47 814Z" fill="white"/>
<rect x="1483.2" y="220" width="316.8" height="640" rx="32" fill="#343A40"/>
<path d="M1540.65 751.25H1545.65C1545.02 746.648 1540.96 743.409 1535.7 743.409C1529.55 743.409 1524.81 747.841 1524.81 755.386C1524.81 762.75 1529.25 767.318 1535.8 767.318C1541.68 767.318 1545.87 763.602 1545.87 757.477V754.545H1536.13V758.25H1541.13C1541.06 761.136 1539.1 762.966 1535.82 762.966C1532.13 762.966 1529.8 760.205 1529.8 755.341C1529.8 750.5 1532.22 747.761 1535.78 747.761C1538.31 747.761 1540.03 749.068 1540.65 751.25ZM1549.48 767H1554.32V757.125C1554.32 754.977 1555.88 753.5 1558.02 753.5C1558.69 753.5 1559.61 753.614 1560.07 753.761V749.466C1559.63 749.364 1559.03 749.295 1558.54 749.295C1556.59 749.295 1554.99 750.432 1554.35 752.591H1554.17V749.545H1549.48V767ZM1567.05 767.33C1569.63 767.33 1571.3 766.205 1572.15 764.58H1572.29V767H1576.88V755.227C1576.88 751.068 1573.35 749.318 1569.47 749.318C1565.29 749.318 1562.54 751.318 1561.86 754.5L1566.34 754.864C1566.67 753.705 1567.71 752.852 1569.44 752.852C1571.09 752.852 1572.04 753.682 1572.04 755.114V755.182C1572.04 756.307 1570.84 756.455 1567.81 756.75C1564.35 757.068 1561.25 758.227 1561.25 762.125C1561.25 765.58 1563.72 767.33 1567.05 767.33ZM1568.43 763.989C1566.94 763.989 1565.88 763.295 1565.88 761.966C1565.88 760.602 1567 759.932 1568.71 759.693C1569.76 759.545 1571.49 759.295 1572.07 758.909V760.761C1572.07 762.591 1570.56 763.989 1568.43 763.989ZM1583 773.545C1586.6 773.545 1588.51 771.705 1589.5 768.886L1596.28 749.568L1591.15 749.545L1587.51 762.364H1587.32L1583.71 749.545H1578.62L1584.88 767.5L1584.6 768.239C1583.96 769.875 1582.75 769.955 1581.04 769.432L1579.95 773.045C1580.64 773.341 1581.77 773.545 1583 773.545ZM1614.62 767.318C1619.8 767.318 1623.32 763.943 1623.31 759.239C1623.32 754.784 1620.21 751.58 1616.02 751.58C1613.97 751.58 1612.21 752.432 1611.39 753.58H1611.25L1611.86 747.75H1622.03V743.727H1607.8L1606.7 756L1611.07 756.784C1611.79 755.818 1613.17 755.216 1614.55 755.216C1616.89 755.227 1618.57 756.92 1618.57 759.364C1618.57 761.784 1616.92 763.455 1614.62 763.455C1612.66 763.455 1611.08 762.227 1610.97 760.42H1606.2C1606.29 764.443 1609.8 767.318 1614.62 767.318ZM1635.87 767.511C1641.72 767.511 1645.25 763.057 1645.27 755.386C1645.28 747.773 1641.7 743.409 1635.87 743.409C1630.03 743.409 1626.48 747.761 1626.47 755.386C1626.45 763.034 1630 767.5 1635.87 767.511ZM1635.87 763.432C1633.2 763.432 1631.47 760.75 1631.48 755.386C1631.49 750.102 1633.21 747.443 1635.87 747.443C1638.52 747.443 1640.24 750.102 1640.24 755.386C1640.25 760.75 1638.53 763.432 1635.87 763.432ZM1657.9 767.511C1663.75 767.511 1667.29 763.057 1667.3 755.386C1667.31 747.773 1663.73 743.409 1657.9 743.409C1652.06 743.409 1648.51 747.761 1648.5 755.386C1648.48 763.034 1652.04 767.5 1657.9 767.511ZM1657.9 763.432C1655.23 763.432 1653.5 760.75 1653.51 755.386C1653.52 750.102 1655.24 747.443 1657.9 747.443C1660.55 747.443 1662.27 750.102 1662.27 755.386C1662.29 760.75 1660.56 763.432 1657.9 763.432Z" fill="white"/>
<path d="M1531.55 814H1533.26L1534.05 809.159H1536.63L1536.9 807.455H1534.33L1535.05 803.091H1537.65L1537.93 801.386H1535.33L1536.12 796.545H1534.42L1533.62 801.386H1529.19L1529.98 796.545H1528.28L1527.49 801.386H1524.9L1524.63 803.091H1527.21L1526.49 807.455H1523.88L1523.61 809.159H1526.21L1525.42 814H1527.12L1527.91 809.159H1532.34L1531.55 814ZM1528.19 807.455L1528.91 803.091H1533.34L1532.63 807.455H1528.19ZM1546.05 814.239C1549.43 814.239 1551.94 812.116 1551.94 809.261C1551.94 807.045 1550.63 805.435 1548.43 805.068V804.932C1550.2 804.395 1551.3 802.946 1551.3 800.977C1551.3 798.506 1549.34 796.307 1546.11 796.307C1543.1 796.307 1540.59 798.165 1540.49 800.909H1542.53C1542.61 799.17 1544.26 798.148 1546.08 798.148C1548.01 798.148 1549.25 799.315 1549.25 801.08C1549.25 802.92 1547.81 804.114 1545.74 804.114H1544.34V805.989H1545.74C1548.39 805.989 1549.86 807.335 1549.86 809.261C1549.86 811.111 1548.25 812.364 1546.01 812.364C1543.99 812.364 1542.39 811.324 1542.26 809.636H1540.11C1540.24 812.381 1542.66 814.239 1546.05 814.239ZM1555.02 810.42H1563.24V814H1565.25V810.42H1567.63V808.545H1565.25V796.545H1562.69L1555.02 808.682V810.42ZM1563.24 808.545H1557.3V808.409L1563.1 799.239H1563.24V808.545ZM1576.72 814.239C1580.11 814.239 1582.62 812.116 1582.62 809.261C1582.62 807.045 1581.31 805.435 1579.11 805.068V804.932C1580.88 804.395 1581.97 802.946 1581.97 800.977C1581.97 798.506 1580.02 796.307 1576.79 796.307C1573.78 796.307 1571.27 798.165 1571.17 800.909H1573.21C1573.29 799.17 1574.94 798.148 1576.76 798.148C1578.69 798.148 1579.93 799.315 1579.93 801.08C1579.93 802.92 1578.49 804.114 1576.42 804.114H1575.02V805.989H1576.42C1579.07 805.989 1580.54 807.335 1580.54 809.261C1580.54 811.111 1578.93 812.364 1576.69 812.364C1574.67 812.364 1573.07 811.324 1572.94 809.636H1570.79C1570.92 812.381 1573.34 814.239 1576.72 814.239ZM1587.13 814L1588.89 809.057H1595.94L1597.7 814H1599.92L1593.51 796.545H1591.32L1584.92 814H1587.13ZM1589.55 807.182L1592.35 799.307H1592.48L1595.28 807.182H1589.55ZM1601.92 810.42H1610.13V814H1612.15V810.42H1614.53V808.545H1612.15V796.545H1609.59L1601.92 808.682V810.42ZM1610.13 808.545H1604.2V808.409L1610 799.239H1610.13V808.545ZM1623.42 814.239C1627.27 814.239 1629.49 810.974 1629.49 805.273C1629.49 799.614 1627.24 796.307 1623.42 796.307C1619.6 796.307 1617.35 799.614 1617.35 805.273C1617.35 810.974 1619.57 814.239 1623.42 814.239ZM1623.42 812.364C1620.88 812.364 1619.4 809.815 1619.4 805.273C1619.4 800.739 1620.9 798.148 1623.42 798.148C1625.94 798.148 1627.44 800.739 1627.44 805.273C1627.44 809.815 1625.96 812.364 1623.42 812.364Z" fill="white"/>
</svg>
