<svg width="1920" height="1080" viewBox="0 0 1920 1080" fill="none" xmlns="http://www.w3.org/2000/svg">
<rect width="1920" height="1080" fill="white"/>
<line x1="120" y1="61.5" x2="1800" y2="61.5" stroke="#212529" stroke-width="5"/>
<path d="M122.149 121H137.978V116.69H127.377V96.2727H122.149V121ZM141.344 121H146.487V102.455H141.344V121ZM143.927 100.064C145.461 100.064 146.716 98.8928 146.716 97.456C146.716 96.0312 145.461 94.8601 143.927 94.8601C142.406 94.8601 141.15 96.0312 141.15 97.456C141.15 98.8928 142.406 100.064 143.927 100.064ZM158.962 128.341C164.263 128.341 168.03 125.926 168.03 121.181V102.455H162.923V105.57H162.729C162.041 104.06 160.532 102.213 157.429 102.213C153.36 102.213 149.919 105.376 149.919 111.691C149.919 117.861 153.263 120.734 157.441 120.734C160.399 120.734 162.053 119.249 162.729 117.716H162.947V121.109C162.947 123.656 161.317 124.646 159.083 124.646C156.813 124.646 155.666 123.656 155.244 122.533L150.487 123.173C151.102 126.095 153.964 128.341 158.962 128.341ZM159.071 116.871C156.548 116.871 155.171 114.866 155.171 111.667C155.171 108.516 156.523 106.306 159.071 106.306C161.57 106.306 162.971 108.419 162.971 111.667C162.971 114.939 161.546 116.871 159.071 116.871ZM177.266 110.278C177.278 107.888 178.739 106.487 180.84 106.487C182.929 106.487 184.161 107.827 184.148 110.109V121H189.292V109.192C189.304 104.845 186.744 102.213 182.881 102.213C180.067 102.213 178.184 103.541 177.339 105.727H177.121V96.2727H172.123V121H177.266V110.278ZM203.204 102.455H199.715V98.0114H194.571V102.455H192.036V106.318H194.571V115.977C194.547 119.612 197.022 121.411 200.753 121.254C202.081 121.205 203.023 120.94 203.542 120.771L202.733 116.943C202.48 116.991 201.936 117.112 201.453 117.112C200.427 117.112 199.715 116.726 199.715 115.301V106.318H203.204V102.455ZM214.52 121H219.591V118.03H219.821C220.533 119.575 222.091 121.302 225.085 121.302C229.311 121.302 232.607 117.957 232.607 111.751C232.607 105.376 229.166 102.213 225.097 102.213C221.994 102.213 220.509 104.06 219.821 105.57H219.664V96.2727H214.52V121ZM219.555 111.727C219.555 108.419 220.956 106.306 223.455 106.306C226.002 106.306 227.355 108.516 227.355 111.727C227.355 114.963 225.978 117.209 223.455 117.209C220.98 117.209 219.555 115.036 219.555 111.727ZM241.182 96.2727H236.039V121H241.182V96.2727ZM257.195 113.104C257.207 115.591 255.505 116.895 253.658 116.895C251.714 116.895 250.458 115.531 250.446 113.345V102.455H245.303V114.263C245.315 118.597 247.85 121.241 251.581 121.241C254.37 121.241 256.374 119.805 257.207 117.631H257.401V121H262.339V102.455H257.195V113.104ZM274.905 121.362C279.493 121.362 282.584 119.129 283.308 115.688L278.551 115.374C278.032 116.786 276.704 117.523 274.989 117.523C272.417 117.523 270.787 115.82 270.787 113.055V113.043H283.417V111.631C283.417 105.328 279.601 102.213 274.699 102.213C269.242 102.213 265.704 106.089 265.704 111.812C265.704 117.692 269.194 121.362 274.905 121.362ZM270.787 109.856C270.896 107.743 272.502 106.053 274.784 106.053C277.018 106.053 278.563 107.646 278.575 109.856H270.787Z" fill="#212529"/>
<rect x="120" y="220" width="316.8" height="640" rx="32" fill="#F3F5FC"/>
<path d="M162.023 767H176.92V762.943H166.943V743.727H162.023V767ZM180.088 767H184.929V749.545H180.088V767ZM182.52 747.295C183.963 747.295 185.145 746.193 185.145 744.841C185.145 743.5 183.963 742.398 182.52 742.398C181.088 742.398 179.906 743.5 179.906 744.841C179.906 746.193 181.088 747.295 182.52 747.295ZM196.67 773.909C201.659 773.909 205.205 771.636 205.205 767.17V749.545H200.398V752.477H200.216C199.568 751.057 198.148 749.318 195.227 749.318C191.398 749.318 188.159 752.295 188.159 758.239C188.159 764.045 191.307 766.75 195.239 766.75C198.023 766.75 199.58 765.352 200.216 763.909H200.42V767.102C200.42 769.5 198.886 770.432 196.784 770.432C194.648 770.432 193.568 769.5 193.17 768.443L188.693 769.045C189.273 771.795 191.966 773.909 196.67 773.909ZM196.773 763.114C194.398 763.114 193.102 761.227 193.102 758.216C193.102 755.25 194.375 753.17 196.773 753.17C199.125 753.17 200.443 755.159 200.443 758.216C200.443 761.295 199.102 763.114 196.773 763.114ZM213.898 756.909C213.909 754.659 215.284 753.341 217.261 753.341C219.227 753.341 220.386 754.602 220.375 756.75V767H225.216V755.886C225.227 751.795 222.818 749.318 219.182 749.318C216.534 749.318 214.761 750.568 213.966 752.625H213.761V743.727H209.057V767H213.898V756.909ZM238.31 749.545H235.026V745.364H230.185V749.545H227.798V753.182H230.185V762.273C230.162 765.693 232.491 767.386 236.003 767.239C237.253 767.193 238.139 766.943 238.628 766.784L237.866 763.182C237.628 763.227 237.116 763.341 236.662 763.341C235.696 763.341 235.026 762.977 235.026 761.636V753.182H238.31V749.545ZM248.96 767H253.733V764.205H253.949C254.619 765.659 256.085 767.284 258.903 767.284C262.881 767.284 265.983 764.136 265.983 758.295C265.983 752.295 262.744 749.318 258.915 749.318C255.994 749.318 254.597 751.057 253.949 752.477H253.801V743.727H248.96V767ZM253.699 758.273C253.699 755.159 255.017 753.17 257.369 753.17C259.767 753.17 261.04 755.25 261.04 758.273C261.04 761.318 259.744 763.432 257.369 763.432C255.04 763.432 253.699 761.386 253.699 758.273ZM274.054 743.727H269.213V767H274.054V743.727ZM289.125 759.568C289.136 761.909 287.534 763.136 285.795 763.136C283.966 763.136 282.784 761.852 282.773 759.795V749.545H277.932V760.659C277.943 764.739 280.33 767.227 283.841 767.227C286.466 767.227 288.352 765.875 289.136 763.83H289.318V767H293.966V749.545H289.125V759.568ZM305.793 767.341C310.111 767.341 313.02 765.239 313.702 762L309.224 761.705C308.736 763.034 307.486 763.727 305.872 763.727C303.452 763.727 301.918 762.125 301.918 759.523V759.511H313.804V758.182C313.804 752.25 310.213 749.318 305.599 749.318C300.463 749.318 297.134 752.966 297.134 758.352C297.134 763.886 300.418 767.341 305.793 767.341ZM301.918 756.511C302.02 754.523 303.531 752.932 305.679 752.932C307.781 752.932 309.236 754.432 309.247 756.511H301.918ZM334.449 743.727H329.824L324.062 747.375V751.739L329.392 748.398H329.528V767H334.449V743.727ZM349.105 767.511C354.957 767.511 358.491 763.057 358.503 755.386C358.514 747.773 354.935 743.409 349.105 743.409C343.264 743.409 339.719 747.761 339.707 755.386C339.685 763.034 343.241 767.5 349.105 767.511ZM349.105 763.432C346.435 763.432 344.707 760.75 344.719 755.386C344.73 750.102 346.446 747.443 349.105 747.443C351.753 747.443 353.48 750.102 353.48 755.386C353.491 760.75 351.764 763.432 349.105 763.432ZM371.136 767.511C376.989 767.511 380.523 763.057 380.534 755.386C380.545 747.773 376.966 743.409 371.136 743.409C365.295 743.409 361.75 747.761 361.739 755.386C361.716 763.034 365.273 767.5 371.136 767.511ZM371.136 763.432C368.466 763.432 366.739 760.75 366.75 755.386C366.761 750.102 368.477 747.443 371.136 747.443C373.784 747.443 375.511 750.102 375.511 755.386C375.523 760.75 373.795 763.432 371.136 763.432Z" fill="#45565F"/>
<path d="M168.352 814H170.057L170.849 809.159H173.432L173.705 807.455H171.131L171.847 803.091H174.455L174.727 801.386H172.128L172.92 796.545H171.216L170.423 801.386H165.991L166.784 796.545H165.08L164.287 801.386H161.705L161.432 803.091H164.006L163.29 807.455H160.682L160.409 809.159H163.009L162.216 814H163.92L164.713 809.159H169.145L168.352 814ZM164.994 807.455L165.71 803.091H170.142L169.426 807.455H164.994ZM177.254 814H179.368V806.193H186.936V804.318H179.368V798.42H187.72V796.545H177.254V814ZM196.931 814.239C200.315 814.239 202.829 812.116 202.829 809.261C202.829 807.045 201.516 805.435 199.317 805.068V804.932C201.082 804.395 202.181 802.946 202.181 800.977C202.181 798.506 200.229 796.307 196.999 796.307C193.982 796.307 191.477 798.165 191.374 800.909H193.42C193.496 799.17 195.15 798.148 196.965 798.148C198.891 798.148 200.136 799.315 200.136 801.08C200.136 802.92 198.695 804.114 196.624 804.114H195.227V805.989H196.624C199.275 805.989 200.749 807.335 200.749 809.261C200.749 811.111 199.138 812.364 196.897 812.364C194.877 812.364 193.275 811.324 193.147 809.636H190.999C191.127 812.381 193.548 814.239 196.931 814.239ZM206.621 814H208.735V806.193H216.303V804.318H208.735V798.42H217.087V796.545H206.621V814ZM225.855 814.239C229.179 814.239 231.616 811.784 231.616 808.443C231.616 805.06 229.264 802.58 226.06 802.58C224.884 802.58 223.741 802.997 223.026 803.568H222.923L223.537 798.42H230.832V796.545H221.764L220.707 805.136L222.685 805.375C223.409 804.855 224.645 804.48 225.719 804.489C227.943 804.506 229.571 806.193 229.571 808.477C229.571 810.719 228.003 812.364 225.855 812.364C224.065 812.364 222.642 811.213 222.48 809.636H220.435C220.562 812.295 222.855 814.239 225.855 814.239ZM235.309 814H237.423V806.193H244.991V804.318H237.423V798.42H245.775V796.545H235.309V814ZM263.44 802C262.793 798.42 259.929 796.307 256.418 796.307C251.952 796.307 248.713 799.75 248.713 805.273C248.713 810.795 251.952 814.239 256.418 814.239C259.929 814.239 262.793 812.125 263.44 808.545H261.327C260.815 810.966 258.736 812.261 256.418 812.261C253.247 812.261 250.759 809.807 250.759 805.273C250.759 800.739 253.247 798.284 256.418 798.284C258.736 798.284 260.815 799.58 261.327 802H263.44Z" fill="#45565F"/>
<rect x="460.8" y="220" width="316.8" height="640" rx="32" fill="#EFF1FA"/>
<path d="M502.823 767H517.72V762.943H507.743V743.727H502.823V767ZM520.888 767H525.729V749.545H520.888V767ZM523.32 747.295C524.763 747.295 525.945 746.193 525.945 744.841C525.945 743.5 524.763 742.398 523.32 742.398C521.888 742.398 520.706 743.5 520.706 744.841C520.706 746.193 521.888 747.295 523.32 747.295ZM537.47 773.909C542.459 773.909 546.005 771.636 546.005 767.17V749.545H541.198V752.477H541.016C540.368 751.057 538.948 749.318 536.027 749.318C532.198 749.318 528.959 752.295 528.959 758.239C528.959 764.045 532.107 766.75 536.039 766.75C538.823 766.75 540.38 765.352 541.016 763.909H541.22V767.102C541.22 769.5 539.686 770.432 537.584 770.432C535.448 770.432 534.368 769.5 533.97 768.443L529.493 769.045C530.073 771.795 532.766 773.909 537.47 773.909ZM537.573 763.114C535.198 763.114 533.902 761.227 533.902 758.216C533.902 755.25 535.175 753.17 537.573 753.17C539.925 753.17 541.243 755.159 541.243 758.216C541.243 761.295 539.902 763.114 537.573 763.114ZM554.698 756.909C554.709 754.659 556.084 753.341 558.061 753.341C560.027 753.341 561.186 754.602 561.175 756.75V767H566.016V755.886C566.027 751.795 563.618 749.318 559.982 749.318C557.334 749.318 555.561 750.568 554.766 752.625H554.561V743.727H549.857V767H554.698V756.909ZM579.11 749.545H575.826V745.364H570.985V749.545H568.598V753.182H570.985V762.273C570.962 765.693 573.291 767.386 576.803 767.239C578.053 767.193 578.939 766.943 579.428 766.784L578.666 763.182C578.428 763.227 577.916 763.341 577.462 763.341C576.496 763.341 575.826 762.977 575.826 761.636V753.182H579.11V749.545ZM589.76 767H594.533V764.205H594.749C595.419 765.659 596.885 767.284 599.703 767.284C603.681 767.284 606.783 764.136 606.783 758.295C606.783 752.295 603.544 749.318 599.715 749.318C596.794 749.318 595.397 751.057 594.749 752.477H594.601V743.727H589.76V767ZM594.499 758.273C594.499 755.159 595.817 753.17 598.169 753.17C600.567 753.17 601.84 755.25 601.84 758.273C601.84 761.318 600.544 763.432 598.169 763.432C595.84 763.432 594.499 761.386 594.499 758.273ZM614.854 743.727H610.013V767H614.854V743.727ZM629.925 759.568C629.936 761.909 628.334 763.136 626.595 763.136C624.766 763.136 623.584 761.852 623.573 759.795V749.545H618.732V760.659C618.743 764.739 621.13 767.227 624.641 767.227C627.266 767.227 629.152 765.875 629.936 763.83H630.118V767H634.766V749.545H629.925V759.568ZM646.593 767.341C650.911 767.341 653.82 765.239 654.502 762L650.024 761.705C649.536 763.034 648.286 763.727 646.672 763.727C644.252 763.727 642.718 762.125 642.718 759.523V759.511H654.604V758.182C654.604 752.25 651.013 749.318 646.399 749.318C641.263 749.318 637.934 752.966 637.934 758.352C637.934 763.886 641.218 767.341 646.593 767.341ZM642.718 756.511C642.82 754.523 644.331 752.932 646.479 752.932C648.581 752.932 650.036 754.432 650.047 756.511H642.718ZM665.124 767H681.715V762.977H671.942V762.818L675.34 759.489C680.124 755.125 681.408 752.943 681.408 750.295C681.408 746.261 678.112 743.409 673.124 743.409C668.237 743.409 664.885 746.33 664.897 750.898H669.567C669.556 748.67 670.965 747.307 673.09 747.307C675.135 747.307 676.658 748.58 676.658 750.625C676.658 752.477 675.522 753.75 673.408 755.784L665.124 763.455V767ZM694.405 767.511C700.257 767.511 703.791 763.057 703.803 755.386C703.814 747.773 700.235 743.409 694.405 743.409C688.564 743.409 685.019 747.761 685.007 755.386C684.985 763.034 688.541 767.5 694.405 767.511ZM694.405 763.432C691.735 763.432 690.007 760.75 690.019 755.386C690.03 750.102 691.746 747.443 694.405 747.443C697.053 747.443 698.78 750.102 698.78 755.386C698.791 760.75 697.064 763.432 694.405 763.432ZM716.436 767.511C722.289 767.511 725.823 763.057 725.834 755.386C725.845 747.773 722.266 743.409 716.436 743.409C710.595 743.409 707.05 747.761 707.039 755.386C707.016 763.034 710.573 767.5 716.436 767.511ZM716.436 763.432C713.766 763.432 712.039 760.75 712.05 755.386C712.061 750.102 713.777 747.443 716.436 747.443C719.084 747.443 720.811 750.102 720.811 755.386C720.823 760.75 719.095 763.432 716.436 763.432Z" fill="#45565F"/>
<path d="M509.152 814H510.857L511.649 809.159H514.232L514.505 807.455H511.931L512.647 803.091H515.255L515.527 801.386H512.928L513.72 796.545H512.016L511.223 801.386H506.791L507.584 796.545H505.88L505.087 801.386H502.505L502.232 803.091H504.806L504.09 807.455H501.482L501.209 809.159H503.809L503.016 814H504.72L505.513 809.159H509.945L509.152 814ZM505.794 807.455L506.51 803.091H510.942L510.226 807.455H505.794ZM518.054 814H528.725V812.125H520.168V806.193H528.043V804.318H520.168V798.42H528.588V796.545H518.054V814ZM532.398 814H534.512V806.193H542.08V804.318H534.512V798.42H542.864V796.545H532.398V814ZM546.484 814H548.598V806.193H556.166V804.318H548.598V798.42H556.95V796.545H546.484V814ZM566.399 796.545H564.286L559.922 799.443V801.591L564.184 798.761H564.286V814H566.399V796.545ZM571.726 814H573.84V806.193H581.408V804.318H573.84V798.42H582.192V796.545H571.726V814ZM584.348 814L586.104 809.057H593.161L594.916 814H597.132L590.723 796.545H588.541L582.132 814H584.348ZM586.769 807.182L589.564 799.307H589.701L592.496 807.182H586.769Z" fill="#45565F"/>
<rect x="801.6" y="220" width="316.8" height="640" rx="32" fill="#E9ECF8"/>
<path d="M843.623 767H858.52V762.943H848.543V743.727H843.623V767ZM861.688 767H866.529V749.545H861.688V767ZM864.12 747.295C865.563 747.295 866.745 746.193 866.745 744.841C866.745 743.5 865.563 742.398 864.12 742.398C862.688 742.398 861.506 743.5 861.506 744.841C861.506 746.193 862.688 747.295 864.12 747.295ZM878.27 773.909C883.259 773.909 886.805 771.636 886.805 767.17V749.545H881.998V752.477H881.816C881.168 751.057 879.748 749.318 876.827 749.318C872.998 749.318 869.759 752.295 869.759 758.239C869.759 764.045 872.907 766.75 876.839 766.75C879.623 766.75 881.18 765.352 881.816 763.909H882.02V767.102C882.02 769.5 880.486 770.432 878.384 770.432C876.248 770.432 875.168 769.5 874.77 768.443L870.293 769.045C870.873 771.795 873.566 773.909 878.27 773.909ZM878.373 763.114C875.998 763.114 874.702 761.227 874.702 758.216C874.702 755.25 875.975 753.17 878.373 753.17C880.725 753.17 882.043 755.159 882.043 758.216C882.043 761.295 880.702 763.114 878.373 763.114ZM895.498 756.909C895.509 754.659 896.884 753.341 898.861 753.341C900.827 753.341 901.986 754.602 901.975 756.75V767H906.816V755.886C906.827 751.795 904.418 749.318 900.782 749.318C898.134 749.318 896.361 750.568 895.566 752.625H895.361V743.727H890.657V767H895.498V756.909ZM919.91 749.545H916.626V745.364H911.785V749.545H909.398V753.182H911.785V762.273C911.762 765.693 914.091 767.386 917.603 767.239C918.853 767.193 919.739 766.943 920.228 766.784L919.466 763.182C919.228 763.227 918.716 763.341 918.262 763.341C917.296 763.341 916.626 762.977 916.626 761.636V753.182H919.91V749.545ZM930.56 767H935.333V764.205H935.549C936.219 765.659 937.685 767.284 940.503 767.284C944.481 767.284 947.583 764.136 947.583 758.295C947.583 752.295 944.344 749.318 940.515 749.318C937.594 749.318 936.197 751.057 935.549 752.477H935.401V743.727H930.56V767ZM935.299 758.273C935.299 755.159 936.617 753.17 938.969 753.17C941.367 753.17 942.64 755.25 942.64 758.273C942.64 761.318 941.344 763.432 938.969 763.432C936.64 763.432 935.299 761.386 935.299 758.273ZM955.654 743.727H950.813V767H955.654V743.727ZM970.725 759.568C970.736 761.909 969.134 763.136 967.395 763.136C965.566 763.136 964.384 761.852 964.373 759.795V749.545H959.532V760.659C959.543 764.739 961.93 767.227 965.441 767.227C968.066 767.227 969.952 765.875 970.736 763.83H970.918V767H975.566V749.545H970.725V759.568ZM987.393 767.341C991.711 767.341 994.62 765.239 995.302 762L990.824 761.705C990.336 763.034 989.086 763.727 987.472 763.727C985.052 763.727 983.518 762.125 983.518 759.523V759.511H995.404V758.182C995.404 752.25 991.813 749.318 987.199 749.318C982.063 749.318 978.733 752.966 978.733 758.352C978.733 763.886 982.018 767.341 987.393 767.341ZM983.518 756.511C983.62 754.523 985.131 752.932 987.279 752.932C989.381 752.932 990.836 754.432 990.847 756.511H983.518ZM1014.53 767.318C1019.75 767.318 1023.49 764.443 1023.48 760.466C1023.49 757.568 1021.65 755.5 1018.23 755.068V754.886C1020.83 754.42 1022.63 752.58 1022.62 749.966C1022.63 746.295 1019.41 743.409 1014.59 743.409C1009.82 743.409 1006.23 746.205 1006.16 750.227H1010.88C1010.94 748.455 1012.56 747.307 1014.57 747.307C1016.56 747.307 1017.89 748.511 1017.88 750.261C1017.89 752.091 1016.33 753.33 1014.09 753.33H1011.92V756.943H1014.09C1016.73 756.943 1018.38 758.261 1018.37 760.136C1018.38 761.989 1016.79 763.261 1014.54 763.261C1012.37 763.261 1010.74 762.125 1010.65 760.42H1005.7C1005.78 764.489 1009.41 767.318 1014.53 767.318ZM1036.14 767.511C1041.99 767.511 1045.53 763.057 1045.54 755.386C1045.55 747.773 1041.97 743.409 1036.14 743.409C1030.3 743.409 1026.76 747.761 1026.74 755.386C1026.72 763.034 1030.28 767.5 1036.14 767.511ZM1036.14 763.432C1033.47 763.432 1031.74 760.75 1031.76 755.386C1031.77 750.102 1033.48 747.443 1036.14 747.443C1038.79 747.443 1040.52 750.102 1040.52 755.386C1040.53 760.75 1038.8 763.432 1036.14 763.432ZM1058.17 767.511C1064.03 767.511 1067.56 763.057 1067.57 755.386C1067.58 747.773 1064 743.409 1058.17 743.409C1052.33 743.409 1048.79 747.761 1048.78 755.386C1048.75 763.034 1052.31 767.5 1058.17 767.511ZM1058.17 763.432C1055.5 763.432 1053.78 760.75 1053.79 755.386C1053.8 750.102 1055.51 747.443 1058.17 747.443C1060.82 747.443 1062.55 750.102 1062.55 755.386C1062.56 760.75 1060.83 763.432 1058.17 763.432Z" fill="#45565F"/>
<path d="M849.952 814H851.657L852.449 809.159H855.032L855.305 807.455H852.731L853.447 803.091H856.055L856.327 801.386H853.728L854.52 796.545H852.816L852.023 801.386H847.591L848.384 796.545H846.68L845.887 801.386H843.305L843.032 803.091H845.606L844.89 807.455H842.282L842.009 809.159H844.608L843.816 814H845.52L846.313 809.159H850.745L849.952 814ZM846.594 807.455L847.31 803.091H851.742L851.026 807.455H846.594ZM858.854 814H869.525V812.125H860.968V806.193H868.843V804.318H860.968V798.42H869.388V796.545H858.854V814ZM878.448 796.307C874.903 796.264 872.618 798.932 872.618 802.136C872.618 805.511 875.107 807.932 878.107 807.932C879.914 807.932 881.448 807.045 882.403 805.614H882.539C882.539 809.909 880.868 812.364 878.175 812.364C876.334 812.364 875.209 811.205 874.834 809.602H872.755C873.164 812.364 875.243 814.239 878.175 814.239C882.096 814.239 884.516 810.761 884.516 804.557C884.516 798.148 881.312 796.341 878.448 796.307ZM878.448 798.182C880.63 798.182 882.232 800.057 882.232 802.102C882.232 804.182 880.528 806.057 878.38 806.057C876.232 806.057 874.664 804.318 874.664 802.136C874.664 799.955 876.3 798.182 878.448 798.182ZM888.175 814H898.845V812.125H890.288V806.193H898.163V804.318H890.288V798.42H898.709V796.545H888.175V814ZM916.564 802C915.916 798.42 913.052 796.307 909.541 796.307C905.075 796.307 901.836 799.75 901.836 805.273C901.836 810.795 905.075 814.239 909.541 814.239C913.052 814.239 915.916 812.125 916.564 808.545H914.45C913.939 810.966 911.859 812.261 909.541 812.261C906.371 812.261 903.882 809.807 903.882 805.273C903.882 800.739 906.371 798.284 909.541 798.284C911.859 798.284 913.939 799.58 914.45 802H916.564ZM919.979 814H922.093V806.193H929.661V804.318H922.093V798.42H930.445V796.545H919.979V814ZM939.349 814.239C942.835 814.239 945.264 812.202 945.281 809.364C945.264 807.156 943.79 805.281 941.906 804.932V804.83C943.542 804.403 944.616 802.801 944.633 800.943C944.616 798.284 942.383 796.307 939.349 796.307C936.281 796.307 934.048 798.284 934.065 800.943C934.048 802.801 935.122 804.403 936.792 804.83V804.932C934.875 805.281 933.4 807.156 933.417 809.364C933.4 812.202 935.829 814.239 939.349 814.239ZM939.349 812.364C936.954 812.364 935.48 811.136 935.497 809.261C935.48 807.293 937.108 805.886 939.349 805.886C941.557 805.886 943.184 807.293 943.202 809.261C943.184 811.136 941.71 812.364 939.349 812.364ZM939.349 804.08C937.44 804.08 936.094 802.886 936.111 801.08C936.094 799.307 937.389 798.148 939.349 798.148C941.275 798.148 942.571 799.307 942.588 801.08C942.571 802.886 941.224 804.08 939.349 804.08Z" fill="#45565F"/>
<rect x="1142.4" y="220" width="316.8" height="640" rx="32" fill="#AAB2D5"/>
<path d="M1184.42 767H1199.32V762.943H1189.34V743.727H1184.42V767ZM1202.49 767H1207.33V749.545H1202.49V767ZM1204.92 747.295C1206.36 747.295 1207.54 746.193 1207.54 744.841C1207.54 743.5 1206.36 742.398 1204.92 742.398C1203.49 742.398 1202.31 743.5 1202.31 744.841C1202.31 746.193 1203.49 747.295 1204.92 747.295ZM1219.07 773.909C1224.06 773.909 1227.6 771.636 1227.6 767.17V749.545H1222.8V752.477H1222.62C1221.97 751.057 1220.55 749.318 1217.63 749.318C1213.8 749.318 1210.56 752.295 1210.56 758.239C1210.56 764.045 1213.71 766.75 1217.64 766.75C1220.42 766.75 1221.98 765.352 1222.62 763.909H1222.82V767.102C1222.82 769.5 1221.29 770.432 1219.18 770.432C1217.05 770.432 1215.97 769.5 1215.57 768.443L1211.09 769.045C1211.67 771.795 1214.37 773.909 1219.07 773.909ZM1219.17 763.114C1216.8 763.114 1215.5 761.227 1215.5 758.216C1215.5 755.25 1216.77 753.17 1219.17 753.17C1221.52 753.17 1222.84 755.159 1222.84 758.216C1222.84 761.295 1221.5 763.114 1219.17 763.114ZM1236.3 756.909C1236.31 754.659 1237.68 753.341 1239.66 753.341C1241.63 753.341 1242.79 754.602 1242.77 756.75V767H1247.62V755.886C1247.63 751.795 1245.22 749.318 1241.58 749.318C1238.93 749.318 1237.16 750.568 1236.37 752.625H1236.16V743.727H1231.46V767H1236.3V756.909ZM1260.71 749.545H1257.43V745.364H1252.58V749.545H1250.2V753.182H1252.58V762.273C1252.56 765.693 1254.89 767.386 1258.4 767.239C1259.65 767.193 1260.54 766.943 1261.03 766.784L1260.27 763.182C1260.03 763.227 1259.52 763.341 1259.06 763.341C1258.1 763.341 1257.43 762.977 1257.43 761.636V753.182H1260.71V749.545ZM1271.36 767H1276.13V764.205H1276.35C1277.02 765.659 1278.49 767.284 1281.3 767.284C1285.28 767.284 1288.38 764.136 1288.38 758.295C1288.38 752.295 1285.14 749.318 1281.31 749.318C1278.39 749.318 1277 751.057 1276.35 752.477H1276.2V743.727H1271.36V767ZM1276.1 758.273C1276.1 755.159 1277.42 753.17 1279.77 753.17C1282.17 753.17 1283.44 755.25 1283.44 758.273C1283.44 761.318 1282.14 763.432 1279.77 763.432C1277.44 763.432 1276.1 761.386 1276.1 758.273ZM1296.45 743.727H1291.61V767H1296.45V743.727ZM1311.52 759.568C1311.54 761.909 1309.93 763.136 1308.2 763.136C1306.37 763.136 1305.18 761.852 1305.17 759.795V749.545H1300.33V760.659C1300.34 764.739 1302.73 767.227 1306.24 767.227C1308.87 767.227 1310.75 765.875 1311.54 763.83H1311.72V767H1316.37V749.545H1311.52V759.568ZM1328.19 767.341C1332.51 767.341 1335.42 765.239 1336.1 762L1331.62 761.705C1331.14 763.034 1329.89 763.727 1328.27 763.727C1325.85 763.727 1324.32 762.125 1324.32 759.523V759.511H1336.2V758.182C1336.2 752.25 1332.61 749.318 1328 749.318C1322.86 749.318 1319.53 752.966 1319.53 758.352C1319.53 763.886 1322.82 767.341 1328.19 767.341ZM1324.32 756.511C1324.42 754.523 1325.93 752.932 1328.08 752.932C1330.18 752.932 1331.64 754.432 1331.65 756.511H1324.32ZM1346.37 762.909H1357.54V767H1362.25V762.909H1365.13V758.966H1362.25V743.727H1356.09L1346.37 759.034V762.909ZM1357.63 758.966H1351.33V758.784L1357.45 749.091H1357.63V758.966ZM1377.54 767.511C1383.39 767.511 1386.92 763.057 1386.93 755.386C1386.95 747.773 1383.37 743.409 1377.54 743.409C1371.7 743.409 1368.15 747.761 1368.14 755.386C1368.12 763.034 1371.67 767.5 1377.54 767.511ZM1377.54 763.432C1374.87 763.432 1373.14 760.75 1373.15 755.386C1373.16 750.102 1374.88 747.443 1377.54 747.443C1380.18 747.443 1381.91 750.102 1381.91 755.386C1381.92 760.75 1380.2 763.432 1377.54 763.432ZM1399.57 767.511C1405.42 767.511 1408.95 763.057 1408.97 755.386C1408.98 747.773 1405.4 743.409 1399.57 743.409C1393.73 743.409 1390.18 747.761 1390.17 755.386C1390.15 763.034 1393.7 767.5 1399.57 767.511ZM1399.57 763.432C1396.9 763.432 1395.17 760.75 1395.18 755.386C1395.19 750.102 1396.91 747.443 1399.57 747.443C1402.22 747.443 1403.94 750.102 1403.94 755.386C1403.95 760.75 1402.23 763.432 1399.57 763.432Z" fill="white"/>
<path d="M1190.75 814H1192.46L1193.25 809.159H1195.83L1196.1 807.455H1193.53L1194.25 803.091H1196.85L1197.13 801.386H1194.53L1195.32 796.545H1193.62L1192.82 801.386H1188.39L1189.18 796.545H1187.48L1186.69 801.386H1184.1L1183.83 803.091H1186.41L1185.69 807.455H1183.08L1182.81 809.159H1185.41L1184.62 814H1186.32L1187.11 809.159H1191.54L1190.75 814ZM1187.39 807.455L1188.11 803.091H1192.54L1191.83 807.455H1187.39ZM1200.37 814L1202.13 809.057H1209.18L1210.94 814H1213.15L1206.75 796.545H1204.56L1198.15 814H1200.37ZM1202.79 807.182L1205.59 799.307H1205.72L1208.52 807.182H1202.79ZM1216.59 814L1218.34 809.057H1225.4L1227.16 814H1229.37L1222.96 796.545H1220.78L1214.37 814H1216.59ZM1219.01 807.182L1221.8 799.307H1221.94L1224.74 807.182H1219.01ZM1232.09 814H1238.4C1242.52 814 1244.23 811.989 1244.23 809.364C1244.23 806.602 1242.32 805.102 1240.72 805V804.83C1242.22 804.42 1243.55 803.432 1243.55 801.182C1243.55 798.625 1241.84 796.545 1238.19 796.545H1232.09V814ZM1234.21 812.125V806.057H1238.5C1240.78 806.057 1242.22 807.591 1242.22 809.364C1242.22 810.898 1241.16 812.125 1238.4 812.125H1234.21ZM1234.21 804.216V798.42H1238.19C1240.51 798.42 1241.53 799.648 1241.53 801.182C1241.53 803.023 1240.03 804.216 1238.13 804.216H1234.21ZM1247.39 814H1258.41V812.125H1250.29V811.989L1254.21 807.795C1257.21 804.582 1258.1 803.082 1258.1 801.148C1258.1 798.455 1255.92 796.307 1252.85 796.307C1249.79 796.307 1247.46 798.386 1247.46 801.455H1249.47C1249.47 799.469 1250.76 798.148 1252.78 798.148C1254.67 798.148 1256.12 799.307 1256.12 801.148C1256.12 802.759 1255.18 803.952 1253.16 806.159L1247.39 812.466V814ZM1267.62 814C1272.94 814 1275.94 810.693 1275.94 805.239C1275.94 799.818 1272.94 796.545 1267.86 796.545H1262.23V814H1267.62ZM1264.35 812.125V798.42H1267.72C1271.81 798.42 1273.89 801.011 1273.89 805.239C1273.89 809.5 1271.81 812.125 1267.48 812.125H1264.35ZM1284.63 814.239C1287.95 814.239 1290.39 811.784 1290.39 808.443C1290.39 805.06 1288.04 802.58 1284.83 802.58C1283.66 802.58 1282.52 802.997 1281.8 803.568H1281.7L1282.31 798.42H1289.61V796.545H1280.54L1279.48 805.136L1281.46 805.375C1282.18 804.855 1283.42 804.48 1284.49 804.489C1286.72 804.506 1288.35 806.193 1288.35 808.477C1288.35 810.719 1286.78 812.364 1284.63 812.364C1282.84 812.364 1281.42 811.213 1281.26 809.636H1279.21C1279.34 812.295 1281.63 814.239 1284.63 814.239Z" fill="white"/>
<rect x="1483.2" y="220" width="316.8" height="640" rx="32" fill="#757FB2"/>
<path d="M1525.22 767H1540.12V762.943H1530.14V743.727H1525.22V767ZM1543.29 767H1548.13V749.545H1543.29V767ZM1545.72 747.295C1547.16 747.295 1548.34 746.193 1548.34 744.841C1548.34 743.5 1547.16 742.398 1545.72 742.398C1544.29 742.398 1543.11 743.5 1543.11 744.841C1543.11 746.193 1544.29 747.295 1545.72 747.295ZM1559.87 773.909C1564.86 773.909 1568.4 771.636 1568.4 767.17V749.545H1563.6V752.477H1563.42C1562.77 751.057 1561.35 749.318 1558.43 749.318C1554.6 749.318 1551.36 752.295 1551.36 758.239C1551.36 764.045 1554.51 766.75 1558.44 766.75C1561.22 766.75 1562.78 765.352 1563.42 763.909H1563.62V767.102C1563.62 769.5 1562.09 770.432 1559.98 770.432C1557.85 770.432 1556.77 769.5 1556.37 768.443L1551.89 769.045C1552.47 771.795 1555.17 773.909 1559.87 773.909ZM1559.97 763.114C1557.6 763.114 1556.3 761.227 1556.3 758.216C1556.3 755.25 1557.57 753.17 1559.97 753.17C1562.32 753.17 1563.64 755.159 1563.64 758.216C1563.64 761.295 1562.3 763.114 1559.97 763.114ZM1577.1 756.909C1577.11 754.659 1578.48 753.341 1580.46 753.341C1582.43 753.341 1583.59 754.602 1583.57 756.75V767H1588.42V755.886C1588.43 751.795 1586.02 749.318 1582.38 749.318C1579.73 749.318 1577.96 750.568 1577.17 752.625H1576.96V743.727H1572.26V767H1577.1V756.909ZM1601.51 749.545H1598.23V745.364H1593.38V749.545H1591V753.182H1593.38V762.273C1593.36 765.693 1595.69 767.386 1599.2 767.239C1600.45 767.193 1601.34 766.943 1601.83 766.784L1601.07 763.182C1600.83 763.227 1600.32 763.341 1599.86 763.341C1598.9 763.341 1598.23 762.977 1598.23 761.636V753.182H1601.51V749.545ZM1612.16 767H1616.93V764.205H1617.15C1617.82 765.659 1619.29 767.284 1622.1 767.284C1626.08 767.284 1629.18 764.136 1629.18 758.295C1629.18 752.295 1625.94 749.318 1622.11 749.318C1619.19 749.318 1617.8 751.057 1617.15 752.477H1617V743.727H1612.16V767ZM1616.9 758.273C1616.9 755.159 1618.22 753.17 1620.57 753.17C1622.97 753.17 1624.24 755.25 1624.24 758.273C1624.24 761.318 1622.94 763.432 1620.57 763.432C1618.24 763.432 1616.9 761.386 1616.9 758.273ZM1637.25 743.727H1632.41V767H1637.25V743.727ZM1652.32 759.568C1652.34 761.909 1650.73 763.136 1649 763.136C1647.17 763.136 1645.98 761.852 1645.97 759.795V749.545H1641.13V760.659C1641.14 764.739 1643.53 767.227 1647.04 767.227C1649.67 767.227 1651.55 765.875 1652.34 763.83H1652.52V767H1657.17V749.545H1652.32V759.568ZM1668.99 767.341C1673.31 767.341 1676.22 765.239 1676.9 762L1672.42 761.705C1671.94 763.034 1670.69 763.727 1669.07 763.727C1666.65 763.727 1665.12 762.125 1665.12 759.523V759.511H1677V758.182C1677 752.25 1673.41 749.318 1668.8 749.318C1663.66 749.318 1660.33 752.966 1660.33 758.352C1660.33 763.886 1663.62 767.341 1668.99 767.341ZM1665.12 756.511C1665.22 754.523 1666.73 752.932 1668.88 752.932C1670.98 752.932 1672.44 754.432 1672.45 756.511H1665.12ZM1696.02 767.318C1701.21 767.318 1704.73 763.943 1704.72 759.239C1704.73 754.784 1701.61 751.58 1697.42 751.58C1695.38 751.58 1693.61 752.432 1692.8 753.58H1692.66L1693.26 747.75H1703.43V743.727H1689.21L1688.1 756L1692.48 756.784C1693.19 755.818 1694.58 755.216 1695.96 755.216C1698.3 755.227 1699.98 756.92 1699.98 759.364C1699.98 761.784 1698.33 763.455 1696.02 763.455C1694.07 763.455 1692.49 762.227 1692.38 760.42H1687.6C1687.69 764.443 1691.21 767.318 1696.02 767.318ZM1717.27 767.511C1723.13 767.511 1726.66 763.057 1726.67 755.386C1726.68 747.773 1723.1 743.409 1717.27 743.409C1711.43 743.409 1707.89 747.761 1707.88 755.386C1707.85 763.034 1711.41 767.5 1717.27 767.511ZM1717.27 763.432C1714.6 763.432 1712.88 760.75 1712.89 755.386C1712.9 750.102 1714.61 747.443 1717.27 747.443C1719.92 747.443 1721.65 750.102 1721.65 755.386C1721.66 760.75 1719.93 763.432 1717.27 763.432ZM1739.31 767.511C1745.16 767.511 1748.69 763.057 1748.7 755.386C1748.71 747.773 1745.13 743.409 1739.31 743.409C1733.46 743.409 1729.92 747.761 1729.91 755.386C1729.88 763.034 1733.44 767.5 1739.31 767.511ZM1739.31 763.432C1736.63 763.432 1734.91 760.75 1734.92 755.386C1734.93 750.102 1736.65 747.443 1739.31 747.443C1741.95 747.443 1743.68 750.102 1743.68 755.386C1743.69 760.75 1741.96 763.432 1739.31 763.432Z" fill="white"/>
<path d="M1531.55 814H1533.26L1534.05 809.159H1536.63L1536.9 807.455H1534.33L1535.05 803.091H1537.65L1537.93 801.386H1535.33L1536.12 796.545H1534.42L1533.62 801.386H1529.19L1529.98 796.545H1528.28L1527.49 801.386H1524.9L1524.63 803.091H1527.21L1526.49 807.455H1523.88L1523.61 809.159H1526.21L1525.42 814H1527.12L1527.91 809.159H1532.34L1531.55 814ZM1528.19 807.455L1528.91 803.091H1533.34L1532.63 807.455H1528.19ZM1540.69 814H1542.91L1550.68 798.523V796.545H1539.5V798.42H1548.5V798.557L1540.69 814ZM1559.08 814.239C1562.4 814.239 1564.84 811.784 1564.84 808.443C1564.84 805.06 1562.49 802.58 1559.28 802.58C1558.11 802.58 1556.96 802.997 1556.25 803.568H1556.15L1556.76 798.42H1564.06V796.545H1554.99L1553.93 805.136L1555.91 805.375C1556.63 804.855 1557.87 804.48 1558.94 804.489C1561.17 804.506 1562.79 806.193 1562.79 808.477C1562.79 810.719 1561.23 812.364 1559.08 812.364C1557.29 812.364 1555.87 811.213 1555.7 809.636H1553.66C1553.79 812.295 1556.08 814.239 1559.08 814.239ZM1568.77 814H1570.99L1578.76 798.523V796.545H1567.58V798.42H1576.58V798.557L1568.77 814ZM1582.24 814H1584.36V806.193H1591.93V804.318H1584.36V798.42H1592.71V796.545H1582.24V814ZM1596.33 814H1602.64C1606.76 814 1608.47 811.989 1608.47 809.364C1608.47 806.602 1606.56 805.102 1604.95 805V804.83C1606.45 804.42 1607.78 803.432 1607.78 801.182C1607.78 798.625 1606.08 796.545 1602.43 796.545H1596.33V814ZM1598.44 812.125V806.057H1602.74C1605.02 806.057 1606.45 807.591 1606.45 809.364C1606.45 810.898 1605.4 812.125 1602.64 812.125H1598.44ZM1598.44 804.216V798.42H1602.43C1604.75 798.42 1605.77 799.648 1605.77 801.182C1605.77 803.023 1604.27 804.216 1602.36 804.216H1598.44ZM1611.63 814H1622.64V812.125H1614.53V811.989L1618.45 807.795C1621.45 804.582 1622.34 803.082 1622.34 801.148C1622.34 798.455 1620.15 796.307 1617.09 796.307C1614.03 796.307 1611.7 798.386 1611.7 801.455H1613.71C1613.71 799.469 1615 798.148 1617.02 798.148C1618.91 798.148 1620.36 799.307 1620.36 801.148C1620.36 802.759 1619.41 803.952 1617.39 806.159L1611.63 812.466V814Z" fill="white"/>
</svg>
