<svg width="1920" height="1080" viewBox="0 0 1920 1080" fill="none" xmlns="http://www.w3.org/2000/svg">
<rect width="1920" height="1080" fill="white"/>
<line x1="120" y1="61.5" x2="1800" y2="61.5" stroke="#212529" stroke-width="5"/>
<path d="M130.915 121C138.449 121 143.013 116.339 143.013 108.612C143.013 100.909 138.449 96.2727 130.987 96.2727H122.149V121H130.915ZM127.377 116.521V100.752H130.71C135.346 100.752 137.797 103.119 137.797 108.612C137.797 114.13 135.346 116.521 130.697 116.521H127.377ZM152.077 121.35C154.818 121.35 156.593 120.155 157.498 118.428H157.643V121H162.521V108.491C162.521 104.072 158.778 102.213 154.649 102.213C150.206 102.213 147.284 104.338 146.572 107.719L151.329 108.105C151.679 106.874 152.778 105.968 154.625 105.968C156.376 105.968 157.378 106.849 157.378 108.371V108.443C157.378 109.638 156.11 109.795 152.886 110.109C149.216 110.447 145.92 111.679 145.92 115.82C145.92 119.491 148.54 121.35 152.077 121.35ZM153.55 117.8C151.969 117.8 150.834 117.064 150.834 115.651C150.834 114.202 152.029 113.49 153.84 113.237C154.963 113.08 156.798 112.814 157.414 112.403V114.371C157.414 116.315 155.808 117.8 153.55 117.8ZM166.512 121H171.655V110.508C171.655 108.226 173.321 106.656 175.591 106.656C176.303 106.656 177.281 106.777 177.764 106.934V102.37C177.306 102.261 176.666 102.189 176.146 102.189C174.07 102.189 172.367 103.396 171.691 105.69H171.498V102.455H166.512V121ZM180.424 121H185.567V115.108L186.956 113.526L192.015 121H198.039L190.807 110.484L197.689 102.455H191.785L185.845 109.494H185.567V96.2727H180.424V121ZM208.178 121H213.249V118.03H213.479C214.191 119.575 215.749 121.302 218.743 121.302C222.969 121.302 226.265 117.957 226.265 111.751C226.265 105.376 222.824 102.213 218.755 102.213C215.652 102.213 214.167 104.06 213.479 105.57H213.322V96.2727H208.178V121ZM213.213 111.727C213.213 108.419 214.614 106.306 217.113 106.306C219.661 106.306 221.013 108.516 221.013 111.727C221.013 114.963 219.637 117.209 217.113 117.209C214.638 117.209 213.213 115.036 213.213 111.727ZM234.841 96.2727H229.697V121H234.841V96.2727ZM250.854 113.104C250.866 115.591 249.163 116.895 247.316 116.895C245.372 116.895 244.116 115.531 244.104 113.345V102.455H238.961V114.263C238.973 118.597 241.508 121.241 245.239 121.241C248.028 121.241 250.032 119.805 250.866 117.631H251.059V121H255.997V102.455H250.854V113.104ZM268.563 121.362C273.151 121.362 276.242 119.129 276.966 115.688L272.209 115.374C271.69 116.786 270.362 117.523 268.647 117.523C266.076 117.523 264.446 115.82 264.446 113.055V113.043H277.075V111.631C277.075 105.328 273.26 102.213 268.358 102.213C262.9 102.213 259.363 106.089 259.363 111.812C259.363 117.692 262.852 121.362 268.563 121.362ZM264.446 109.856C264.554 107.743 266.16 106.053 268.442 106.053C270.676 106.053 272.221 107.646 272.233 109.856H264.446Z" fill="#212529"/>
<rect x="120" y="220" width="316.8" height="640" rx="32" fill="#609ED4"/>
<path d="M170.273 767C177.364 767 181.659 762.614 181.659 755.341C181.659 748.091 177.364 743.727 170.341 743.727H162.023V767H170.273ZM166.943 762.784V747.943H170.08C174.443 747.943 176.75 750.17 176.75 755.341C176.75 760.534 174.443 762.784 170.068 762.784H166.943ZM190.19 767.33C192.77 767.33 194.44 766.205 195.293 764.58H195.429V767H200.02V755.227C200.02 751.068 196.497 749.318 192.611 749.318C188.429 749.318 185.679 751.318 185.009 754.5L189.486 754.864C189.815 753.705 190.849 752.852 192.588 752.852C194.236 752.852 195.179 753.682 195.179 755.114V755.182C195.179 756.307 193.986 756.455 190.952 756.75C187.497 757.068 184.395 758.227 184.395 762.125C184.395 765.58 186.861 767.33 190.19 767.33ZM191.577 763.989C190.088 763.989 189.02 763.295 189.02 761.966C189.02 760.602 190.145 759.932 191.849 759.693C192.906 759.545 194.634 759.295 195.213 758.909V760.761C195.213 762.591 193.702 763.989 191.577 763.989ZM203.776 767H208.616V757.125C208.616 754.977 210.185 753.5 212.321 753.5C212.991 753.5 213.912 753.614 214.366 753.761V749.466C213.935 749.364 213.332 749.295 212.844 749.295C210.889 749.295 209.287 750.432 208.651 752.591H208.469V749.545H203.776V767ZM216.869 767H221.71V761.455L223.017 759.966L227.778 767H233.449L226.642 757.102L233.119 749.545H227.562L221.972 756.17H221.71V743.727H216.869V767ZM242.991 767H247.764V764.205H247.98C248.651 765.659 250.116 767.284 252.935 767.284C256.912 767.284 260.014 764.136 260.014 758.295C260.014 752.295 256.776 749.318 252.946 749.318C250.026 749.318 248.628 751.057 247.98 752.477H247.832V743.727H242.991V767ZM247.73 758.273C247.73 755.159 249.048 753.17 251.401 753.17C253.798 753.17 255.071 755.25 255.071 758.273C255.071 761.318 253.776 763.432 251.401 763.432C249.071 763.432 247.73 761.386 247.73 758.273ZM268.085 743.727H263.244V767H268.085V743.727ZM283.156 759.568C283.168 761.909 281.565 763.136 279.827 763.136C277.997 763.136 276.815 761.852 276.804 759.795V749.545H271.963V760.659C271.974 764.739 274.361 767.227 277.872 767.227C280.497 767.227 282.384 765.875 283.168 763.83H283.349V767H287.997V749.545H283.156V759.568ZM299.824 767.341C304.142 767.341 307.051 765.239 307.733 762L303.256 761.705C302.767 763.034 301.517 763.727 299.903 763.727C297.483 763.727 295.949 762.125 295.949 759.523V759.511H307.835V758.182C307.835 752.25 304.244 749.318 299.631 749.318C294.494 749.318 291.165 752.966 291.165 758.352C291.165 763.886 294.449 767.341 299.824 767.341ZM295.949 756.511C296.051 754.523 297.562 752.932 299.71 752.932C301.812 752.932 303.267 754.432 303.278 756.511H295.949ZM328.48 743.727H323.855L318.094 747.375V751.739L323.423 748.398H323.56V767H328.48V743.727ZM343.136 767.511C348.989 767.511 352.523 763.057 352.534 755.386C352.545 747.773 348.966 743.409 343.136 743.409C337.295 743.409 333.75 747.761 333.739 755.386C333.716 763.034 337.273 767.5 343.136 767.511ZM343.136 763.432C340.466 763.432 338.739 760.75 338.75 755.386C338.761 750.102 340.477 747.443 343.136 747.443C345.784 747.443 347.511 750.102 347.511 755.386C347.523 760.75 345.795 763.432 343.136 763.432ZM365.168 767.511C371.02 767.511 374.554 763.057 374.565 755.386C374.577 747.773 370.997 743.409 365.168 743.409C359.327 743.409 355.781 747.761 355.77 755.386C355.747 763.034 359.304 767.5 365.168 767.511ZM365.168 763.432C362.497 763.432 360.77 760.75 360.781 755.386C360.793 750.102 362.509 747.443 365.168 747.443C367.815 747.443 369.543 750.102 369.543 755.386C369.554 760.75 367.827 763.432 365.168 763.432Z" fill="white"/>
<path d="M168.352 814H170.057L170.849 809.159H173.432L173.705 807.455H171.131L171.847 803.091H174.455L174.727 801.386H172.128L172.92 796.545H171.216L170.423 801.386H165.991L166.784 796.545H165.08L164.287 801.386H161.705L161.432 803.091H164.006L163.29 807.455H160.682L160.409 809.159H163.009L162.216 814H163.92L164.713 809.159H169.145L168.352 814ZM164.994 807.455L165.71 803.091H170.142L169.426 807.455H164.994ZM182.743 814.239C186.271 814.281 188.572 811.622 188.572 808.375C188.572 805 186.075 802.58 183.084 802.58C181.286 802.58 179.743 803.457 178.788 804.898H178.652C178.661 800.645 180.314 798.182 183.016 798.182C184.857 798.182 185.964 799.341 186.357 800.909H188.436C188.01 798.199 185.947 796.307 183.016 796.307C179.087 796.307 176.675 799.784 176.675 805.955C176.675 812.406 179.879 814.205 182.743 814.239ZM182.743 812.364C180.553 812.364 178.95 810.497 178.959 808.409C178.967 806.321 180.646 804.455 182.811 804.455C184.95 804.455 186.527 806.21 186.527 808.375C186.527 810.591 184.882 812.364 182.743 812.364ZM197.617 814.239C201.469 814.239 203.685 810.974 203.685 805.273C203.685 799.614 201.435 796.307 197.617 796.307C193.799 796.307 191.549 799.614 191.549 805.273C191.549 810.974 193.765 814.239 197.617 814.239ZM197.617 812.364C195.077 812.364 193.594 809.815 193.594 805.273C193.594 800.739 195.094 798.148 197.617 798.148C200.14 798.148 201.64 800.739 201.64 805.273C201.64 809.815 200.157 812.364 197.617 812.364ZM212.481 796.307C208.935 796.264 206.651 798.932 206.651 802.136C206.651 805.511 209.14 807.932 212.14 807.932C213.947 807.932 215.481 807.045 216.435 805.614H216.572C216.572 809.909 214.901 812.364 212.208 812.364C210.367 812.364 209.242 811.205 208.867 809.602H206.788C207.197 812.364 209.276 814.239 212.208 814.239C216.129 814.239 218.549 810.761 218.549 804.557C218.549 798.148 215.344 796.341 212.481 796.307ZM212.481 798.182C214.663 798.182 216.265 800.057 216.265 802.102C216.265 804.182 214.56 806.057 212.413 806.057C210.265 806.057 208.697 804.318 208.697 802.136C208.697 799.955 210.333 798.182 212.481 798.182ZM222.207 814H232.878V812.125H224.321V806.193H232.196V804.318H224.321V798.42H232.741V796.545H222.207V814ZM241.938 814C247.256 814 250.256 810.693 250.256 805.239C250.256 799.818 247.256 796.545 242.176 796.545H236.551V814H241.938ZM238.665 812.125V798.42H242.04C246.131 798.42 248.21 801.011 248.21 805.239C248.21 809.5 246.131 812.125 241.801 812.125H238.665ZM253.085 810.42H261.301V814H263.312V810.42H265.699V808.545H263.312V796.545H260.756L253.085 808.682V810.42ZM261.301 808.545H255.369V808.409L261.165 799.239H261.301V808.545Z" fill="white"/>
<rect x="460.8" y="220" width="316.8" height="640" rx="32" fill="#356EA9"/>
<path d="M511.073 767C518.164 767 522.459 762.614 522.459 755.341C522.459 748.091 518.164 743.727 511.141 743.727H502.823V767H511.073ZM507.743 762.784V747.943H510.88C515.243 747.943 517.55 750.17 517.55 755.341C517.55 760.534 515.243 762.784 510.868 762.784H507.743ZM530.99 767.33C533.57 767.33 535.24 766.205 536.093 764.58H536.229V767H540.82V755.227C540.82 751.068 537.297 749.318 533.411 749.318C529.229 749.318 526.479 751.318 525.809 754.5L530.286 754.864C530.615 753.705 531.649 752.852 533.388 752.852C535.036 752.852 535.979 753.682 535.979 755.114V755.182C535.979 756.307 534.786 756.455 531.752 756.75C528.297 757.068 525.195 758.227 525.195 762.125C525.195 765.58 527.661 767.33 530.99 767.33ZM532.377 763.989C530.888 763.989 529.82 763.295 529.82 761.966C529.82 760.602 530.945 759.932 532.649 759.693C533.706 759.545 535.434 759.295 536.013 758.909V760.761C536.013 762.591 534.502 763.989 532.377 763.989ZM544.576 767H549.417V757.125C549.417 754.977 550.985 753.5 553.121 753.5C553.792 753.5 554.712 753.614 555.167 753.761V749.466C554.735 749.364 554.132 749.295 553.644 749.295C551.689 749.295 550.087 750.432 549.451 752.591H549.269V749.545H544.576V767ZM557.669 767H562.51V761.455L563.817 759.966L568.578 767H574.249L567.442 757.102L573.919 749.545H568.363L562.772 756.17H562.51V743.727H557.669V767ZM583.792 767H588.564V764.205H588.78C589.451 765.659 590.917 767.284 593.735 767.284C597.712 767.284 600.814 764.136 600.814 758.295C600.814 752.295 597.576 749.318 593.746 749.318C590.826 749.318 589.428 751.057 588.78 752.477H588.632V743.727H583.792V767ZM588.53 758.273C588.53 755.159 589.848 753.17 592.201 753.17C594.598 753.17 595.871 755.25 595.871 758.273C595.871 761.318 594.576 763.432 592.201 763.432C589.871 763.432 588.53 761.386 588.53 758.273ZM608.885 743.727H604.044V767H608.885V743.727ZM623.956 759.568C623.968 761.909 622.365 763.136 620.627 763.136C618.797 763.136 617.615 761.852 617.604 759.795V749.545H612.763V760.659C612.774 764.739 615.161 767.227 618.672 767.227C621.297 767.227 623.184 765.875 623.968 763.83H624.149V767H628.797V749.545H623.956V759.568ZM640.624 767.341C644.942 767.341 647.851 765.239 648.533 762L644.056 761.705C643.567 763.034 642.317 763.727 640.703 763.727C638.283 763.727 636.749 762.125 636.749 759.523V759.511H648.635V758.182C648.635 752.25 645.044 749.318 640.431 749.318C635.294 749.318 631.965 752.966 631.965 758.352C631.965 763.886 635.249 767.341 640.624 767.341ZM636.749 756.511C636.851 754.523 638.363 752.932 640.51 752.932C642.613 752.932 644.067 754.432 644.078 756.511H636.749ZM659.155 767H675.746V762.977H665.973V762.818L669.371 759.489C674.155 755.125 675.439 752.943 675.439 750.295C675.439 746.261 672.144 743.409 667.155 743.409C662.269 743.409 658.917 746.33 658.928 750.898H663.598C663.587 748.67 664.996 747.307 667.121 747.307C669.167 747.307 670.689 748.58 670.689 750.625C670.689 752.477 669.553 753.75 667.439 755.784L659.155 763.455V767ZM688.436 767.511C694.289 767.511 697.823 763.057 697.834 755.386C697.846 747.773 694.266 743.409 688.436 743.409C682.596 743.409 679.05 747.761 679.039 755.386C679.016 763.034 682.573 767.5 688.436 767.511ZM688.436 763.432C685.766 763.432 684.039 760.75 684.05 755.386C684.061 750.102 685.777 747.443 688.436 747.443C691.084 747.443 692.811 750.102 692.811 755.386C692.823 760.75 691.096 763.432 688.436 763.432ZM710.468 767.511C716.32 767.511 719.854 763.057 719.865 755.386C719.877 747.773 716.297 743.409 710.468 743.409C704.627 743.409 701.081 747.761 701.07 755.386C701.047 763.034 704.604 767.5 710.468 767.511ZM710.468 763.432C707.797 763.432 706.07 760.75 706.081 755.386C706.093 750.102 707.809 747.443 710.468 747.443C713.115 747.443 714.843 750.102 714.843 755.386C714.854 760.75 713.127 763.432 710.468 763.432Z" fill="white"/>
<path d="M509.152 814H510.857L511.649 809.159H514.232L514.505 807.455H511.931L512.647 803.091H515.255L515.527 801.386H512.928L513.721 796.545H512.016L511.223 801.386H506.792L507.584 796.545H505.88L505.087 801.386H502.505L502.232 803.091H504.806L504.09 807.455H501.482L501.209 809.159H503.809L503.016 814H504.721L505.513 809.159H509.945L509.152 814ZM505.794 807.455L506.51 803.091H510.942L510.226 807.455H505.794ZM523.645 814.239C527.029 814.239 529.543 812.116 529.543 809.261C529.543 807.045 528.23 805.435 526.032 805.068V804.932C527.796 804.395 528.895 802.946 528.895 800.977C528.895 798.506 526.944 796.307 523.713 796.307C520.696 796.307 518.191 798.165 518.088 800.909H520.134C520.211 799.17 521.864 798.148 523.679 798.148C525.605 798.148 526.85 799.315 526.85 801.08C526.85 802.92 525.409 804.114 523.338 804.114H521.941V805.989H523.338C525.989 805.989 527.463 807.335 527.463 809.261C527.463 811.111 525.853 812.364 523.611 812.364C521.591 812.364 519.989 811.324 519.861 809.636H517.713C517.841 812.381 520.262 814.239 523.645 814.239ZM538.483 814.239C541.807 814.239 544.245 811.784 544.245 808.443C544.245 805.06 541.892 802.58 538.688 802.58C537.512 802.58 536.37 802.997 535.654 803.568H535.551L536.165 798.42H543.461V796.545H534.392L533.336 805.136L535.313 805.375C536.037 804.855 537.273 804.48 538.347 804.489C540.571 804.506 542.199 806.193 542.199 808.477C542.199 810.719 540.631 812.364 538.483 812.364C536.694 812.364 535.27 811.213 535.108 809.636H533.063C533.191 812.295 535.483 814.239 538.483 814.239ZM553.426 814.239C556.954 814.281 559.255 811.622 559.255 808.375C559.255 805 556.758 802.58 553.767 802.58C551.968 802.58 550.426 803.457 549.471 804.898H549.335C549.343 800.645 550.997 798.182 553.698 798.182C555.539 798.182 556.647 799.341 557.039 800.909H559.119C558.693 798.199 556.63 796.307 553.698 796.307C549.77 796.307 547.358 799.784 547.358 805.955C547.358 812.406 550.562 814.205 553.426 814.239ZM553.426 812.364C551.235 812.364 549.633 810.497 549.642 808.409C549.65 806.321 551.329 804.455 553.494 804.455C555.633 804.455 557.21 806.21 557.21 808.375C557.21 810.591 555.565 812.364 553.426 812.364ZM562.914 814H573.584V812.125H565.027V806.193H572.902V804.318H565.027V798.42H573.448V796.545H562.914V814ZM577.973 814L579.729 809.057H586.786L588.542 814H590.757L584.348 796.545H582.167L575.757 814H577.973ZM580.394 807.182L583.189 799.307H583.326L586.121 807.182H580.394ZM598.726 796.307C595.181 796.264 592.897 798.932 592.897 802.136C592.897 805.511 595.385 807.932 598.385 807.932C600.192 807.932 601.726 807.045 602.681 805.614H602.817C602.817 809.909 601.147 812.364 598.453 812.364C596.613 812.364 595.488 811.205 595.113 809.602H593.033C593.442 812.364 595.522 814.239 598.453 814.239C602.374 814.239 604.794 810.761 604.794 804.557C604.794 798.148 601.59 796.341 598.726 796.307ZM598.726 798.182C600.908 798.182 602.51 800.057 602.51 802.102C602.51 804.182 600.806 806.057 598.658 806.057C596.51 806.057 594.942 804.318 594.942 802.136C594.942 799.955 596.578 798.182 598.726 798.182Z" fill="white"/>
<rect x="801.6" y="220" width="316.8" height="640" rx="32" fill="#0A3871"/>
<path d="M851.873 767C858.964 767 863.259 762.614 863.259 755.341C863.259 748.091 858.964 743.727 851.941 743.727H843.623V767H851.873ZM848.543 762.784V747.943H851.68C856.043 747.943 858.35 750.17 858.35 755.341C858.35 760.534 856.043 762.784 851.668 762.784H848.543ZM871.79 767.33C874.37 767.33 876.04 766.205 876.893 764.58H877.029V767H881.62V755.227C881.62 751.068 878.097 749.318 874.211 749.318C870.029 749.318 867.279 751.318 866.609 754.5L871.086 754.864C871.415 753.705 872.45 752.852 874.188 752.852C875.836 752.852 876.779 753.682 876.779 755.114V755.182C876.779 756.307 875.586 756.455 872.552 756.75C869.097 757.068 865.995 758.227 865.995 762.125C865.995 765.58 868.461 767.33 871.79 767.33ZM873.177 763.989C871.688 763.989 870.62 763.295 870.62 761.966C870.62 760.602 871.745 759.932 873.45 759.693C874.506 759.545 876.234 759.295 876.813 758.909V760.761C876.813 762.591 875.302 763.989 873.177 763.989ZM885.376 767H890.217V757.125C890.217 754.977 891.785 753.5 893.921 753.5C894.592 753.5 895.512 753.614 895.967 753.761V749.466C895.535 749.364 894.932 749.295 894.444 749.295C892.489 749.295 890.887 750.432 890.251 752.591H890.069V749.545H885.376V767ZM898.469 767H903.31V761.455L904.617 759.966L909.379 767H915.049L908.242 757.102L914.719 749.545H909.163L903.572 756.17H903.31V743.727H898.469V767ZM924.592 767H929.364V764.205H929.58C930.251 765.659 931.717 767.284 934.535 767.284C938.512 767.284 941.614 764.136 941.614 758.295C941.614 752.295 938.376 749.318 934.546 749.318C931.626 749.318 930.228 751.057 929.58 752.477H929.432V743.727H924.592V767ZM929.33 758.273C929.33 755.159 930.648 753.17 933.001 753.17C935.398 753.17 936.671 755.25 936.671 758.273C936.671 761.318 935.376 763.432 933.001 763.432C930.671 763.432 929.33 761.386 929.33 758.273ZM949.685 743.727H944.844V767H949.685V743.727ZM964.756 759.568C964.768 761.909 963.165 763.136 961.427 763.136C959.597 763.136 958.415 761.852 958.404 759.795V749.545H953.563V760.659C953.575 764.739 955.961 767.227 959.472 767.227C962.097 767.227 963.984 765.875 964.768 763.83H964.95V767H969.597V749.545H964.756V759.568ZM981.424 767.341C985.742 767.341 988.651 765.239 989.333 762L984.856 761.705C984.367 763.034 983.117 763.727 981.504 763.727C979.083 763.727 977.549 762.125 977.549 759.523V759.511H989.435V758.182C989.435 752.25 985.844 749.318 981.231 749.318C976.094 749.318 972.765 752.966 972.765 758.352C972.765 763.886 976.049 767.341 981.424 767.341ZM977.549 756.511C977.651 754.523 979.163 752.932 981.31 752.932C983.413 752.932 984.867 754.432 984.879 756.511H977.549ZM1008.56 767.318C1013.78 767.318 1017.52 764.443 1017.51 760.466C1017.52 757.568 1015.68 755.5 1012.26 755.068V754.886C1014.86 754.42 1016.66 752.58 1016.65 749.966C1016.66 746.295 1013.44 743.409 1008.63 743.409C1003.85 743.409 1000.26 746.205 1000.19 750.227H1004.91C1004.97 748.455 1006.59 747.307 1008.6 747.307C1010.59 747.307 1011.92 748.511 1011.91 750.261C1011.92 752.091 1010.36 753.33 1008.13 753.33H1005.96V756.943H1008.13C1010.76 756.943 1012.41 758.261 1012.4 760.136C1012.41 761.989 1010.82 763.261 1008.57 763.261C1006.4 763.261 1004.77 762.125 1004.68 760.42H999.728C999.807 764.489 1003.44 767.318 1008.56 767.318ZM1030.17 767.511C1036.03 767.511 1039.56 763.057 1039.57 755.386C1039.58 747.773 1036 743.409 1030.17 743.409C1024.33 743.409 1020.79 747.761 1020.78 755.386C1020.75 763.034 1024.31 767.5 1030.17 767.511ZM1030.17 763.432C1027.5 763.432 1025.78 760.75 1025.79 755.386C1025.8 750.102 1027.51 747.443 1030.17 747.443C1032.82 747.443 1034.55 750.102 1034.55 755.386C1034.56 760.75 1032.83 763.432 1030.17 763.432ZM1052.21 767.511C1058.06 767.511 1061.59 763.057 1061.6 755.386C1061.61 747.773 1058.03 743.409 1052.21 743.409C1046.36 743.409 1042.82 747.761 1042.81 755.386C1042.78 763.034 1046.34 767.5 1052.21 767.511ZM1052.21 763.432C1049.53 763.432 1047.81 760.75 1047.82 755.386C1047.83 750.102 1049.55 747.443 1052.21 747.443C1054.85 747.443 1056.58 750.102 1056.58 755.386C1056.59 760.75 1054.86 763.432 1052.21 763.432Z" fill="white"/>
<path d="M849.952 814H851.657L852.45 809.159H855.032L855.305 807.455H852.731L853.447 803.091H856.055L856.327 801.386H853.728L854.521 796.545H852.816L852.023 801.386H847.592L848.384 796.545H846.68L845.887 801.386H843.305L843.032 803.091H845.606L844.89 807.455H842.282L842.009 809.159H844.609L843.816 814H845.521L846.313 809.159H850.745L849.952 814ZM846.594 807.455L847.31 803.091H851.742L851.026 807.455H846.594ZM864.241 814.239C868.093 814.239 870.309 810.974 870.309 805.273C870.309 799.614 868.059 796.307 864.241 796.307C860.423 796.307 858.173 799.614 858.173 805.273C858.173 810.974 860.388 814.239 864.241 814.239ZM864.241 812.364C861.701 812.364 860.218 809.815 860.218 805.273C860.218 800.739 861.718 798.148 864.241 798.148C866.763 798.148 868.263 800.739 868.263 805.273C868.263 809.815 866.78 812.364 864.241 812.364ZM874.57 814L876.326 809.057H883.383L885.138 814H887.354L880.945 796.545H878.763L872.354 814H874.57ZM876.991 807.182L879.786 799.307H879.923L882.718 807.182H876.991ZM895.664 814.239C899.048 814.239 901.562 812.116 901.562 809.261C901.562 807.045 900.249 805.435 898.05 805.068V804.932C899.815 804.395 900.914 802.946 900.914 800.977C900.914 798.506 898.962 796.307 895.732 796.307C892.715 796.307 890.209 798.165 890.107 800.909H892.153C892.229 799.17 893.883 798.148 895.698 798.148C897.624 798.148 898.869 799.315 898.869 801.08C898.869 802.92 897.428 804.114 895.357 804.114H893.959V805.989H895.357C898.008 805.989 899.482 807.335 899.482 809.261C899.482 811.111 897.871 812.364 895.63 812.364C893.61 812.364 892.008 811.324 891.88 809.636H889.732C889.86 812.381 892.28 814.239 895.664 814.239ZM910.638 814.239C914.124 814.239 916.553 812.202 916.57 809.364C916.553 807.156 915.079 805.281 913.195 804.932V804.83C914.832 804.403 915.905 802.801 915.923 800.943C915.905 798.284 913.673 796.307 910.638 796.307C907.57 796.307 905.337 798.284 905.354 800.943C905.337 802.801 906.411 804.403 908.082 804.83V804.932C906.164 805.281 904.69 807.156 904.707 809.364C904.69 812.202 907.119 814.239 910.638 814.239ZM910.638 812.364C908.244 812.364 906.769 811.136 906.786 809.261C906.769 807.293 908.397 805.886 910.638 805.886C912.846 805.886 914.474 807.293 914.491 809.261C914.474 811.136 912.999 812.364 910.638 812.364ZM910.638 804.08C908.729 804.08 907.383 802.886 907.4 801.08C907.383 799.307 908.678 798.148 910.638 798.148C912.565 798.148 913.86 799.307 913.877 801.08C913.86 802.886 912.513 804.08 910.638 804.08ZM920.382 814H922.598L930.371 798.523V796.545H919.189V798.42H928.189V798.557L920.382 814ZM939.684 796.545H937.57L933.207 799.443V801.591L937.468 798.761H937.57V814H939.684V796.545Z" fill="white"/>
<rect x="1142.4" y="220" width="316.8" height="640" rx="32" fill="#072B61"/>
<path d="M1192.67 767C1199.76 767 1204.06 762.614 1204.06 755.341C1204.06 748.091 1199.76 743.727 1192.74 743.727H1184.42V767H1192.67ZM1189.34 762.784V747.943H1192.48C1196.84 747.943 1199.15 750.17 1199.15 755.341C1199.15 760.534 1196.84 762.784 1192.47 762.784H1189.34ZM1212.59 767.33C1215.17 767.33 1216.84 766.205 1217.69 764.58H1217.83V767H1222.42V755.227C1222.42 751.068 1218.9 749.318 1215.01 749.318C1210.83 749.318 1208.08 751.318 1207.41 754.5L1211.89 754.864C1212.22 753.705 1213.25 752.852 1214.99 752.852C1216.64 752.852 1217.58 753.682 1217.58 755.114V755.182C1217.58 756.307 1216.39 756.455 1213.35 756.75C1209.9 757.068 1206.79 758.227 1206.79 762.125C1206.79 765.58 1209.26 767.33 1212.59 767.33ZM1213.98 763.989C1212.49 763.989 1211.42 763.295 1211.42 761.966C1211.42 760.602 1212.54 759.932 1214.25 759.693C1215.31 759.545 1217.03 759.295 1217.61 758.909V760.761C1217.61 762.591 1216.1 763.989 1213.98 763.989ZM1226.18 767H1231.02V757.125C1231.02 754.977 1232.58 753.5 1234.72 753.5C1235.39 753.5 1236.31 753.614 1236.77 753.761V749.466C1236.33 749.364 1235.73 749.295 1235.24 749.295C1233.29 749.295 1231.69 750.432 1231.05 752.591H1230.87V749.545H1226.18V767ZM1239.27 767H1244.11V761.455L1245.42 759.966L1250.18 767H1255.85L1249.04 757.102L1255.52 749.545H1249.96L1244.37 756.17H1244.11V743.727H1239.27V767ZM1265.39 767H1270.16V764.205H1270.38C1271.05 765.659 1272.52 767.284 1275.33 767.284C1279.31 767.284 1282.41 764.136 1282.41 758.295C1282.41 752.295 1279.18 749.318 1275.35 749.318C1272.43 749.318 1271.03 751.057 1270.38 752.477H1270.23V743.727H1265.39V767ZM1270.13 758.273C1270.13 755.159 1271.45 753.17 1273.8 753.17C1276.2 753.17 1277.47 755.25 1277.47 758.273C1277.47 761.318 1276.18 763.432 1273.8 763.432C1271.47 763.432 1270.13 761.386 1270.13 758.273ZM1290.49 743.727H1285.64V767H1290.49V743.727ZM1305.56 759.568C1305.57 761.909 1303.97 763.136 1302.23 763.136C1300.4 763.136 1299.22 761.852 1299.2 759.795V749.545H1294.36V760.659C1294.37 764.739 1296.76 767.227 1300.27 767.227C1302.9 767.227 1304.78 765.875 1305.57 763.83H1305.75V767H1310.4V749.545H1305.56V759.568ZM1322.22 767.341C1326.54 767.341 1329.45 765.239 1330.13 762L1325.66 761.705C1325.17 763.034 1323.92 763.727 1322.3 763.727C1319.88 763.727 1318.35 762.125 1318.35 759.523V759.511H1330.24V758.182C1330.24 752.25 1326.64 749.318 1322.03 749.318C1316.89 749.318 1313.56 752.966 1313.56 758.352C1313.56 763.886 1316.85 767.341 1322.22 767.341ZM1318.35 756.511C1318.45 754.523 1319.96 752.932 1322.11 752.932C1324.21 752.932 1325.67 754.432 1325.68 756.511H1318.35ZM1340.4 762.909H1351.57V767H1356.28V762.909H1359.16V758.966H1356.28V743.727H1350.12L1340.4 759.034V762.909ZM1351.66 758.966H1345.36V758.784L1351.48 749.091H1351.66V758.966ZM1371.57 767.511C1377.42 767.511 1380.95 763.057 1380.97 755.386C1380.98 747.773 1377.4 743.409 1371.57 743.409C1365.73 743.409 1362.18 747.761 1362.17 755.386C1362.15 763.034 1365.7 767.5 1371.57 767.511ZM1371.57 763.432C1368.9 763.432 1367.17 760.75 1367.18 755.386C1367.19 750.102 1368.91 747.443 1371.57 747.443C1374.22 747.443 1375.94 750.102 1375.94 755.386C1375.95 760.75 1374.23 763.432 1371.57 763.432ZM1393.6 767.511C1399.45 767.511 1402.99 763.057 1403 755.386C1403.01 747.773 1399.43 743.409 1393.6 743.409C1387.76 743.409 1384.21 747.761 1384.2 755.386C1384.18 763.034 1387.74 767.5 1393.6 767.511ZM1393.6 763.432C1390.93 763.432 1389.2 760.75 1389.21 755.386C1389.22 750.102 1390.94 747.443 1393.6 747.443C1396.25 747.443 1397.97 750.102 1397.97 755.386C1397.99 760.75 1396.26 763.432 1393.6 763.432Z" fill="white"/>
<path d="M1190.75 814H1192.46L1193.25 809.159H1195.83L1196.1 807.455H1193.53L1194.25 803.091H1196.85L1197.13 801.386H1194.53L1195.32 796.545H1193.62L1192.82 801.386H1188.39L1189.18 796.545H1187.48L1186.69 801.386H1184.1L1183.83 803.091H1186.41L1185.69 807.455H1183.08L1182.81 809.159H1185.41L1184.62 814H1186.32L1187.11 809.159H1191.54L1190.75 814ZM1187.39 807.455L1188.11 803.091H1192.54L1191.83 807.455H1187.39ZM1205.04 814.239C1208.89 814.239 1211.11 810.974 1211.11 805.273C1211.11 799.614 1208.86 796.307 1205.04 796.307C1201.22 796.307 1198.97 799.614 1198.97 805.273C1198.97 810.974 1201.19 814.239 1205.04 814.239ZM1205.04 812.364C1202.5 812.364 1201.02 809.815 1201.02 805.273C1201.02 800.739 1202.52 798.148 1205.04 798.148C1207.56 798.148 1209.06 800.739 1209.06 805.273C1209.06 809.815 1207.58 812.364 1205.04 812.364ZM1214.42 814H1216.64L1224.41 798.523V796.545H1213.23V798.42H1222.23V798.557L1214.42 814ZM1227.59 814H1238.6V812.125H1230.49V811.989L1234.41 807.795C1237.41 804.582 1238.29 803.082 1238.29 801.148C1238.29 798.455 1236.11 796.307 1233.04 796.307C1229.98 796.307 1227.66 798.386 1227.66 801.455H1229.67C1229.67 799.469 1230.96 798.148 1232.98 798.148C1234.87 798.148 1236.32 799.307 1236.32 801.148C1236.32 802.759 1235.37 803.952 1233.35 806.159L1227.59 812.466V814ZM1242.43 814H1248.73C1252.86 814 1254.56 811.989 1254.56 809.364C1254.56 806.602 1252.65 805.102 1251.05 805V804.83C1252.55 804.42 1253.88 803.432 1253.88 801.182C1253.88 798.625 1252.18 796.545 1248.53 796.545H1242.43V814ZM1244.54 812.125V806.057H1248.84C1251.12 806.057 1252.55 807.591 1252.55 809.364C1252.55 810.898 1251.5 812.125 1248.73 812.125H1244.54ZM1244.54 804.216V798.42H1248.53C1250.85 798.42 1251.87 799.648 1251.87 801.182C1251.87 803.023 1250.37 804.216 1248.46 804.216H1244.54ZM1263.53 814.239C1267.05 814.281 1269.36 811.622 1269.36 808.375C1269.36 805 1266.86 802.58 1263.87 802.58C1262.07 802.58 1260.53 803.457 1259.57 804.898H1259.43C1259.44 800.645 1261.1 798.182 1263.8 798.182C1265.64 798.182 1266.75 799.341 1267.14 800.909H1269.22C1268.79 798.199 1266.73 796.307 1263.8 796.307C1259.87 796.307 1257.46 799.784 1257.46 805.955C1257.46 812.406 1260.66 814.205 1263.53 814.239ZM1263.53 812.364C1261.34 812.364 1259.73 810.497 1259.74 808.409C1259.75 806.321 1261.43 804.455 1263.59 804.455C1265.73 804.455 1267.31 806.21 1267.31 808.375C1267.31 810.591 1265.66 812.364 1263.53 812.364ZM1278.84 796.545H1276.73L1272.37 799.443V801.591L1276.63 798.761H1276.73V814H1278.84V796.545Z" fill="white"/>
<rect x="1483.2" y="220" width="316.8" height="640" rx="32" fill="#052051"/>
<path d="M1533.47 767C1540.56 767 1544.86 762.614 1544.86 755.341C1544.86 748.091 1540.56 743.727 1533.54 743.727H1525.22V767H1533.47ZM1530.14 762.784V747.943H1533.28C1537.64 747.943 1539.95 750.17 1539.95 755.341C1539.95 760.534 1537.64 762.784 1533.27 762.784H1530.14ZM1553.39 767.33C1555.97 767.33 1557.64 766.205 1558.49 764.58H1558.63V767H1563.22V755.227C1563.22 751.068 1559.7 749.318 1555.81 749.318C1551.63 749.318 1548.88 751.318 1548.21 754.5L1552.69 754.864C1553.02 753.705 1554.05 752.852 1555.79 752.852C1557.44 752.852 1558.38 753.682 1558.38 755.114V755.182C1558.38 756.307 1557.19 756.455 1554.15 756.75C1550.7 757.068 1547.59 758.227 1547.59 762.125C1547.59 765.58 1550.06 767.33 1553.39 767.33ZM1554.78 763.989C1553.29 763.989 1552.22 763.295 1552.22 761.966C1552.22 760.602 1553.34 759.932 1555.05 759.693C1556.11 759.545 1557.83 759.295 1558.41 758.909V760.761C1558.41 762.591 1556.9 763.989 1554.78 763.989ZM1566.98 767H1571.82V757.125C1571.82 754.977 1573.38 753.5 1575.52 753.5C1576.19 753.5 1577.11 753.614 1577.57 753.761V749.466C1577.13 749.364 1576.53 749.295 1576.04 749.295C1574.09 749.295 1572.49 750.432 1571.85 752.591H1571.67V749.545H1566.98V767ZM1580.07 767H1584.91V761.455L1586.22 759.966L1590.98 767H1596.65L1589.84 757.102L1596.32 749.545H1590.76L1585.17 756.17H1584.91V743.727H1580.07V767ZM1606.19 767H1610.96V764.205H1611.18C1611.85 765.659 1613.32 767.284 1616.13 767.284C1620.11 767.284 1623.21 764.136 1623.21 758.295C1623.21 752.295 1619.98 749.318 1616.15 749.318C1613.23 749.318 1611.83 751.057 1611.18 752.477H1611.03V743.727H1606.19V767ZM1610.93 758.273C1610.93 755.159 1612.25 753.17 1614.6 753.17C1617 753.17 1618.27 755.25 1618.27 758.273C1618.27 761.318 1616.98 763.432 1614.6 763.432C1612.27 763.432 1610.93 761.386 1610.93 758.273ZM1631.29 743.727H1626.44V767H1631.29V743.727ZM1646.36 759.568C1646.37 761.909 1644.77 763.136 1643.03 763.136C1641.2 763.136 1640.02 761.852 1640 759.795V749.545H1635.16V760.659C1635.17 764.739 1637.56 767.227 1641.07 767.227C1643.7 767.227 1645.58 765.875 1646.37 763.83H1646.55V767H1651.2V749.545H1646.36V759.568ZM1663.02 767.341C1667.34 767.341 1670.25 765.239 1670.93 762L1666.46 761.705C1665.97 763.034 1664.72 763.727 1663.1 763.727C1660.68 763.727 1659.15 762.125 1659.15 759.523V759.511H1671.04V758.182C1671.04 752.25 1667.44 749.318 1662.83 749.318C1657.69 749.318 1654.36 752.966 1654.36 758.352C1654.36 763.886 1657.65 767.341 1663.02 767.341ZM1659.15 756.511C1659.25 754.523 1660.76 752.932 1662.91 752.932C1665.01 752.932 1666.47 754.432 1666.48 756.511H1659.15ZM1681.2 762.909H1692.37V767H1697.08V762.909H1699.96V758.966H1697.08V743.727H1690.92L1681.2 759.034V762.909ZM1692.46 758.966H1686.16V758.784L1692.28 749.091H1692.46V758.966ZM1712.37 767.511C1718.22 767.511 1721.75 763.057 1721.77 755.386C1721.78 747.773 1718.2 743.409 1712.37 743.409C1706.53 743.409 1702.98 747.761 1702.97 755.386C1702.95 763.034 1706.5 767.5 1712.37 767.511ZM1712.37 763.432C1709.7 763.432 1707.97 760.75 1707.98 755.386C1707.99 750.102 1709.71 747.443 1712.37 747.443C1715.02 747.443 1716.74 750.102 1716.74 755.386C1716.75 760.75 1715.03 763.432 1712.37 763.432ZM1734.4 767.511C1740.25 767.511 1743.79 763.057 1743.8 755.386C1743.81 747.773 1740.23 743.409 1734.4 743.409C1728.56 743.409 1725.01 747.761 1725 755.386C1724.98 763.034 1728.54 767.5 1734.4 767.511ZM1734.4 763.432C1731.73 763.432 1730 760.75 1730.01 755.386C1730.02 750.102 1731.74 747.443 1734.4 747.443C1737.05 747.443 1738.77 750.102 1738.77 755.386C1738.79 760.75 1737.06 763.432 1734.4 763.432Z" fill="white"/>
<path d="M1531.55 814H1533.26L1534.05 809.159H1536.63L1536.9 807.455H1534.33L1535.05 803.091H1537.65L1537.93 801.386H1535.33L1536.12 796.545H1534.42L1533.62 801.386H1529.19L1529.98 796.545H1528.28L1527.49 801.386H1524.9L1524.63 803.091H1527.21L1526.49 807.455H1523.88L1523.61 809.159H1526.21L1525.42 814H1527.12L1527.91 809.159H1532.34L1531.55 814ZM1528.19 807.455L1528.91 803.091H1533.34L1532.63 807.455H1528.19ZM1545.84 814.239C1549.69 814.239 1551.91 810.974 1551.91 805.273C1551.91 799.614 1549.66 796.307 1545.84 796.307C1542.02 796.307 1539.77 799.614 1539.77 805.273C1539.77 810.974 1541.99 814.239 1545.84 814.239ZM1545.84 812.364C1543.3 812.364 1541.82 809.815 1541.82 805.273C1541.82 800.739 1543.32 798.148 1545.84 798.148C1548.36 798.148 1549.86 800.739 1549.86 805.273C1549.86 809.815 1548.38 812.364 1545.84 812.364ZM1560.6 814.239C1563.93 814.239 1566.36 811.784 1566.36 808.443C1566.36 805.06 1564.01 802.58 1560.81 802.58C1559.63 802.58 1558.49 802.997 1557.77 803.568H1557.67L1558.28 798.42H1565.58V796.545H1556.51L1555.45 805.136L1557.43 805.375C1558.16 804.855 1559.39 804.48 1560.47 804.489C1562.69 804.506 1564.32 806.193 1564.32 808.477C1564.32 810.719 1562.75 812.364 1560.6 812.364C1558.81 812.364 1557.39 811.213 1557.23 809.636H1555.18C1555.31 812.295 1557.6 814.239 1560.6 814.239ZM1569.75 814H1580.76V812.125H1572.65V811.989L1576.57 807.795C1579.57 804.582 1580.45 803.082 1580.45 801.148C1580.45 798.455 1578.27 796.307 1575.2 796.307C1572.14 796.307 1569.82 798.386 1569.82 801.455H1571.83C1571.83 799.469 1573.12 798.148 1575.14 798.148C1577.03 798.148 1578.48 799.307 1578.48 801.148C1578.48 802.759 1577.53 803.952 1575.51 806.159L1569.75 812.466V814ZM1589.97 814.239C1593.83 814.239 1596.04 810.974 1596.04 805.273C1596.04 799.614 1593.79 796.307 1589.97 796.307C1586.16 796.307 1583.91 799.614 1583.91 805.273C1583.91 810.974 1586.12 814.239 1589.97 814.239ZM1589.97 812.364C1587.43 812.364 1585.95 809.815 1585.95 805.273C1585.95 800.739 1587.45 798.148 1589.97 798.148C1592.5 798.148 1594 800.739 1594 805.273C1594 809.815 1592.51 812.364 1589.97 812.364ZM1604.73 814.239C1608.06 814.239 1610.5 811.784 1610.5 808.443C1610.5 805.06 1608.14 802.58 1604.94 802.58C1603.76 802.58 1602.62 802.997 1601.91 803.568H1601.8L1602.42 798.42H1609.71V796.545H1600.64L1599.59 805.136L1601.56 805.375C1602.29 804.855 1603.52 804.48 1604.6 804.489C1606.82 804.506 1608.45 806.193 1608.45 808.477C1608.45 810.719 1606.88 812.364 1604.73 812.364C1602.94 812.364 1601.52 811.213 1601.36 809.636H1599.31C1599.44 812.295 1601.73 814.239 1604.73 814.239ZM1620.02 796.545H1617.9L1613.54 799.443V801.591L1617.8 798.761H1617.9V814H1620.02V796.545Z" fill="white"/>
</svg>
