<svg width="1920" height="1080" viewBox="0 0 1920 1080" fill="none" xmlns="http://www.w3.org/2000/svg">
<rect width="1920" height="1080" fill="white"/>
<line x1="120" y1="61.5" x2="1800" y2="61.5" stroke="#212529" stroke-width="5"/>
<path d="M143.967 104.93C143.278 99.2188 138.956 95.9347 133.233 95.9347C126.701 95.9347 121.714 100.547 121.714 108.636C121.714 116.702 126.616 121.338 133.233 121.338C139.572 121.338 143.399 117.124 143.967 112.572L138.678 112.548C138.183 115.192 136.107 116.714 133.317 116.714C129.562 116.714 127.015 113.925 127.015 108.636C127.015 103.493 129.526 100.559 133.354 100.559C136.215 100.559 138.28 102.213 138.678 104.93H143.967ZM155.998 121.362C161.625 121.362 165.126 117.511 165.126 111.8C165.126 106.053 161.625 102.213 155.998 102.213C150.372 102.213 146.87 106.053 146.87 111.8C146.87 117.511 150.372 121.362 155.998 121.362ZM156.022 117.378C153.426 117.378 152.098 114.999 152.098 111.763C152.098 108.528 153.426 106.137 156.022 106.137C158.57 106.137 159.898 108.528 159.898 111.763C159.898 114.999 158.57 117.378 156.022 117.378ZM168.471 121H173.614V109.868C173.614 107.815 174.918 106.451 176.632 106.451C178.323 106.451 179.458 107.61 179.458 109.433V121H184.444V109.675C184.444 107.755 185.543 106.451 187.414 106.451C189.056 106.451 190.288 107.477 190.288 109.542V121H195.419V108.528C195.419 104.507 193.029 102.213 189.576 102.213C186.859 102.213 184.746 103.602 183.985 105.727H183.792C183.201 103.577 181.305 102.213 178.757 102.213C176.258 102.213 174.363 103.541 173.59 105.727H173.373V102.455H168.471V121ZM199.482 127.955H204.626V118.03H204.783C205.495 119.575 207.053 121.302 210.047 121.302C214.273 121.302 217.569 117.957 217.569 111.751C217.569 105.376 214.128 102.213 210.059 102.213C206.956 102.213 205.471 104.06 204.783 105.57H204.553V102.455H199.482V127.955ZM204.517 111.727C204.517 108.419 205.918 106.306 208.417 106.306C210.964 106.306 212.317 108.516 212.317 111.727C212.317 114.963 210.94 117.209 208.417 117.209C205.942 117.209 204.517 115.036 204.517 111.727ZM229.377 121.362C235.004 121.362 238.505 117.511 238.505 111.8C238.505 106.053 235.004 102.213 229.377 102.213C223.751 102.213 220.249 106.053 220.249 111.8C220.249 117.511 223.751 121.362 229.377 121.362ZM229.401 117.378C226.805 117.378 225.477 114.999 225.477 111.763C225.477 108.528 226.805 106.137 229.401 106.137C231.949 106.137 233.277 108.528 233.277 111.763C233.277 114.999 231.949 117.378 229.401 117.378ZM246.993 110.278C247.005 107.888 248.43 106.487 250.506 106.487C252.571 106.487 253.815 107.839 253.803 110.109V121H258.946V109.192C258.946 104.869 256.411 102.213 252.547 102.213C249.794 102.213 247.802 103.565 246.969 105.727H246.751V102.455H241.849V121H246.993V110.278ZM271.452 121.362C276.04 121.362 279.131 119.129 279.855 115.688L275.098 115.374C274.579 116.786 273.251 117.523 271.536 117.523C268.964 117.523 267.334 115.82 267.334 113.055V113.043H279.964V111.631C279.964 105.328 276.148 102.213 271.246 102.213C265.789 102.213 262.251 106.089 262.251 111.812C262.251 117.692 265.741 121.362 271.452 121.362ZM267.334 109.856C267.443 107.743 269.049 106.053 271.331 106.053C273.564 106.053 275.11 107.646 275.122 109.856H267.334ZM288.464 110.278C288.476 107.888 289.9 106.487 291.977 106.487C294.042 106.487 295.285 107.839 295.273 110.109V121H300.417V109.192C300.417 104.869 297.881 102.213 294.018 102.213C291.265 102.213 289.273 103.565 288.439 105.727H288.222V102.455H283.32V121H288.464V110.278ZM314.335 102.455H310.846V98.0114H305.702V102.455H303.167V106.318H305.702V115.977C305.678 119.612 308.153 121.411 311.884 121.254C313.212 121.205 314.154 120.94 314.673 120.771L313.864 116.943C313.61 116.991 313.067 117.112 312.584 117.112C311.558 117.112 310.846 116.726 310.846 115.301V106.318H314.335V102.455ZM332.85 107.743C332.391 104.326 329.638 102.213 324.954 102.213C320.209 102.213 317.082 104.411 317.094 107.984C317.082 110.761 318.832 112.56 322.455 113.285L325.666 113.925C327.284 114.251 328.021 114.842 328.045 115.772C328.021 116.871 326.825 117.656 325.026 117.656C323.191 117.656 321.972 116.871 321.658 115.362L316.599 115.627C317.082 119.177 320.1 121.362 325.014 121.362C329.82 121.362 333.261 118.911 333.273 115.253C333.261 112.572 331.51 110.967 327.912 110.23L324.555 109.554C322.829 109.18 322.189 108.588 322.201 107.695C322.189 106.584 323.445 105.859 325.038 105.859C326.825 105.859 327.888 106.837 328.141 108.033L332.85 107.743Z" fill="#212529"/>
<g clip-path="url(#clip0_46_3606)">
<path fill-rule="evenodd" clip-rule="evenodd" d="M207.084 407.653C207.039 407.931 206.93 408.196 206.765 408.427C206.6 408.659 206.384 408.851 206.131 408.99C205.623 409.309 205.178 409.468 204.729 409.627C203.77 409.949 202.762 410.27 201.696 410.643C200.571 411.016 199.562 411.389 198.663 411.658C197.54 412.031 196.474 412.353 195.46 412.725C194.698 413.042 193.981 413.456 193.33 413.954C192.724 414.488 192.195 415.098 191.758 415.769C191.308 416.515 191.024 417.477 191.024 418.598C191.024 420.842 191.586 422.549 192.71 423.616C193.833 424.74 195.913 425.272 198.996 425.272C202.14 425.272 204.273 424.686 205.401 423.511C206.52 422.336 207.081 420.683 207.081 418.549V407.653H207.084ZM198.999 384C204.504 384 208.545 385.016 211.125 387.098C213.708 389.129 215 391.741 215 394.837V421.215C215 422.282 214.778 423.457 214.386 424.737C213.989 426.022 213.206 427.195 211.97 428.259C210.792 429.331 209.164 430.239 207.087 430.933C205.009 431.627 202.315 432 199.001 432C195.693 432 192.994 431.627 190.919 430.933C188.844 430.239 187.213 429.331 186.036 428.259C184.94 427.3 184.11 426.089 183.622 424.737C183.225 423.459 183 422.284 183 421.217V417.001C183 414.757 183.617 412.674 184.853 410.856C186.089 408.99 187.827 407.709 190.074 406.907C191.197 406.535 192.488 406.162 193.946 405.681C195.407 405.198 196.752 404.717 198.101 404.293C199.451 403.863 200.629 403.434 201.637 403.059C202.246 402.822 202.864 402.609 203.49 402.421L204.501 401.94C204.898 401.727 205.287 401.405 205.681 400.979C206.073 400.554 206.409 400.074 206.692 399.539C206.992 398.96 207.146 398.32 207.142 397.672V395.963C207.146 395.336 207.011 394.716 206.745 394.145C206.523 393.502 206.073 392.916 205.456 392.384C204.84 391.849 203.995 391.422 202.987 391.098C201.976 390.782 200.632 390.62 199.112 390.62C195.968 390.62 193.891 391.212 192.769 392.435C191.816 393.505 191.255 394.839 191.144 396.333C191.144 396.654 190.863 396.868 190.524 396.868L183.678 396.976C183.515 396.976 183.359 396.915 183.243 396.804C183.127 396.693 183.06 396.542 183.058 396.384V394.842C183.058 393.343 183.341 391.955 183.958 390.62C184.577 389.283 185.533 388.165 186.822 387.201C188.113 386.242 189.799 385.442 191.818 384.908C193.785 384.265 196.199 384 199.004 384H198.999Z" fill="#0A3871"/>
</g>
<rect x="100.5" y="276.5" width="190" height="213" rx="4.5" stroke="#7B61FF" stroke-dasharray="10 5"/>
<path d="M323 333C323 319.745 333.745 309 347 309H398C411.255 309 422 319.745 422 333V352C422 365.255 411.255 376 398 376H347C333.745 376 323 365.255 323 352V333Z" fill="#0A3871"/>
<path d="M348.839 348H353.043C355.793 348 356.93 346.659 356.93 344.909C356.93 343.068 355.657 342.068 354.589 342V341.886C355.589 341.614 356.475 340.955 356.475 339.455C356.475 337.75 355.339 336.364 352.907 336.364H348.839V348ZM350.248 346.75V342.705H353.112C354.634 342.705 355.589 343.727 355.589 344.909C355.589 345.932 354.884 346.75 353.043 346.75H350.248ZM350.248 341.477V337.614H352.907C354.452 337.614 355.134 338.432 355.134 339.455C355.134 340.682 354.134 341.477 352.862 341.477H350.248ZM364.563 344.432C364.563 346.068 363.313 346.818 362.313 346.818C361.2 346.818 360.404 346 360.404 344.727V339.273H359.063V344.818C359.063 347.045 360.245 348.114 361.881 348.114C363.2 348.114 364.063 347.409 364.472 346.523H364.563V348H365.904V339.273H364.563V344.432ZM372.156 339.273H370.292V337.182H368.951V339.273H367.633V340.409H368.951V345.864C368.951 347.386 370.178 348.114 371.315 348.114C371.815 348.114 372.133 348.023 372.315 347.955L372.042 346.75C371.928 346.773 371.746 346.818 371.451 346.818C370.86 346.818 370.292 346.636 370.292 345.5V340.409H372.156V339.273ZM377.968 339.273H376.104V337.182H374.763V339.273H373.445V340.409H374.763V345.864C374.763 347.386 375.991 348.114 377.127 348.114C377.627 348.114 377.945 348.023 378.127 347.955L377.854 346.75C377.741 346.773 377.559 346.818 377.263 346.818C376.673 346.818 376.104 346.636 376.104 345.5V340.409H377.968V339.273ZM383.437 348.182C385.8 348.182 387.391 346.386 387.391 343.682C387.391 340.955 385.8 339.159 383.437 339.159C381.073 339.159 379.482 340.955 379.482 343.682C379.482 346.386 381.073 348.182 383.437 348.182ZM383.437 346.977C381.641 346.977 380.823 345.432 380.823 343.682C380.823 341.932 381.641 340.364 383.437 340.364C385.232 340.364 386.05 341.932 386.05 343.682C386.05 345.432 385.232 346.977 383.437 346.977ZM390.779 342.75C390.779 341.227 391.722 340.364 393.006 340.364C394.251 340.364 395.006 341.176 395.006 342.545V348H396.347V342.455C396.347 340.227 395.16 339.159 393.393 339.159C392.075 339.159 391.256 339.75 390.847 340.636H390.734V339.273H389.438V348H390.779V342.75Z" fill="white"/>
<path d="M323 416C323 402.745 333.745 392 347 392H398C411.255 392 422 402.745 422 416V435C422 448.255 411.255 459 398 459H347C333.745 459 323 448.255 323 435V416Z" fill="#072B61"/>
<path d="M348.839 431H353.043C355.793 431 356.93 429.659 356.93 427.909C356.93 426.068 355.657 425.068 354.589 425V424.886C355.589 424.614 356.475 423.955 356.475 422.455C356.475 420.75 355.339 419.364 352.907 419.364H348.839V431ZM350.248 429.75V425.705H353.112C354.634 425.705 355.589 426.727 355.589 427.909C355.589 428.932 354.884 429.75 353.043 429.75H350.248ZM350.248 424.477V420.614H352.907C354.452 420.614 355.134 421.432 355.134 422.455C355.134 423.682 354.134 424.477 352.862 424.477H350.248ZM364.563 427.432C364.563 429.068 363.313 429.818 362.313 429.818C361.2 429.818 360.404 429 360.404 427.727V422.273H359.063V427.818C359.063 430.045 360.245 431.114 361.881 431.114C363.2 431.114 364.063 430.409 364.472 429.523H364.563V431H365.904V422.273H364.563V427.432ZM372.156 422.273H370.292V420.182H368.951V422.273H367.633V423.409H368.951V428.864C368.951 430.386 370.178 431.114 371.315 431.114C371.815 431.114 372.133 431.023 372.315 430.955L372.042 429.75C371.928 429.773 371.746 429.818 371.451 429.818C370.86 429.818 370.292 429.636 370.292 428.5V423.409H372.156V422.273ZM377.968 422.273H376.104V420.182H374.763V422.273H373.445V423.409H374.763V428.864C374.763 430.386 375.991 431.114 377.127 431.114C377.627 431.114 377.945 431.023 378.127 430.955L377.854 429.75C377.741 429.773 377.559 429.818 377.263 429.818C376.673 429.818 376.104 429.636 376.104 428.5V423.409H377.968V422.273ZM383.437 431.182C385.8 431.182 387.391 429.386 387.391 426.682C387.391 423.955 385.8 422.159 383.437 422.159C381.073 422.159 379.482 423.955 379.482 426.682C379.482 429.386 381.073 431.182 383.437 431.182ZM383.437 429.977C381.641 429.977 380.823 428.432 380.823 426.682C380.823 424.932 381.641 423.364 383.437 423.364C385.232 423.364 386.05 424.932 386.05 426.682C386.05 428.432 385.232 429.977 383.437 429.977ZM390.779 425.75C390.779 424.227 391.722 423.364 393.006 423.364C394.251 423.364 395.006 424.176 395.006 425.545V431H396.347V425.455C396.347 423.227 395.16 422.159 393.393 422.159C392.075 422.159 391.256 422.75 390.847 423.636H390.734V422.273H389.438V431H390.779V425.75Z" fill="white"/>
<path d="M471.839 348H476.043C478.793 348 479.93 346.659 479.93 344.909C479.93 343.068 478.657 342.068 477.589 342V341.886C478.589 341.614 479.475 340.955 479.475 339.455C479.475 337.75 478.339 336.364 475.907 336.364H471.839V348ZM473.248 346.75V342.705H476.112C477.634 342.705 478.589 343.727 478.589 344.909C478.589 345.932 477.884 346.75 476.043 346.75H473.248ZM473.248 341.477V337.614H475.907C477.452 337.614 478.134 338.432 478.134 339.455C478.134 340.682 477.134 341.477 475.862 341.477H473.248ZM487.563 344.432C487.563 346.068 486.313 346.818 485.313 346.818C484.2 346.818 483.404 346 483.404 344.727V339.273H482.063V344.818C482.063 347.045 483.245 348.114 484.881 348.114C486.2 348.114 487.063 347.409 487.472 346.523H487.563V348H488.904V339.273H487.563V344.432ZM495.156 339.273H493.292V337.182H491.951V339.273H490.633V340.409H491.951V345.864C491.951 347.386 493.178 348.114 494.315 348.114C494.815 348.114 495.133 348.023 495.315 347.955L495.042 346.75C494.928 346.773 494.746 346.818 494.451 346.818C493.86 346.818 493.292 346.636 493.292 345.5V340.409H495.156V339.273ZM500.968 339.273H499.104V337.182H497.763V339.273H496.445V340.409H497.763V345.864C497.763 347.386 498.991 348.114 500.127 348.114C500.627 348.114 500.945 348.023 501.127 347.955L500.854 346.75C500.741 346.773 500.559 346.818 500.263 346.818C499.673 346.818 499.104 346.636 499.104 345.5V340.409H500.968V339.273ZM506.437 348.182C508.8 348.182 510.391 346.386 510.391 343.682C510.391 340.955 508.8 339.159 506.437 339.159C504.073 339.159 502.482 340.955 502.482 343.682C502.482 346.386 504.073 348.182 506.437 348.182ZM506.437 346.977C504.641 346.977 503.823 345.432 503.823 343.682C503.823 341.932 504.641 340.364 506.437 340.364C508.232 340.364 509.05 341.932 509.05 343.682C509.05 345.432 508.232 346.977 506.437 346.977ZM513.779 342.75C513.779 341.227 514.722 340.364 516.006 340.364C517.251 340.364 518.006 341.176 518.006 342.545V348H519.347V342.455C519.347 340.227 518.16 339.159 516.393 339.159C515.075 339.159 514.256 339.75 513.847 340.636H513.734V339.273H512.438V348H513.779V342.75Z" fill="#0A3871"/>
<path d="M470 310H521V308H470V310ZM544 333V352H546V333H544ZM521 375H470V377H521V375ZM447 352V333H445V352H447ZM470 375C457.297 375 447 364.703 447 352H445C445 365.807 456.193 377 470 377V375ZM544 352C544 364.703 533.703 375 521 375V377C534.807 377 546 365.807 546 352H544ZM521 310C533.703 310 544 320.297 544 333H546C546 319.193 534.807 308 521 308V310ZM470 308C456.193 308 445 319.193 445 333H447C447 320.297 457.297 310 470 310V308Z" fill="#0A3871"/>
<path d="M446 416C446 402.745 456.745 392 470 392H521C534.255 392 545 402.745 545 416V435C545 448.255 534.255 459 521 459H470C456.745 459 446 448.255 446 435V416Z" fill="#EFF1FA"/>
<path d="M471.839 431H476.043C478.793 431 479.93 429.659 479.93 427.909C479.93 426.068 478.657 425.068 477.589 425V424.886C478.589 424.614 479.475 423.955 479.475 422.455C479.475 420.75 478.339 419.364 475.907 419.364H471.839V431ZM473.248 429.75V425.705H476.112C477.634 425.705 478.589 426.727 478.589 427.909C478.589 428.932 477.884 429.75 476.043 429.75H473.248ZM473.248 424.477V420.614H475.907C477.452 420.614 478.134 421.432 478.134 422.455C478.134 423.682 477.134 424.477 475.862 424.477H473.248ZM487.563 427.432C487.563 429.068 486.313 429.818 485.313 429.818C484.2 429.818 483.404 429 483.404 427.727V422.273H482.063V427.818C482.063 430.045 483.245 431.114 484.881 431.114C486.2 431.114 487.063 430.409 487.472 429.523H487.563V431H488.904V422.273H487.563V427.432ZM495.156 422.273H493.292V420.182H491.951V422.273H490.633V423.409H491.951V428.864C491.951 430.386 493.178 431.114 494.315 431.114C494.815 431.114 495.133 431.023 495.315 430.955L495.042 429.75C494.928 429.773 494.746 429.818 494.451 429.818C493.86 429.818 493.292 429.636 493.292 428.5V423.409H495.156V422.273ZM500.968 422.273H499.104V420.182H497.763V422.273H496.445V423.409H497.763V428.864C497.763 430.386 498.991 431.114 500.127 431.114C500.627 431.114 500.945 431.023 501.127 430.955L500.854 429.75C500.741 429.773 500.559 429.818 500.263 429.818C499.673 429.818 499.104 429.636 499.104 428.5V423.409H500.968V422.273ZM506.437 431.182C508.8 431.182 510.391 429.386 510.391 426.682C510.391 423.955 508.8 422.159 506.437 422.159C504.073 422.159 502.482 423.955 502.482 426.682C502.482 429.386 504.073 431.182 506.437 431.182ZM506.437 429.977C504.641 429.977 503.823 428.432 503.823 426.682C503.823 424.932 504.641 423.364 506.437 423.364C508.232 423.364 509.05 424.932 509.05 426.682C509.05 428.432 508.232 429.977 506.437 429.977ZM513.779 425.75C513.779 424.227 514.722 423.364 516.006 423.364C517.251 423.364 518.006 424.176 518.006 425.545V431H519.347V425.455C519.347 423.227 518.16 422.159 516.393 422.159C515.075 422.159 514.256 422.75 513.847 423.636H513.734V422.273H512.438V431H513.779V425.75Z" fill="#0A3871"/>
<path d="M470 393H521V391H470V393ZM544 416V435H546V416H544ZM521 458H470V460H521V458ZM447 435V416H445V435H447ZM470 458C457.297 458 447 447.703 447 435H445C445 448.807 456.193 460 470 460V458ZM544 435C544 447.703 533.703 458 521 458V460C534.807 460 546 448.807 546 435H544ZM521 393C533.703 393 544 403.297 544 416H546C546 402.193 534.807 391 521 391V393ZM470 391C456.193 391 445 402.193 445 416H447C447 403.297 457.297 393 470 393V391Z" fill="#0A3871"/>
<rect x="299.5" y="285.5" width="259" height="194" rx="4.5" stroke="#7B61FF" stroke-dasharray="10 5"/>
<defs>
<clipPath id="clip0_46_3606">
<rect x="100" y="276" width="191" height="214" rx="5" fill="white"/>
</clipPath>
</defs>
</svg>
