<svg width="375" height="933" viewBox="0 0 375 933" fill="none" xmlns="http://www.w3.org/2000/svg">
<g clip-path="url(#clip0_16_801)">
<rect width="375" height="933" fill="#F3F5FC"/>
<path d="M26 188C33.0909 188 37.0909 183.591 37.0909 176.318C37.0909 169.091 33.0909 164.727 26.3182 164.727H18.8182V188H26ZM21.6364 185.5V167.227H26.1364C31.5909 167.227 34.3636 170.682 34.3636 176.318C34.3636 182 31.5909 185.5 25.8182 185.5H21.6364ZM41.4545 188H44.1364V170.545H41.4545V188ZM42.8182 167.636C43.8636 167.636 44.7273 166.818 44.7273 165.818C44.7273 164.818 43.8636 164 42.8182 164C41.7727 164 40.9091 164.818 40.9091 165.818C40.9091 166.818 41.7727 167.636 42.8182 167.636ZM56.0938 194.909C60.2756 194.909 63.6392 193 63.6392 188.5V170.545H61.0483V173.318H60.7756C60.1847 172.409 59.0938 170.318 55.6847 170.318C51.2756 170.318 48.2301 173.818 48.2301 179.182C48.2301 184.636 51.4119 187.727 55.6392 187.727C59.0483 187.727 60.1392 185.727 60.7301 184.773H60.9574V188.318C60.9574 191.227 58.9119 192.545 56.0938 192.545C52.9233 192.545 51.8097 190.875 51.0938 189.909L48.9574 191.409C50.0483 193.239 52.196 194.909 56.0938 194.909ZM56.0028 185.318C52.6392 185.318 50.9119 182.773 50.9119 179.136C50.9119 175.591 52.5938 172.727 56.0028 172.727C59.2756 172.727 61.0028 175.364 61.0028 179.136C61.0028 183 59.2301 185.318 56.0028 185.318ZM68.5483 188H71.2301V170.545H68.5483V188ZM69.9119 167.636C70.9574 167.636 71.821 166.818 71.821 165.818C71.821 164.818 70.9574 164 69.9119 164C68.8665 164 68.0028 164.818 68.0028 165.818C68.0028 166.818 68.8665 167.636 69.9119 167.636ZM83.733 170.545H80.0057V166.364H77.3239V170.545H74.6875V172.818H77.3239V183.727C77.3239 186.773 79.7784 188.227 82.0511 188.227C83.0511 188.227 83.6875 188.045 84.0511 187.909L83.5057 185.5C83.2784 185.545 82.9148 185.636 82.3239 185.636C81.142 185.636 80.0057 185.273 80.0057 183V172.818H83.733V170.545ZM94.8977 188.364C98.4432 188.364 101.034 186.591 101.852 183.955L99.2614 183.227C98.5795 185.045 97 185.955 94.8977 185.955C91.75 185.955 89.5795 183.92 89.4545 180.182H102.125V179.045C102.125 172.545 98.2614 170.318 94.625 170.318C89.8977 170.318 86.7614 174.045 86.7614 179.409C86.7614 184.773 89.8523 188.364 94.8977 188.364ZM89.4545 177.864C89.6364 175.148 91.5568 172.727 94.625 172.727C97.5341 172.727 99.3977 174.909 99.3977 177.864H89.4545ZM127.568 174.455C126.727 171.977 124.841 170.318 121.386 170.318C117.705 170.318 114.977 172.409 114.977 175.364C114.977 177.773 116.409 179.386 119.614 180.136L122.523 180.818C124.284 181.227 125.114 182.068 125.114 183.273C125.114 184.773 123.523 186 121.023 186C118.83 186 117.455 185.057 116.977 183.182L114.432 183.818C115.057 186.784 117.5 188.364 121.068 188.364C125.125 188.364 127.886 186.148 127.886 183.136C127.886 180.705 126.364 179.17 123.25 178.409L120.659 177.773C118.591 177.261 117.659 176.568 117.659 175.227C117.659 173.727 119.25 172.636 121.386 172.636C123.727 172.636 124.693 173.932 125.159 175.136L127.568 174.455ZM139.241 188.364C142.787 188.364 145.378 186.591 146.196 183.955L143.605 183.227C142.923 185.045 141.344 185.955 139.241 185.955C136.094 185.955 133.923 183.92 133.798 180.182H146.469V179.045C146.469 172.545 142.605 170.318 138.969 170.318C134.241 170.318 131.105 174.045 131.105 179.409C131.105 184.773 134.196 188.364 139.241 188.364ZM133.798 177.864C133.98 175.148 135.901 172.727 138.969 172.727C141.878 172.727 143.741 174.909 143.741 177.864H133.798ZM161.548 180.864C161.548 184.136 159.048 185.636 157.048 185.636C154.821 185.636 153.23 184 153.23 181.455V170.545H150.548V181.636C150.548 186.091 152.912 188.227 156.185 188.227C158.821 188.227 160.548 186.818 161.366 185.045H161.548V188H164.23V170.545H161.548V180.864ZM185.733 170.545H182.006V166.364H179.324V170.545H176.688V172.818H179.324V183.727C179.324 186.773 181.778 188.227 184.051 188.227C185.051 188.227 185.688 188.045 186.051 187.909L185.506 185.5C185.278 185.545 184.915 185.636 184.324 185.636C183.142 185.636 182.006 185.273 182.006 183V172.818H185.733V170.545ZM196.898 188.364C200.443 188.364 203.034 186.591 203.852 183.955L201.261 183.227C200.58 185.045 199 185.955 196.898 185.955C193.75 185.955 191.58 183.92 191.455 180.182H204.125V179.045C204.125 172.545 200.261 170.318 196.625 170.318C191.898 170.318 188.761 174.045 188.761 179.409C188.761 184.773 191.852 188.364 196.898 188.364ZM191.455 177.864C191.636 175.148 193.557 172.727 196.625 172.727C199.534 172.727 201.398 174.909 201.398 177.864H191.455ZM209.736 170.545H206.645L212.19 179.273L206.645 188H209.736L213.918 181.227L218.099 188H221.19L215.554 179.273L221.19 170.545H218.099L213.918 177.682L209.736 170.545ZM232.608 170.545H228.881V166.364H226.199V170.545H223.562V172.818H226.199V183.727C226.199 186.773 228.653 188.227 230.926 188.227C231.926 188.227 232.562 188.045 232.926 187.909L232.381 185.5C232.153 185.545 231.79 185.636 231.199 185.636C230.017 185.636 228.881 185.273 228.881 183V172.818H232.608V170.545ZM243.545 188.364C248.273 188.364 251.455 184.773 251.455 179.364C251.455 173.909 248.273 170.318 243.545 170.318C238.818 170.318 235.636 173.909 235.636 179.364C235.636 184.773 238.818 188.364 243.545 188.364ZM243.545 185.955C239.955 185.955 238.318 182.864 238.318 179.364C238.318 175.864 239.955 172.727 243.545 172.727C247.136 172.727 248.773 175.864 248.773 179.364C248.773 182.864 247.136 185.955 243.545 185.955Z" fill="#0A3871"/>
<path d="M16 509C16 495.745 26.7452 485 40 485H335C348.255 485 359 495.745 359 509V528C359 541.255 348.255 552 335 552H40C26.7452 552 16 541.255 16 528V509Z" fill="#0A3871"/>
<path d="M152.468 516C152.036 513.614 150.127 512.205 147.786 512.205C144.809 512.205 142.65 514.5 142.65 518.182C142.65 521.864 144.809 524.159 147.786 524.159C150.127 524.159 152.036 522.75 152.468 520.364H151.059C150.718 521.977 149.332 522.841 147.786 522.841C145.673 522.841 144.013 521.205 144.013 518.182C144.013 515.159 145.673 513.523 147.786 513.523C149.332 513.523 150.718 514.386 151.059 516H152.468ZM154.563 524H155.904V518.477C155.904 517.295 156.836 516.432 158.109 516.432C158.467 516.432 158.836 516.5 158.927 516.523V515.159C158.773 515.148 158.421 515.136 158.222 515.136C157.177 515.136 156.268 515.727 155.95 516.591H155.859V515.273H154.563V524ZM160.516 524H161.857V515.273H160.516V524ZM161.198 513.818C161.721 513.818 162.153 513.409 162.153 512.909C162.153 512.409 161.721 512 161.198 512C160.675 512 160.244 512.409 160.244 512.909C160.244 513.409 160.675 513.818 161.198 513.818ZM164.313 527.273H165.654V522.659H165.768C166.063 523.136 166.631 524.182 168.313 524.182C170.495 524.182 172.018 522.432 172.018 519.659C172.018 516.909 170.495 515.159 168.29 515.159C166.586 515.159 166.063 516.205 165.768 516.659H165.609V515.273H164.313V527.273ZM165.631 519.636C165.631 517.682 166.495 516.364 168.131 516.364C169.836 516.364 170.677 517.795 170.677 519.636C170.677 521.5 169.813 522.977 168.131 522.977C166.518 522.977 165.631 521.614 165.631 519.636ZM177.859 515.273H175.995V513.182H174.654V515.273H173.336V516.409H174.654V521.864C174.654 523.386 175.881 524.114 177.018 524.114C177.518 524.114 177.836 524.023 178.018 523.955L177.745 522.75C177.631 522.773 177.45 522.818 177.154 522.818C176.563 522.818 175.995 522.636 175.995 521.5V516.409H177.859V515.273ZM183.327 524.182C185.691 524.182 187.282 522.386 187.282 519.682C187.282 516.955 185.691 515.159 183.327 515.159C180.964 515.159 179.373 516.955 179.373 519.682C179.373 522.386 180.964 524.182 183.327 524.182ZM183.327 522.977C181.532 522.977 180.714 521.432 180.714 519.682C180.714 517.932 181.532 516.364 183.327 516.364C185.123 516.364 185.941 517.932 185.941 519.682C185.941 521.432 185.123 522.977 183.327 522.977ZM192.852 527.455C194.942 527.455 196.624 526.5 196.624 524.25V515.273H195.329V516.659H195.192C194.897 516.205 194.352 515.159 192.647 515.159C190.442 515.159 188.92 516.909 188.92 519.591C188.92 522.318 190.511 523.864 192.624 523.864C194.329 523.864 194.874 522.864 195.17 522.386H195.283V524.159C195.283 525.614 194.261 526.273 192.852 526.273C191.266 526.273 190.71 525.438 190.352 524.955L189.283 525.705C189.829 526.619 190.903 527.455 192.852 527.455ZM192.806 522.659C191.124 522.659 190.261 521.386 190.261 519.568C190.261 517.795 191.102 516.364 192.806 516.364C194.442 516.364 195.306 517.682 195.306 519.568C195.306 521.5 194.42 522.659 192.806 522.659ZM199.079 524H200.42V518.477C200.42 517.295 201.352 516.432 202.624 516.432C202.982 516.432 203.352 516.5 203.442 516.523V515.159C203.289 515.148 202.937 515.136 202.738 515.136C201.692 515.136 200.783 515.727 200.465 516.591H200.374V515.273H199.079V524ZM207.6 524.205C209.123 524.205 209.918 523.386 210.191 522.818H210.259V524H211.6V518.25C211.6 515.477 209.487 515.159 208.373 515.159C207.055 515.159 205.555 515.614 204.873 517.205L206.146 517.659C206.441 517.023 207.14 516.341 208.418 516.341C209.651 516.341 210.259 516.994 210.259 518.114V518.159C210.259 518.807 209.6 518.75 208.009 518.955C206.39 519.165 204.623 519.523 204.623 521.523C204.623 523.227 205.941 524.205 207.6 524.205ZM207.805 523C206.737 523 205.964 522.523 205.964 521.591C205.964 520.568 206.896 520.25 207.941 520.114C208.509 520.045 210.032 519.886 210.259 519.614V520.841C210.259 521.932 209.396 523 207.805 523ZM217.934 515.273H215.979V514.386C215.979 513.523 216.343 513.068 217.229 513.068C217.616 513.068 217.843 513.159 217.979 513.205L218.366 512.045C218.161 511.955 217.752 511.818 217.093 511.818C215.843 511.818 214.638 512.568 214.638 514.068V515.273H213.229V516.409H214.638V524H215.979V516.409H217.934V515.273ZM222.131 524.205C223.654 524.205 224.45 523.386 224.722 522.818H224.79V524H226.131V518.25C226.131 515.477 224.018 515.159 222.904 515.159C221.586 515.159 220.086 515.614 219.404 517.205L220.677 517.659C220.972 517.023 221.671 516.341 222.95 516.341C224.183 516.341 224.79 516.994 224.79 518.114V518.159C224.79 518.807 224.131 518.75 222.54 518.955C220.921 519.165 219.154 519.523 219.154 521.523C219.154 523.227 220.472 524.205 222.131 524.205ZM222.336 523C221.268 523 220.495 522.523 220.495 521.591C220.495 520.568 221.427 520.25 222.472 520.114C223.04 520.045 224.563 519.886 224.79 519.614V520.841C224.79 521.932 223.927 523 222.336 523ZM228.579 524H229.92V518.477C229.92 517.295 230.852 516.432 232.124 516.432C232.482 516.432 232.852 516.5 232.942 516.523V515.159C232.789 515.148 232.437 515.136 232.238 515.136C231.192 515.136 230.283 515.727 229.965 516.591H229.874V515.273H228.579V524Z" fill="white"/>
<path d="M133.461 615C137.006 615 139.006 612.795 139.006 609.159C139.006 605.545 137.006 603.364 133.62 603.364H129.87V615H133.461ZM131.279 613.75V604.614H133.529C136.256 604.614 137.643 606.341 137.643 609.159C137.643 612 136.256 613.75 133.37 613.75H131.279ZM144.847 615.182C146.62 615.182 147.915 614.295 148.325 612.977L147.029 612.614C146.688 613.523 145.898 613.977 144.847 613.977C143.273 613.977 142.188 612.96 142.126 611.091H148.461V610.523C148.461 607.273 146.529 606.159 144.711 606.159C142.347 606.159 140.779 608.023 140.779 610.705C140.779 613.386 142.325 615.182 144.847 615.182ZM142.126 609.932C142.217 608.574 143.177 607.364 144.711 607.364C146.165 607.364 147.097 608.455 147.097 609.932H142.126ZM156.683 608.227C156.262 606.989 155.319 606.159 153.592 606.159C151.751 606.159 150.387 607.205 150.387 608.682C150.387 609.886 151.103 610.693 152.705 611.068L154.16 611.409C155.04 611.614 155.455 612.034 155.455 612.636C155.455 613.386 154.66 614 153.41 614C152.313 614 151.626 613.528 151.387 612.591L150.114 612.909C150.427 614.392 151.648 615.182 153.433 615.182C155.461 615.182 156.842 614.074 156.842 612.568C156.842 611.352 156.08 610.585 154.523 610.205L153.228 609.886C152.194 609.631 151.728 609.284 151.728 608.614C151.728 607.864 152.523 607.318 153.592 607.318C154.762 607.318 155.245 607.966 155.478 608.568L156.683 608.227ZM162.406 615.182C164.337 615.182 165.61 614 165.837 612.455H164.496C164.246 613.409 163.451 613.977 162.406 613.977C160.815 613.977 159.792 612.659 159.792 610.636C159.792 608.659 160.837 607.364 162.406 607.364C163.587 607.364 164.292 608.091 164.496 608.886H165.837C165.61 607.25 164.224 606.159 162.383 606.159C160.019 606.159 158.451 608.023 158.451 610.682C158.451 613.295 159.951 615.182 162.406 615.182ZM167.798 615H169.138V609.477C169.138 608.295 170.07 607.432 171.343 607.432C171.701 607.432 172.07 607.5 172.161 607.523V606.159C172.008 606.148 171.656 606.136 171.457 606.136C170.411 606.136 169.502 606.727 169.184 607.591H169.093V606.273H167.798V615ZM173.751 615H175.092V606.273H173.751V615ZM174.433 604.818C174.955 604.818 175.387 604.409 175.387 603.909C175.387 603.409 174.955 603 174.433 603C173.91 603 173.478 603.409 173.478 603.909C173.478 604.409 173.91 604.818 174.433 604.818ZM177.548 618.273H178.888V613.659H179.002C179.298 614.136 179.866 615.182 181.548 615.182C183.729 615.182 185.252 613.432 185.252 610.659C185.252 607.909 183.729 606.159 181.525 606.159C179.82 606.159 179.298 607.205 179.002 607.659H178.843V606.273H177.548V618.273ZM178.866 610.636C178.866 608.682 179.729 607.364 181.366 607.364C183.07 607.364 183.911 608.795 183.911 610.636C183.911 612.5 183.048 613.977 181.366 613.977C179.752 613.977 178.866 612.614 178.866 610.636ZM191.093 606.273H189.229V604.182H187.888V606.273H186.57V607.409H187.888V612.864C187.888 614.386 189.116 615.114 190.252 615.114C190.752 615.114 191.07 615.023 191.252 614.955L190.979 613.75C190.866 613.773 190.684 613.818 190.388 613.818C189.798 613.818 189.229 613.636 189.229 612.5V607.409H191.093V606.273ZM196.562 615.182C198.925 615.182 200.516 613.386 200.516 610.682C200.516 607.955 198.925 606.159 196.562 606.159C194.198 606.159 192.607 607.955 192.607 610.682C192.607 613.386 194.198 615.182 196.562 615.182ZM196.562 613.977C194.766 613.977 193.948 612.432 193.948 610.682C193.948 608.932 194.766 607.364 196.562 607.364C198.357 607.364 199.175 608.932 199.175 610.682C199.175 612.432 198.357 613.977 196.562 613.977ZM206.086 618.455C208.177 618.455 209.859 617.5 209.859 615.25V606.273H208.563V607.659H208.427C208.131 607.205 207.586 606.159 205.881 606.159C203.677 606.159 202.154 607.909 202.154 610.591C202.154 613.318 203.745 614.864 205.859 614.864C207.563 614.864 208.109 613.864 208.404 613.386H208.518V615.159C208.518 616.614 207.495 617.273 206.086 617.273C204.501 617.273 203.944 616.438 203.586 615.955L202.518 616.705C203.063 617.619 204.137 618.455 206.086 618.455ZM206.04 613.659C204.359 613.659 203.495 612.386 203.495 610.568C203.495 608.795 204.336 607.364 206.04 607.364C207.677 607.364 208.54 608.682 208.54 610.568C208.54 612.5 207.654 613.659 206.04 613.659ZM212.313 615H213.654V609.477C213.654 608.295 214.586 607.432 215.859 607.432C216.217 607.432 216.586 607.5 216.677 607.523V606.159C216.523 606.148 216.171 606.136 215.972 606.136C214.927 606.136 214.018 606.727 213.7 607.591H213.609V606.273H212.313V615ZM220.835 615.205C222.357 615.205 223.153 614.386 223.425 613.818H223.494V615H224.835V609.25C224.835 606.477 222.721 606.159 221.607 606.159C220.289 606.159 218.789 606.614 218.107 608.205L219.38 608.659C219.675 608.023 220.374 607.341 221.653 607.341C222.886 607.341 223.494 607.994 223.494 609.114V609.159C223.494 609.807 222.835 609.75 221.244 609.955C219.624 610.165 217.857 610.523 217.857 612.523C217.857 614.227 219.175 615.205 220.835 615.205ZM221.039 614C219.971 614 219.198 613.523 219.198 612.591C219.198 611.568 220.13 611.25 221.175 611.114C221.744 611.045 223.266 610.886 223.494 610.614V611.841C223.494 612.932 222.63 614 221.039 614ZM231.168 606.273H229.214V605.386C229.214 604.523 229.577 604.068 230.464 604.068C230.85 604.068 231.077 604.159 231.214 604.205L231.6 603.045C231.396 602.955 230.987 602.818 230.327 602.818C229.077 602.818 227.873 603.568 227.873 605.068V606.273H226.464V607.409H227.873V615H229.214V607.409H231.168V606.273ZM235.366 615.205C236.888 615.205 237.684 614.386 237.957 613.818H238.025V615H239.366V609.25C239.366 606.477 237.252 606.159 236.138 606.159C234.82 606.159 233.32 606.614 232.638 608.205L233.911 608.659C234.207 608.023 234.906 607.341 236.184 607.341C237.417 607.341 238.025 607.994 238.025 609.114V609.159C238.025 609.807 237.366 609.75 235.775 609.955C234.156 610.165 232.388 610.523 232.388 612.523C232.388 614.227 233.707 615.205 235.366 615.205ZM235.57 614C234.502 614 233.729 613.523 233.729 612.591C233.729 611.568 234.661 611.25 235.707 611.114C236.275 611.045 237.798 610.886 238.025 610.614V611.841C238.025 612.932 237.161 614 235.57 614ZM241.813 615H243.154V609.477C243.154 608.295 244.086 607.432 245.359 607.432C245.717 607.432 246.086 607.5 246.177 607.523V606.159C246.023 606.148 245.671 606.136 245.472 606.136C244.427 606.136 243.518 606.727 243.2 607.591H243.109V606.273H241.813V615Z" fill="#0A3871"/>
<path d="M40 577H335V575H40V577ZM358 600V619H360V600H358ZM335 642H40V644H335V642ZM17 619V600H15V619H17ZM40 642C27.2975 642 17 631.703 17 619H15C15 632.807 26.1929 644 40 644V642ZM358 619C358 631.703 347.703 642 335 642V644C348.807 644 360 632.807 360 619H358ZM335 577C347.703 577 358 587.297 358 600H360C360 586.193 348.807 575 335 575V577ZM40 575C26.1929 575 15 586.193 15 600H17C17 587.297 27.2975 577 40 577V575Z" fill="#0A3871"/>
<path d="M32 460C32 462.122 31.1571 464.157 29.6569 465.657C28.1566 467.157 26.1217 468 24 468C21.8783 468 19.8434 467.157 18.3431 465.657C16.8429 464.157 16 462.122 16 460C16 457.878 16.8429 455.843 18.3431 454.343C19.8434 452.843 21.8783 452 24 452C26.1217 452 28.1566 452.843 29.6569 454.343C31.1571 455.843 32 457.878 32 460ZM24 456C23.8736 456 23.7486 456.027 23.6331 456.078C23.5176 456.129 23.4141 456.204 23.3293 456.298C23.2446 456.392 23.1803 456.502 23.1408 456.622C23.1013 456.742 23.0874 456.869 23.1 456.995L23.45 460.502C23.4618 460.64 23.5248 460.768 23.6266 460.862C23.7285 460.955 23.8617 461.007 24 461.007C24.1383 461.007 24.2715 460.955 24.3734 460.862C24.4752 460.768 24.5382 460.64 24.55 460.502L24.9 456.995C24.9126 456.869 24.8987 456.742 24.8592 456.622C24.8197 456.502 24.7554 456.392 24.6707 456.298C24.5859 456.204 24.4824 456.129 24.3669 456.078C24.2514 456.027 24.1264 456 24 456ZM24.002 462C23.7368 462 23.4824 462.105 23.2949 462.293C23.1074 462.48 23.002 462.735 23.002 463C23.002 463.265 23.1074 463.52 23.2949 463.707C23.4824 463.895 23.7368 464 24.002 464C24.2672 464 24.5216 463.895 24.7091 463.707C24.8966 463.52 25.002 463.265 25.002 463C25.002 462.735 24.8966 462.48 24.7091 462.293C24.5216 462.105 24.2672 462 24.002 462Z" fill="#343A40"/>
<path d="M41.4148 464L42.2926 461.528H45.821L46.6989 464H47.8068L44.6023 455.273H43.5114L40.3068 464H41.4148ZM42.625 460.591L44.0227 456.653H44.0909L45.4886 460.591H42.625ZM49.0298 466.455H50.0355V462.994H50.1207C50.3423 463.352 50.7685 464.136 52.0298 464.136C53.6662 464.136 54.8082 462.824 54.8082 460.744C54.8082 458.682 53.6662 457.369 52.0128 457.369C50.7344 457.369 50.3423 458.153 50.1207 458.494H50.0014V457.455H49.0298V466.455ZM50.0185 460.727C50.0185 459.261 50.6662 458.273 51.8935 458.273C53.1719 458.273 53.8026 459.347 53.8026 460.727C53.8026 462.125 53.1548 463.233 51.8935 463.233C50.6832 463.233 50.0185 462.21 50.0185 460.727ZM59.0866 464.136C60.4162 464.136 61.3878 463.472 61.6946 462.483L60.723 462.21C60.4673 462.892 59.875 463.233 59.0866 463.233C57.9062 463.233 57.0923 462.47 57.0455 461.068H61.7969V460.642C61.7969 458.205 60.348 457.369 58.9844 457.369C57.2116 457.369 56.0355 458.767 56.0355 460.778C56.0355 462.79 57.1946 464.136 59.0866 464.136ZM57.0455 460.199C57.1136 459.18 57.8338 458.273 58.9844 458.273C60.0753 458.273 60.7741 459.091 60.7741 460.199H57.0455ZM64.3324 460.062C64.3324 458.92 65.0398 458.273 66.0028 458.273C66.9361 458.273 67.5028 458.882 67.5028 459.909V464H68.5085V459.841C68.5085 458.17 67.6179 457.369 66.2926 457.369C65.304 457.369 64.6903 457.812 64.3835 458.477H64.2983V457.455H63.3267V464H64.3324V460.062ZM72.2724 464.153C73.4144 464.153 74.011 463.54 74.2156 463.114H74.2667V464H75.2724V459.688C75.2724 457.608 73.6871 457.369 72.8519 457.369C71.8633 457.369 70.7383 457.71 70.2269 458.903L71.1815 459.244C71.4031 458.767 71.9272 458.256 72.886 458.256C73.8107 458.256 74.2667 458.746 74.2667 459.585V459.619C74.2667 460.105 73.7724 460.062 72.5792 460.216C71.3647 460.374 70.0394 460.642 70.0394 462.142C70.0394 463.42 71.0281 464.153 72.2724 464.153ZM72.4258 463.25C71.6246 463.25 71.0451 462.892 71.0451 462.193C71.0451 461.426 71.744 461.188 72.5281 461.085C72.9542 461.034 74.0962 460.915 74.2667 460.71V461.631C74.2667 462.449 73.619 463.25 72.4258 463.25ZM81.7443 458.92C81.429 457.991 80.7216 457.369 79.4261 457.369C78.0455 457.369 77.0227 458.153 77.0227 459.261C77.0227 460.165 77.5597 460.77 78.7614 461.051L79.8523 461.307C80.5128 461.46 80.8239 461.776 80.8239 462.227C80.8239 462.79 80.2273 463.25 79.2898 463.25C78.4673 463.25 77.9517 462.896 77.7727 462.193L76.8182 462.432C77.0526 463.544 77.9688 464.136 79.3068 464.136C80.8281 464.136 81.8636 463.305 81.8636 462.176C81.8636 461.264 81.2926 460.689 80.125 460.403L79.1534 460.165C78.3778 459.973 78.0284 459.713 78.0284 459.21C78.0284 458.648 78.625 458.239 79.4261 458.239C80.304 458.239 80.6662 458.724 80.8409 459.176L81.7443 458.92ZM87.7582 455.273H86.7525V464H87.7582V455.273ZM92.3445 464.136C93.674 464.136 94.6456 463.472 94.9524 462.483L93.9808 462.21C93.7251 462.892 93.1328 463.233 92.3445 463.233C91.1641 463.233 90.3501 462.47 90.3033 461.068H95.0547V460.642C95.0547 458.205 93.6058 457.369 92.2422 457.369C90.4695 457.369 89.2933 458.767 89.2933 460.778C89.2933 462.79 90.4524 464.136 92.3445 464.136ZM90.3033 460.199C90.3714 459.18 91.0916 458.273 92.2422 458.273C93.3331 458.273 94.032 459.091 94.032 460.199H90.3033ZM99.4311 457.455H98.0334V455.886H97.0277V457.455H96.0391V458.307H97.0277V462.398C97.0277 463.54 97.9482 464.085 98.8004 464.085C99.1754 464.085 99.4141 464.017 99.5504 463.966L99.3459 463.062C99.2607 463.08 99.1243 463.114 98.9027 463.114C98.4595 463.114 98.0334 462.977 98.0334 462.125V458.307H99.4311V457.455ZM100.944 464H101.95V459.858C101.95 458.972 102.648 458.324 103.603 458.324C103.871 458.324 104.148 458.375 104.217 458.392V457.369C104.102 457.361 103.837 457.352 103.688 457.352C102.904 457.352 102.222 457.795 101.984 458.443H101.915V457.455H100.944V464ZM107.335 464.153C108.477 464.153 109.074 463.54 109.278 463.114H109.329V464H110.335V459.688C110.335 457.608 108.75 457.369 107.914 457.369C106.926 457.369 105.801 457.71 105.289 458.903L106.244 459.244C106.466 458.767 106.99 458.256 107.949 458.256C108.873 458.256 109.329 458.746 109.329 459.585V459.619C109.329 460.105 108.835 460.062 107.642 460.216C106.427 460.374 105.102 460.642 105.102 462.142C105.102 463.42 106.091 464.153 107.335 464.153ZM107.488 463.25C106.687 463.25 106.108 462.892 106.108 462.193C106.108 461.426 106.806 461.188 107.591 461.085C108.017 461.034 109.159 460.915 109.329 460.71V461.631C109.329 462.449 108.681 463.25 107.488 463.25ZM116.807 458.92C116.491 457.991 115.784 457.369 114.489 457.369C113.108 457.369 112.085 458.153 112.085 459.261C112.085 460.165 112.622 460.77 113.824 461.051L114.915 461.307C115.575 461.46 115.886 461.776 115.886 462.227C115.886 462.79 115.29 463.25 114.352 463.25C113.53 463.25 113.014 462.896 112.835 462.193L111.881 462.432C112.115 463.544 113.031 464.136 114.369 464.136C115.891 464.136 116.926 463.305 116.926 462.176C116.926 461.264 116.355 460.689 115.188 460.403L114.216 460.165C113.44 459.973 113.091 459.713 113.091 459.21C113.091 458.648 113.688 458.239 114.489 458.239C115.366 458.239 115.729 458.724 115.903 459.176L116.807 458.92ZM121.815 464H122.821V459.909C122.821 458.95 123.52 458.273 124.304 458.273C125.066 458.273 125.599 458.771 125.599 459.517V464H126.622V459.739C126.622 458.895 127.15 458.273 128.071 458.273C128.787 458.273 129.4 458.652 129.4 459.619V464H130.406V459.619C130.406 458.081 129.579 457.369 128.412 457.369C127.474 457.369 126.788 457.8 126.451 458.477H126.383C126.059 457.778 125.488 457.369 124.627 457.369C123.775 457.369 123.145 457.778 122.872 458.477H122.787V457.455H121.815V464ZM132.245 464H133.25V457.455H132.245V464ZM132.756 456.364C133.148 456.364 133.472 456.057 133.472 455.682C133.472 455.307 133.148 455 132.756 455C132.364 455 132.04 455.307 132.04 455.682C132.04 456.057 132.364 456.364 132.756 456.364ZM136.098 460.062C136.098 458.92 136.805 458.273 137.768 458.273C138.702 458.273 139.268 458.882 139.268 459.909V464H140.274V459.841C140.274 458.17 139.384 457.369 138.058 457.369C137.07 457.369 136.456 457.812 136.149 458.477H136.064V457.455H135.092V464H136.098V460.062ZM146.237 461.324C146.237 462.551 145.299 463.114 144.549 463.114C143.714 463.114 143.118 462.5 143.118 461.545V457.455H142.112V461.614C142.112 463.284 142.998 464.085 144.225 464.085C145.214 464.085 145.862 463.557 146.169 462.892H146.237V464H147.243V457.455H146.237V461.324ZM144.225 456.568H145.112L146.441 454.591H145.265L144.225 456.568ZM153.721 458.92C153.406 457.991 152.698 457.369 151.403 457.369C150.022 457.369 148.999 458.153 148.999 459.261C148.999 460.165 149.536 460.77 150.738 461.051L151.829 461.307C152.489 461.46 152.8 461.776 152.8 462.227C152.8 462.79 152.204 463.25 151.266 463.25C150.444 463.25 149.928 462.896 149.749 462.193L148.795 462.432C149.029 463.544 149.945 464.136 151.283 464.136C152.805 464.136 153.84 463.305 153.84 462.176C153.84 461.264 153.269 460.689 152.102 460.403L151.13 460.165C150.354 459.973 150.005 459.713 150.005 459.21C150.005 458.648 150.602 458.239 151.403 458.239C152.281 458.239 152.643 458.724 152.817 459.176L153.721 458.92ZM158.013 464.136C159.462 464.136 160.417 463.25 160.587 462.091H159.581C159.394 462.807 158.797 463.233 158.013 463.233C156.82 463.233 156.053 462.244 156.053 460.727C156.053 459.244 156.837 458.273 158.013 458.273C158.9 458.273 159.428 458.818 159.581 459.415H160.587C160.417 458.188 159.377 457.369 157.996 457.369C156.223 457.369 155.047 458.767 155.047 460.761C155.047 462.722 156.172 464.136 158.013 464.136ZM166.182 461.324C166.182 462.551 165.245 463.114 164.495 463.114C163.659 463.114 163.063 462.5 163.063 461.545V457.455H162.057V461.614C162.057 463.284 162.944 464.085 164.171 464.085C165.159 464.085 165.807 463.557 166.114 462.892H166.182V464H167.188V457.455H166.182V461.324ZM170.036 455.273H169.03V464H170.036V455.273ZM173.804 464.153C174.946 464.153 175.542 463.54 175.747 463.114H175.798V464H176.804V459.688C176.804 457.608 175.218 457.369 174.383 457.369C173.395 457.369 172.27 457.71 171.758 458.903L172.713 459.244C172.934 458.767 173.458 458.256 174.417 458.256C175.342 458.256 175.798 458.746 175.798 459.585V459.619C175.798 460.105 175.304 460.062 174.11 460.216C172.896 460.374 171.571 460.642 171.571 462.142C171.571 463.42 172.559 464.153 173.804 464.153ZM173.957 463.25C173.156 463.25 172.576 462.892 172.576 462.193C172.576 461.426 173.275 461.188 174.059 461.085C174.485 461.034 175.627 460.915 175.798 460.71V461.631C175.798 462.449 175.15 463.25 173.957 463.25ZM183.276 458.92C182.96 457.991 182.253 457.369 180.957 457.369C179.577 457.369 178.554 458.153 178.554 459.261C178.554 460.165 179.091 460.77 180.293 461.051L181.384 461.307C182.044 461.46 182.355 461.776 182.355 462.227C182.355 462.79 181.759 463.25 180.821 463.25C179.999 463.25 179.483 462.896 179.304 462.193L178.349 462.432C178.584 463.544 179.5 464.136 180.838 464.136C182.359 464.136 183.395 463.305 183.395 462.176C183.395 461.264 182.824 460.689 181.656 460.403L180.685 460.165C179.909 459.973 179.56 459.713 179.56 459.21C179.56 458.648 180.156 458.239 180.957 458.239C181.835 458.239 182.197 458.724 182.372 459.176L183.276 458.92ZM191.028 464.136C192.358 464.136 193.329 463.472 193.636 462.483L192.664 462.21C192.409 462.892 191.816 463.233 191.028 463.233C189.848 463.233 189.034 462.47 188.987 461.068H193.738V460.642C193.738 458.205 192.289 457.369 190.926 457.369C189.153 457.369 187.977 458.767 187.977 460.778C187.977 462.79 189.136 464.136 191.028 464.136ZM188.987 460.199C189.055 459.18 189.775 458.273 190.926 458.273C192.017 458.273 192.716 459.091 192.716 460.199H188.987ZM203.279 458.92C202.964 457.991 202.257 457.369 200.961 457.369C199.581 457.369 198.558 458.153 198.558 459.261C198.558 460.165 199.095 460.77 200.297 461.051L201.387 461.307C202.048 461.46 202.359 461.776 202.359 462.227C202.359 462.79 201.762 463.25 200.825 463.25C200.002 463.25 199.487 462.896 199.308 462.193L198.353 462.432C198.588 463.544 199.504 464.136 200.842 464.136C202.363 464.136 203.399 463.305 203.399 462.176C203.399 461.264 202.828 460.689 201.66 460.403L200.689 460.165C199.913 459.973 199.564 459.713 199.564 459.21C199.564 458.648 200.16 458.239 200.961 458.239C201.839 458.239 202.201 458.724 202.376 459.176L203.279 458.92ZM207.657 464.136C208.987 464.136 209.958 463.472 210.265 462.483L209.293 462.21C209.038 462.892 208.445 463.233 207.657 463.233C206.477 463.233 205.663 462.47 205.616 461.068H210.367V460.642C210.367 458.205 208.918 457.369 207.555 457.369C205.782 457.369 204.606 458.767 204.606 460.778C204.606 462.79 205.765 464.136 207.657 464.136ZM205.616 460.199C205.684 459.18 206.404 458.273 207.555 458.273C208.646 458.273 209.344 459.091 209.344 460.199H205.616ZM211.897 464H212.903V459.909C212.903 458.95 213.602 458.273 214.386 458.273C215.148 458.273 215.681 458.771 215.681 459.517V464H216.704V459.739C216.704 458.895 217.232 458.273 218.153 458.273C218.869 458.273 219.482 458.652 219.482 459.619V464H220.488V459.619C220.488 458.081 219.661 457.369 218.494 457.369C217.556 457.369 216.87 457.8 216.533 458.477H216.465C216.141 457.778 215.57 457.369 214.71 457.369C213.857 457.369 213.227 457.778 212.954 458.477H212.869V457.455H211.897V464ZM227.628 464.153C228.77 464.153 229.366 463.54 229.571 463.114H229.622V464H230.628V459.688C230.628 457.608 229.043 457.369 228.207 457.369C227.219 457.369 226.094 457.71 225.582 458.903L226.537 459.244C226.759 458.767 227.283 458.256 228.241 458.256C229.166 458.256 229.622 458.746 229.622 459.585V459.619C229.622 460.105 229.128 460.062 227.935 460.216C226.72 460.374 225.395 460.642 225.395 462.142C225.395 463.42 226.384 464.153 227.628 464.153ZM227.781 463.25C226.98 463.25 226.401 462.892 226.401 462.193C226.401 461.426 227.099 461.188 227.884 461.085C228.31 461.034 229.452 460.915 229.622 460.71V461.631C229.622 462.449 228.974 463.25 227.781 463.25ZM235.123 464.136C236.571 464.136 237.526 463.25 237.696 462.091H236.691C236.503 462.807 235.907 463.233 235.123 463.233C233.929 463.233 233.162 462.244 233.162 460.727C233.162 459.244 233.946 458.273 235.123 458.273C236.009 458.273 236.537 458.818 236.691 459.415H237.696C237.526 458.188 236.486 457.369 235.105 457.369C233.333 457.369 232.157 458.767 232.157 460.761C232.157 462.722 233.282 464.136 235.123 464.136ZM241.911 464.136C243.24 464.136 244.212 463.472 244.519 462.483L243.547 462.21C243.292 462.892 242.699 463.233 241.911 463.233C240.73 463.233 239.917 462.47 239.87 461.068H244.621V460.642C244.621 458.205 243.172 457.369 241.809 457.369C240.036 457.369 238.86 458.767 238.86 460.778C238.86 462.79 240.019 464.136 241.911 464.136ZM239.87 460.199C239.938 459.18 240.658 458.273 241.809 458.273C242.9 458.273 243.598 459.091 243.598 460.199H239.87ZM247.157 460.062C247.157 458.92 247.864 458.273 248.827 458.273C249.76 458.273 250.327 458.882 250.327 459.909V464H251.333V459.841C251.333 458.17 250.442 457.369 249.117 457.369C248.128 457.369 247.515 457.812 247.208 458.477H247.123V457.455H246.151V464H247.157V460.062ZM256.017 457.455H254.619V455.886H253.614V457.455H252.625V458.307H253.614V462.398C253.614 463.54 254.534 464.085 255.386 464.085C255.761 464.085 256 464.017 256.136 463.966L255.932 463.062C255.847 463.08 255.71 463.114 255.489 463.114C255.045 463.114 254.619 462.977 254.619 462.125V458.307H256.017V457.455ZM260.119 464.136C261.891 464.136 263.085 462.79 263.085 460.761C263.085 458.716 261.891 457.369 260.119 457.369C258.346 457.369 257.153 458.716 257.153 460.761C257.153 462.79 258.346 464.136 260.119 464.136ZM260.119 463.233C258.772 463.233 258.158 462.074 258.158 460.761C258.158 459.449 258.772 458.273 260.119 458.273C261.465 458.273 262.079 459.449 262.079 460.761C262.079 462.074 261.465 463.233 260.119 463.233ZM265.353 464.068C265.775 464.068 266.12 463.723 266.12 463.301C266.12 462.879 265.775 462.534 265.353 462.534C264.931 462.534 264.586 462.879 264.586 463.301C264.586 463.723 264.931 464.068 265.353 464.068Z" fill="#343A40"/>
<g filter="url(#filter0_d_16_801)">
<rect x="24" y="707" width="327" height="186" rx="32" fill="white"/>
<path d="M79.5266 744.545H75.8533V755.523H75.6999L68.1658 744.545H64.9272V762H68.6175V751.014H68.7454L76.3391 762H79.5266V744.545ZM88.4734 762.256C91.712 762.256 93.8938 760.679 94.4052 758.25L91.0472 758.028C90.6808 759.026 89.7433 759.545 88.533 759.545C86.7177 759.545 85.5671 758.344 85.5671 756.392V756.384H94.4819V755.386C94.4819 750.938 91.7887 748.739 88.3285 748.739C84.4762 748.739 81.979 751.474 81.979 755.514C81.979 759.665 84.4421 762.256 88.4734 762.256ZM85.5671 754.134C85.6438 752.642 86.7773 751.449 88.3881 751.449C89.9648 751.449 91.0558 752.574 91.0643 754.134H85.5671ZM100.482 754.432C100.49 752.744 101.496 751.756 102.962 751.756C104.419 751.756 105.297 752.71 105.289 754.312V762H108.919V753.665C108.919 750.614 107.13 748.739 104.402 748.739C102.459 748.739 101.053 749.693 100.465 751.219H100.311V748.909H96.8512V762H100.482V754.432ZM115.412 754.432C115.42 752.744 116.451 751.756 117.934 751.756C119.409 751.756 120.278 752.702 120.27 754.312V762H123.9V753.665C123.909 750.597 122.102 748.739 119.375 748.739C117.389 748.739 116.059 749.676 115.463 751.219H115.309V744.545H111.781V762H115.412V754.432ZM135.152 756.426C135.161 758.182 133.959 759.102 132.655 759.102C131.283 759.102 130.397 758.139 130.388 756.597V748.909H126.757V757.244C126.766 760.304 128.556 762.17 131.189 762.17C133.158 762.17 134.573 761.156 135.161 759.622H135.297V762H138.783V748.909H135.152V756.426ZM141.687 762H145.318V754.142C145.318 752.693 146.238 751.73 147.449 751.73C148.642 751.73 149.443 752.548 149.443 753.835V762H152.963V754.006C152.963 752.651 153.738 751.73 155.059 751.73C156.218 751.73 157.088 752.455 157.088 753.912V762H160.71V753.196C160.71 750.358 159.022 748.739 156.585 748.739C154.667 748.739 153.176 749.719 152.639 751.219H152.502C152.085 749.702 150.747 748.739 148.949 748.739C147.184 748.739 145.846 749.676 145.301 751.219H145.147V748.909H141.687V762ZM167.311 762.247C169.245 762.247 170.498 761.403 171.137 760.185H171.24V762H174.683V753.17C174.683 750.051 172.041 748.739 169.126 748.739C165.99 748.739 163.927 750.239 163.424 752.625L166.782 752.898C167.029 752.028 167.805 751.389 169.109 751.389C170.345 751.389 171.052 752.011 171.052 753.085V753.136C171.052 753.98 170.157 754.091 167.882 754.312C165.291 754.551 162.964 755.42 162.964 758.344C162.964 760.935 164.814 762.247 167.311 762.247ZM168.35 759.741C167.234 759.741 166.433 759.222 166.433 758.224C166.433 757.202 167.277 756.699 168.555 756.52C169.348 756.409 170.643 756.222 171.078 755.932V757.321C171.078 758.693 169.944 759.741 168.35 759.741ZM183.054 762H186.685V754.142C186.685 752.693 187.605 751.73 188.816 751.73C190.009 751.73 190.81 752.548 190.81 753.835V762H194.33V754.006C194.33 752.651 195.105 751.73 196.426 751.73C197.586 751.73 198.455 752.455 198.455 753.912V762H202.077V753.196C202.077 750.358 200.39 748.739 197.952 748.739C196.034 748.739 194.543 749.719 194.006 751.219H193.87C193.452 749.702 192.114 748.739 190.316 748.739C188.551 748.739 187.213 749.676 186.668 751.219H186.515V748.909H183.054V762ZM210.911 762.256C214.15 762.256 216.331 760.679 216.843 758.25L213.485 758.028C213.118 759.026 212.181 759.545 210.971 759.545C209.155 759.545 208.005 758.344 208.005 756.392V756.384H216.919V755.386C216.919 750.938 214.226 748.739 210.766 748.739C206.914 748.739 204.417 751.474 204.417 755.514C204.417 759.665 206.88 762.256 210.911 762.256ZM208.005 754.134C208.081 752.642 209.215 751.449 210.826 751.449C212.402 751.449 213.493 752.574 213.502 754.134H208.005ZM222.919 754.432C222.928 752.744 223.934 751.756 225.4 751.756C226.857 751.756 227.735 752.71 227.726 754.312V762H231.357V753.665C231.357 750.614 229.567 748.739 226.84 748.739C224.897 748.739 223.49 749.693 222.902 751.219H222.749V748.909H219.289V762H222.919V754.432ZM245.11 752.642C244.787 750.23 242.843 748.739 239.537 748.739C236.187 748.739 233.98 750.29 233.988 752.812C233.98 754.773 235.216 756.043 237.772 756.554L240.039 757.006C241.181 757.236 241.701 757.653 241.718 758.31C241.701 759.085 240.858 759.639 239.588 759.639C238.292 759.639 237.431 759.085 237.21 758.02L233.639 758.207C233.98 760.713 236.11 762.256 239.579 762.256C242.971 762.256 245.4 760.526 245.409 757.943C245.4 756.051 244.164 754.918 241.625 754.398L239.255 753.92C238.037 753.656 237.585 753.239 237.593 752.608C237.585 751.824 238.471 751.312 239.596 751.312C240.858 751.312 241.608 752.003 241.787 752.847L245.11 752.642ZM251.428 762.247C253.363 762.247 254.615 761.403 255.255 760.185H255.357V762H258.8V753.17C258.8 750.051 256.158 748.739 253.243 748.739C250.107 748.739 248.044 750.239 247.542 752.625L250.9 752.898C251.147 752.028 251.922 751.389 253.226 751.389C254.462 751.389 255.169 752.011 255.169 753.085V753.136C255.169 753.98 254.275 754.091 251.999 754.312C249.408 754.551 247.081 755.42 247.081 758.344C247.081 760.935 248.931 762.247 251.428 762.247ZM252.468 759.741C251.351 759.741 250.55 759.222 250.55 758.224C250.55 757.202 251.394 756.699 252.672 756.52C253.465 756.409 254.76 756.222 255.195 755.932V757.321C255.195 758.693 254.061 759.741 252.468 759.741ZM267.515 767.182C271.256 767.182 273.915 765.477 273.915 762.128V748.909H270.31V751.108H270.174C269.688 750.043 268.623 748.739 266.432 748.739C263.56 748.739 261.131 750.972 261.131 755.429C261.131 759.784 263.492 761.812 266.441 761.812C268.529 761.812 269.696 760.764 270.174 759.682H270.327V762.077C270.327 763.875 269.176 764.574 267.6 764.574C265.998 764.574 265.188 763.875 264.89 763.082L261.532 763.534C261.966 765.597 263.986 767.182 267.515 767.182ZM267.591 759.085C265.81 759.085 264.838 757.67 264.838 755.412C264.838 753.188 265.793 751.628 267.591 751.628C269.355 751.628 270.344 753.119 270.344 755.412C270.344 757.722 269.338 759.085 267.591 759.085ZM282.77 762.256C286.009 762.256 288.191 760.679 288.702 758.25L285.344 758.028C284.978 759.026 284.04 759.545 282.83 759.545C281.015 759.545 279.864 758.344 279.864 756.392V756.384H288.779V755.386C288.779 750.938 286.086 748.739 282.625 748.739C278.773 748.739 276.276 751.474 276.276 755.514C276.276 759.665 278.739 762.256 282.77 762.256ZM279.864 754.134C279.941 752.642 281.074 751.449 282.685 751.449C284.262 751.449 285.353 752.574 285.361 754.134H279.864ZM291.148 762H294.779V754.142C294.779 752.693 295.699 751.73 296.909 751.73C298.103 751.73 298.904 752.548 298.904 753.835V762H302.424V754.006C302.424 752.651 303.199 751.73 304.52 751.73C305.679 751.73 306.549 752.455 306.549 753.912V762H310.171V753.196C310.171 750.358 308.483 748.739 306.046 748.739C304.128 748.739 302.637 749.719 302.1 751.219H301.963C301.546 749.702 300.208 748.739 298.409 748.739C296.645 748.739 295.307 749.676 294.762 751.219H294.608V748.909H291.148V762ZM127.473 791.256C130.712 791.256 132.894 789.679 133.405 787.25L130.047 787.028C129.681 788.026 128.743 788.545 127.533 788.545C125.718 788.545 124.567 787.344 124.567 785.392V785.384H133.482V784.386C133.482 779.938 130.789 777.739 127.328 777.739C123.476 777.739 120.979 780.474 120.979 784.514C120.979 788.665 123.442 791.256 127.473 791.256ZM124.567 783.134C124.644 781.642 125.777 780.449 127.388 780.449C128.965 780.449 130.056 781.574 130.064 783.134H124.567ZM139.482 783.432C139.49 781.744 140.496 780.756 141.962 780.756C143.419 780.756 144.297 781.71 144.289 783.312V791H147.919V782.665C147.919 779.614 146.13 777.739 143.402 777.739C141.459 777.739 140.053 778.693 139.465 780.219H139.311V777.909H135.851V791H139.482V783.432ZM156.696 791.256C160.181 791.256 162.372 789.21 162.542 786.202H159.116C158.903 787.599 157.983 788.384 156.738 788.384C155.042 788.384 153.943 786.96 153.943 784.455C153.943 781.983 155.051 780.568 156.738 780.568C158.068 780.568 158.92 781.446 159.116 782.75H162.542C162.389 779.724 160.096 777.739 156.679 777.739C152.707 777.739 150.252 780.491 150.252 784.506C150.252 788.486 152.664 791.256 156.696 791.256ZM170.782 791.256C174.753 791.256 177.225 788.537 177.225 784.506C177.225 780.449 174.753 777.739 170.782 777.739C166.81 777.739 164.338 780.449 164.338 784.506C164.338 788.537 166.81 791.256 170.782 791.256ZM170.799 788.443C168.966 788.443 168.029 786.764 168.029 784.48C168.029 782.196 168.966 780.509 170.799 780.509C172.597 780.509 173.534 782.196 173.534 784.48C173.534 786.764 172.597 788.443 170.799 788.443ZM183.216 783.432C183.225 781.744 184.23 780.756 185.696 780.756C187.154 780.756 188.032 781.71 188.023 783.312V791H191.654V782.665C191.654 779.614 189.864 777.739 187.137 777.739C185.194 777.739 183.787 778.693 183.199 780.219H183.046V777.909H179.586V791H183.216V783.432ZM201.478 777.909H199.015V774.773H195.385V777.909H193.595V780.636H195.385V787.455C195.368 790.02 197.115 791.29 199.748 791.179C200.686 791.145 201.35 790.957 201.717 790.838L201.146 788.136C200.967 788.17 200.583 788.256 200.243 788.256C199.518 788.256 199.015 787.983 199.015 786.977V780.636H201.478V777.909ZM203.843 791H207.474V783.594C207.474 781.983 208.65 780.875 210.252 780.875C210.755 780.875 211.446 780.96 211.787 781.071V777.849C211.463 777.773 211.011 777.722 210.645 777.722C209.179 777.722 207.977 778.574 207.5 780.193H207.363V777.909H203.843V791ZM217.022 791.247C218.956 791.247 220.209 790.403 220.848 789.185H220.951V791H224.394V782.17C224.394 779.051 221.752 777.739 218.837 777.739C215.701 777.739 213.638 779.239 213.135 781.625L216.493 781.898C216.74 781.028 217.516 780.389 218.82 780.389C220.056 780.389 220.763 781.011 220.763 782.085V782.136C220.763 782.98 219.868 783.091 217.593 783.312C215.002 783.551 212.675 784.42 212.675 787.344C212.675 789.935 214.525 791.247 217.022 791.247ZM218.061 788.741C216.945 788.741 216.144 788.222 216.144 787.224C216.144 786.202 216.988 785.699 218.266 785.52C219.059 785.409 220.354 785.222 220.789 784.932V786.321C220.789 787.693 219.655 788.741 218.061 788.741ZM232.034 791.213C234.148 791.213 235.248 789.994 235.75 788.903H235.904V791H239.483V773.545H235.861V780.108H235.75C235.265 779.043 234.216 777.739 232.026 777.739C229.154 777.739 226.725 779.972 226.725 784.472C226.725 788.852 229.051 791.213 232.034 791.213ZM233.185 788.324C231.404 788.324 230.432 786.739 230.432 784.455C230.432 782.188 231.387 780.628 233.185 780.628C234.949 780.628 235.938 782.119 235.938 784.455C235.938 786.79 234.932 788.324 233.185 788.324ZM246.201 791.247C248.136 791.247 249.389 790.403 250.028 789.185H250.13V791H253.574V782.17C253.574 779.051 250.931 777.739 248.017 777.739C244.88 777.739 242.818 779.239 242.315 781.625L245.673 781.898C245.92 781.028 246.696 780.389 248 780.389C249.235 780.389 249.943 781.011 249.943 782.085V782.136C249.943 782.98 249.048 783.091 246.772 783.312C244.181 783.551 241.855 784.42 241.855 787.344C241.855 789.935 243.704 791.247 246.201 791.247ZM247.241 788.741C246.125 788.741 245.324 788.222 245.324 787.224C245.324 786.202 246.167 785.699 247.446 785.52C248.238 785.409 249.534 785.222 249.968 784.932V786.321C249.968 787.693 248.835 788.741 247.241 788.741Z" fill="#343A40"/>
<path d="M71.1172 831C74.6626 831 76.6626 828.795 76.6626 825.159C76.6626 821.545 74.6626 819.364 71.2763 819.364H67.5263V831H71.1172ZM68.9354 829.75V820.614H71.1854C73.9126 820.614 75.299 822.341 75.299 825.159C75.299 828 73.9126 829.75 71.0263 829.75H68.9354ZM78.8445 831H80.1854V822.273H78.8445V831ZM79.5263 820.818C80.049 820.818 80.4808 820.409 80.4808 819.909C80.4808 819.409 80.049 819 79.5263 819C79.0036 819 78.5717 819.409 78.5717 819.909C78.5717 820.409 79.0036 820.818 79.5263 820.818ZM86.1641 834.455C88.255 834.455 89.9368 833.5 89.9368 831.25V822.273H88.6413V823.659H88.505C88.2095 823.205 87.6641 822.159 85.9595 822.159C83.755 822.159 82.2322 823.909 82.2322 826.591C82.2322 829.318 83.8232 830.864 85.9368 830.864C87.6413 830.864 88.1868 829.864 88.4822 829.386H88.5959V831.159C88.5959 832.614 87.5732 833.273 86.1641 833.273C84.5788 833.273 84.022 832.438 83.6641 831.955L82.5959 832.705C83.1413 833.619 84.2152 834.455 86.1641 834.455ZM86.1186 829.659C84.4368 829.659 83.5732 828.386 83.5732 826.568C83.5732 824.795 84.4141 823.364 86.1186 823.364C87.755 823.364 88.6186 824.682 88.6186 826.568C88.6186 828.5 87.7322 829.659 86.1186 829.659ZM92.3913 831H93.7322V822.273H92.3913V831ZM93.0732 820.818C93.5959 820.818 94.0277 820.409 94.0277 819.909C94.0277 819.409 93.5959 819 93.0732 819C92.5504 819 92.1186 819.409 92.1186 819.909C92.1186 820.409 92.5504 820.818 93.0732 820.818ZM99.9837 822.273H98.12V820.182H96.7791V822.273H95.4609V823.409H96.7791V828.864C96.7791 830.386 98.0064 831.114 99.1428 831.114C99.6428 831.114 99.9609 831.023 100.143 830.955L99.87 829.75C99.7564 829.773 99.5746 829.818 99.2791 829.818C98.6882 829.818 98.12 829.636 98.12 828.5V823.409H99.9837V822.273ZM105.566 831.182C107.339 831.182 108.634 830.295 109.043 828.977L107.748 828.614C107.407 829.523 106.617 829.977 105.566 829.977C103.992 829.977 102.907 828.96 102.844 827.091H109.18V826.523C109.18 823.273 107.248 822.159 105.43 822.159C103.066 822.159 101.498 824.023 101.498 826.705C101.498 829.386 103.043 831.182 105.566 831.182ZM102.844 825.932C102.935 824.574 103.896 823.364 105.43 823.364C106.884 823.364 107.816 824.455 107.816 825.932H102.844ZM121.219 827.432C121.219 829.068 119.969 829.818 118.969 829.818C117.856 829.818 117.06 829 117.06 827.727V822.273H115.719V827.818C115.719 830.045 116.901 831.114 118.538 831.114C119.856 831.114 120.719 830.409 121.129 829.523H121.219V831H122.56V822.273H121.219V827.432ZM125.016 831H126.357V825.545C126.357 824.267 127.289 823.364 128.335 823.364C129.352 823.364 130.062 824.028 130.062 825.023V831H131.425V825.318C131.425 824.193 132.13 823.364 133.357 823.364C134.312 823.364 135.13 823.869 135.13 825.159V831H136.471V825.159C136.471 823.108 135.369 822.159 133.812 822.159C132.562 822.159 131.647 822.733 131.198 823.636H131.107C130.675 822.705 129.914 822.159 128.766 822.159C127.63 822.159 126.789 822.705 126.425 823.636H126.312V822.273H125.016V831ZM147.218 822.273H145.354V820.182H144.013V822.273H142.695V823.409H144.013V828.864C144.013 830.386 145.241 831.114 146.377 831.114C146.877 831.114 147.195 831.023 147.377 830.955L147.104 829.75C146.991 829.773 146.809 829.818 146.513 829.818C145.923 829.818 145.354 829.636 145.354 828.5V823.409H147.218V822.273ZM152.8 831.182C154.573 831.182 155.869 830.295 156.278 828.977L154.982 828.614C154.641 829.523 153.852 829.977 152.8 829.977C151.227 829.977 150.141 828.96 150.079 827.091H156.414V826.523C156.414 823.273 154.482 822.159 152.664 822.159C150.3 822.159 148.732 824.023 148.732 826.705C148.732 829.386 150.278 831.182 152.8 831.182ZM150.079 825.932C150.17 824.574 151.13 823.364 152.664 823.364C154.119 823.364 155.05 824.455 155.05 825.932H150.079ZM159.219 822.273H157.674L160.447 826.636L157.674 831H159.219L161.31 827.614L163.401 831H164.947L162.129 826.636L164.947 822.273H163.401L161.31 825.841L159.219 822.273ZM170.656 822.273H168.792V820.182H167.451V822.273H166.133V823.409H167.451V828.864C167.451 830.386 168.678 831.114 169.815 831.114C170.315 831.114 170.633 831.023 170.815 830.955L170.542 829.75C170.428 829.773 170.246 829.818 169.951 829.818C169.36 829.818 168.792 829.636 168.792 828.5V823.409H170.656V822.273ZM176.124 831.182C178.488 831.182 180.079 829.386 180.079 826.682C180.079 823.955 178.488 822.159 176.124 822.159C173.761 822.159 172.17 823.955 172.17 826.682C172.17 829.386 173.761 831.182 176.124 831.182ZM176.124 829.977C174.329 829.977 173.511 828.432 173.511 826.682C173.511 824.932 174.329 823.364 176.124 823.364C177.92 823.364 178.738 824.932 178.738 826.682C178.738 828.432 177.92 829.977 176.124 829.977ZM193.921 834.273V822.273H192.626V823.659H192.467C192.171 823.205 191.648 822.159 189.944 822.159C187.739 822.159 186.217 823.909 186.217 826.659C186.217 829.432 187.739 831.182 189.921 831.182C191.603 831.182 192.171 830.136 192.467 829.659H192.58V834.273H193.921ZM192.603 826.636C192.603 828.614 191.717 829.977 190.103 829.977C188.421 829.977 187.558 828.5 187.558 826.636C187.558 824.795 188.398 823.364 190.103 823.364C191.739 823.364 192.603 824.682 192.603 826.636ZM201.876 827.432C201.876 829.068 200.626 829.818 199.626 829.818C198.512 829.818 197.717 829 197.717 827.727V822.273H196.376V827.818C196.376 830.045 197.558 831.114 199.194 831.114C200.512 831.114 201.376 830.409 201.785 829.523H201.876V831H203.217V822.273H201.876V827.432ZM209.332 831.182C211.104 831.182 212.4 830.295 212.809 828.977L211.513 828.614C211.173 829.523 210.383 829.977 209.332 829.977C207.758 829.977 206.673 828.96 206.61 827.091H212.945V826.523C212.945 823.273 211.013 822.159 209.195 822.159C206.832 822.159 205.263 824.023 205.263 826.705C205.263 829.386 206.809 831.182 209.332 831.182ZM206.61 825.932C206.701 824.574 207.661 823.364 209.195 823.364C210.65 823.364 211.582 824.455 211.582 825.932H206.61ZM226.621 822.273H225.167L222.758 829.227H222.667L220.258 822.273H218.803L222.031 831H223.394L226.621 822.273ZM231.624 831.182C233.988 831.182 235.579 829.386 235.579 826.682C235.579 823.955 233.988 822.159 231.624 822.159C229.261 822.159 227.67 823.955 227.67 826.682C227.67 829.386 229.261 831.182 231.624 831.182ZM231.624 829.977C229.829 829.977 229.011 828.432 229.011 826.682C229.011 824.932 229.829 823.364 231.624 823.364C233.42 823.364 234.238 824.932 234.238 826.682C234.238 828.432 233.42 829.977 231.624 829.977ZM241.171 831.182C243.103 831.182 244.376 830 244.603 828.455H243.262C243.012 829.409 242.217 829.977 241.171 829.977C239.58 829.977 238.558 828.659 238.558 826.636C238.558 824.659 239.603 823.364 241.171 823.364C242.353 823.364 243.058 824.091 243.262 824.886H244.603C244.376 823.25 242.989 822.159 241.148 822.159C238.785 822.159 237.217 824.023 237.217 826.682C237.217 829.295 238.717 831.182 241.171 831.182ZM250.222 831.182C251.995 831.182 253.29 830.295 253.7 828.977L252.404 828.614C252.063 829.523 251.273 829.977 250.222 829.977C248.648 829.977 247.563 828.96 247.501 827.091H253.836V826.523C253.836 823.273 251.904 822.159 250.086 822.159C247.722 822.159 246.154 824.023 246.154 826.705C246.154 829.386 247.7 831.182 250.222 831.182ZM247.501 825.932C247.592 824.574 248.552 823.364 250.086 823.364C251.54 823.364 252.472 824.455 252.472 825.932H247.501ZM248.836 821.227L250.018 819.636L251.2 821.227H252.472V821.136L250.631 818.773H249.404L247.563 821.136V821.227H248.836ZM263.671 831.182C265.353 831.182 265.921 830.136 266.217 829.659H266.376V831H267.671V819.364H266.33V823.659H266.217C265.921 823.205 265.398 822.159 263.694 822.159C261.489 822.159 259.967 823.909 259.967 826.659C259.967 829.432 261.489 831.182 263.671 831.182ZM263.853 829.977C262.171 829.977 261.308 828.5 261.308 826.636C261.308 824.795 262.148 823.364 263.853 823.364C265.489 823.364 266.353 824.682 266.353 826.636C266.353 828.614 265.467 829.977 263.853 829.977ZM273.972 831.182C275.745 831.182 277.04 830.295 277.45 828.977L276.154 828.614C275.813 829.523 275.023 829.977 273.972 829.977C272.398 829.977 271.313 828.96 271.251 827.091H277.586V826.523C277.586 823.273 275.654 822.159 273.836 822.159C271.472 822.159 269.904 824.023 269.904 826.705C269.904 829.386 271.45 831.182 273.972 831.182ZM271.251 825.932C271.342 824.574 272.302 823.364 273.836 823.364C275.29 823.364 276.222 824.455 276.222 825.932H271.251ZM285.808 824.227C285.387 822.989 284.444 822.159 282.717 822.159C280.876 822.159 279.512 823.205 279.512 824.682C279.512 825.886 280.228 826.693 281.83 827.068L283.285 827.409C284.165 827.614 284.58 828.034 284.58 828.636C284.58 829.386 283.785 830 282.535 830C281.438 830 280.751 829.528 280.512 828.591L279.239 828.909C279.552 830.392 280.773 831.182 282.558 831.182C284.586 831.182 285.967 830.074 285.967 828.568C285.967 827.352 285.205 826.585 283.648 826.205L282.353 825.886C281.319 825.631 280.853 825.284 280.853 824.614C280.853 823.864 281.648 823.318 282.717 823.318C283.887 823.318 284.37 823.966 284.603 824.568L285.808 824.227ZM291.644 831.182C293.417 831.182 294.712 830.295 295.121 828.977L293.826 828.614C293.485 829.523 292.695 829.977 291.644 829.977C290.07 829.977 288.985 828.96 288.923 827.091H295.258V826.523C295.258 823.273 293.326 822.159 291.508 822.159C289.144 822.159 287.576 824.023 287.576 826.705C287.576 829.386 289.121 831.182 291.644 831.182ZM288.923 825.932C289.013 824.574 289.974 823.364 291.508 823.364C292.962 823.364 293.894 824.455 293.894 825.932H288.923ZM297.298 822.273V831.636C297.298 832.523 296.934 833.023 296.116 833.023H295.866V834.273H296.138C297.82 834.273 298.638 833.25 298.638 831.636V822.273H297.298ZM297.957 820.818C298.479 820.818 298.911 820.409 298.911 819.909C298.911 819.409 298.479 819 297.957 819C297.434 819 297.002 819.409 297.002 819.909C297.002 820.409 297.434 820.818 297.957 820.818ZM303.663 831.205C305.185 831.205 305.981 830.386 306.254 829.818H306.322V831H307.663V825.25C307.663 822.477 305.549 822.159 304.435 822.159C303.117 822.159 301.617 822.614 300.935 824.205L302.208 824.659C302.504 824.023 303.202 823.341 304.481 823.341C305.714 823.341 306.322 823.994 306.322 825.114V825.159C306.322 825.807 305.663 825.75 304.072 825.955C302.452 826.165 300.685 826.523 300.685 828.523C300.685 830.227 302.004 831.205 303.663 831.205ZM303.867 830C302.799 830 302.026 829.523 302.026 828.591C302.026 827.568 302.958 827.25 304.004 827.114C304.572 827.045 306.094 826.886 306.322 826.614V827.841C306.322 828.932 305.458 830 303.867 830ZM73.9368 855.182C75.8686 855.182 77.1413 854 77.3686 852.455H76.0277C75.7777 853.409 74.9822 853.977 73.9368 853.977C72.3459 853.977 71.3232 852.659 71.3232 850.636C71.3232 848.659 72.3686 847.364 73.9368 847.364C75.1186 847.364 75.8232 848.091 76.0277 848.886H77.3686C77.1413 847.25 75.755 846.159 73.9141 846.159C71.5504 846.159 69.9822 848.023 69.9822 850.682C69.9822 853.295 71.4822 855.182 73.9368 855.182ZM79.3288 855H80.6697V849.477C80.6697 848.295 81.6016 847.432 82.8743 847.432C83.2322 847.432 83.6016 847.5 83.6925 847.523V846.159C83.5391 846.148 83.1868 846.136 82.9879 846.136C81.9425 846.136 81.0334 846.727 80.7152 847.591H80.6243V846.273H79.3288V855ZM85.282 855H86.6229V846.273H85.282V855ZM85.9638 844.818C86.4865 844.818 86.9183 844.409 86.9183 843.909C86.9183 843.409 86.4865 843 85.9638 843C85.4411 843 85.0092 843.409 85.0092 843.909C85.0092 844.409 85.4411 844.818 85.9638 844.818ZM89.0788 858.273H90.4197V853.659H90.5334C90.8288 854.136 91.397 855.182 93.0788 855.182C95.2607 855.182 96.7834 853.432 96.7834 850.659C96.7834 847.909 95.2607 846.159 93.0561 846.159C91.3516 846.159 90.8288 847.205 90.5334 847.659H90.3743V846.273H89.0788V858.273ZM90.397 850.636C90.397 848.682 91.2607 847.364 92.897 847.364C94.6016 847.364 95.4425 848.795 95.4425 850.636C95.4425 852.5 94.5788 853.977 92.897 853.977C91.2834 853.977 90.397 852.614 90.397 850.636ZM102.624 846.273H100.761V844.182H99.4197V846.273H98.1016V847.409H99.4197V852.864C99.4197 854.386 100.647 855.114 101.783 855.114C102.283 855.114 102.602 855.023 102.783 854.955L102.511 853.75C102.397 853.773 102.215 853.818 101.92 853.818C101.329 853.818 100.761 853.636 100.761 852.5V847.409H102.624V846.273ZM108.093 855.182C110.457 855.182 112.048 853.386 112.048 850.682C112.048 847.955 110.457 846.159 108.093 846.159C105.729 846.159 104.138 847.955 104.138 850.682C104.138 853.386 105.729 855.182 108.093 855.182ZM108.093 853.977C106.298 853.977 105.479 852.432 105.479 850.682C105.479 848.932 106.298 847.364 108.093 847.364C109.888 847.364 110.707 848.932 110.707 850.682C110.707 852.432 109.888 853.977 108.093 853.977ZM117.617 858.455C119.708 858.455 121.39 857.5 121.39 855.25V846.273H120.094V847.659H119.958C119.663 847.205 119.117 846.159 117.413 846.159C115.208 846.159 113.685 847.909 113.685 850.591C113.685 853.318 115.276 854.864 117.39 854.864C119.094 854.864 119.64 853.864 119.935 853.386H120.049V855.159C120.049 856.614 119.026 857.273 117.617 857.273C116.032 857.273 115.475 856.438 115.117 855.955L114.049 856.705C114.594 857.619 115.668 858.455 117.617 858.455ZM117.572 853.659C115.89 853.659 115.026 852.386 115.026 850.568C115.026 848.795 115.867 847.364 117.572 847.364C119.208 847.364 120.072 848.682 120.072 850.568C120.072 852.5 119.185 853.659 117.572 853.659ZM123.844 855H125.185V849.477C125.185 848.295 126.117 847.432 127.39 847.432C127.748 847.432 128.117 847.5 128.208 847.523V846.159C128.055 846.148 127.702 846.136 127.504 846.136C126.458 846.136 125.549 846.727 125.231 847.591H125.14V846.273H123.844V855ZM132.366 855.205C133.888 855.205 134.684 854.386 134.957 853.818H135.025V855H136.366V849.25C136.366 846.477 134.252 846.159 133.138 846.159C131.82 846.159 130.32 846.614 129.638 848.205L130.911 848.659C131.207 848.023 131.906 847.341 133.184 847.341C134.417 847.341 135.025 847.994 135.025 849.114V849.159C135.025 849.807 134.366 849.75 132.775 849.955C131.156 850.165 129.388 850.523 129.388 852.523C129.388 854.227 130.707 855.205 132.366 855.205ZM132.57 854C131.502 854 130.729 853.523 130.729 852.591C130.729 851.568 131.661 851.25 132.707 851.114C133.275 851.045 134.798 850.886 135.025 850.614V851.841C135.025 852.932 134.161 854 132.57 854ZM142.7 846.273H140.745V845.386C140.745 844.523 141.109 844.068 141.995 844.068C142.381 844.068 142.609 844.159 142.745 844.205L143.131 843.045C142.927 842.955 142.518 842.818 141.859 842.818C140.609 842.818 139.404 843.568 139.404 845.068V846.273H137.995V847.409H139.404V855H140.745V847.409H142.7V846.273ZM146.897 855.205C148.42 855.205 149.215 854.386 149.488 853.818H149.556V855H150.897V849.25C150.897 846.477 148.783 846.159 147.67 846.159C146.352 846.159 144.852 846.614 144.17 848.205L145.442 848.659C145.738 848.023 146.437 847.341 147.715 847.341C148.948 847.341 149.556 847.994 149.556 849.114V849.159C149.556 849.807 148.897 849.75 147.306 849.955C145.687 850.165 143.92 850.523 143.92 852.523C143.92 854.227 145.238 855.205 146.897 855.205ZM147.102 854C146.033 854 145.261 853.523 145.261 852.591C145.261 851.568 146.192 851.25 147.238 851.114C147.806 851.045 149.329 850.886 149.556 850.614V851.841C149.556 852.932 148.692 854 147.102 854ZM153.344 855H154.685V849.477C154.685 848.295 155.617 847.432 156.89 847.432C157.248 847.432 157.617 847.5 157.708 847.523V846.159C157.555 846.148 157.202 846.136 157.004 846.136C155.958 846.136 155.049 846.727 154.731 847.591H154.64V846.273H153.344V855ZM167.343 855.182C169.707 855.182 171.298 853.386 171.298 850.682C171.298 847.955 169.707 846.159 167.343 846.159C164.979 846.159 163.388 847.955 163.388 850.682C163.388 853.386 164.979 855.182 167.343 855.182ZM167.343 853.977C165.548 853.977 164.729 852.432 164.729 850.682C164.729 848.932 165.548 847.364 167.343 847.364C169.138 847.364 169.957 848.932 169.957 850.682C169.957 852.432 169.138 853.977 167.343 853.977ZM178.844 851.432C178.844 853.068 177.594 853.818 176.594 853.818C175.481 853.818 174.685 853 174.685 851.727V846.273H173.344V851.818C173.344 854.045 174.526 855.114 176.163 855.114C177.481 855.114 178.344 854.409 178.754 853.523H178.844V855H180.185V846.273H178.844V851.432ZM190.437 855.182C192.119 855.182 192.687 854.136 192.982 853.659H193.141V855H194.437V843.364H193.096V847.659H192.982C192.687 847.205 192.164 846.159 190.46 846.159C188.255 846.159 186.732 847.909 186.732 850.659C186.732 853.432 188.255 855.182 190.437 855.182ZM190.619 853.977C188.937 853.977 188.073 852.5 188.073 850.636C188.073 848.795 188.914 847.364 190.619 847.364C192.255 847.364 193.119 848.682 193.119 850.636C193.119 852.614 192.232 853.977 190.619 853.977ZM200.738 855.182C202.511 855.182 203.806 854.295 204.215 852.977L202.92 852.614C202.579 853.523 201.789 853.977 200.738 853.977C199.164 853.977 198.079 852.96 198.016 851.091H204.352V850.523C204.352 847.273 202.42 846.159 200.602 846.159C198.238 846.159 196.67 848.023 196.67 850.705C196.67 853.386 198.215 855.182 200.738 855.182ZM198.016 849.932C198.107 848.574 199.067 847.364 200.602 847.364C202.056 847.364 202.988 848.455 202.988 849.932H198.016ZM212.573 848.227C212.153 846.989 211.21 846.159 209.482 846.159C207.641 846.159 206.278 847.205 206.278 848.682C206.278 849.886 206.994 850.693 208.596 851.068L210.05 851.409C210.931 851.614 211.346 852.034 211.346 852.636C211.346 853.386 210.55 854 209.3 854C208.204 854 207.516 853.528 207.278 852.591L206.005 852.909C206.317 854.392 207.539 855.182 209.323 855.182C211.352 855.182 212.732 854.074 212.732 852.568C212.732 851.352 211.971 850.585 210.414 850.205L209.119 849.886C208.085 849.631 207.619 849.284 207.619 848.614C207.619 847.864 208.414 847.318 209.482 847.318C210.653 847.318 211.136 847.966 211.369 848.568L212.573 848.227ZM218.296 855.182C220.228 855.182 221.501 854 221.728 852.455H220.387C220.137 853.409 219.342 853.977 218.296 853.977C216.705 853.977 215.683 852.659 215.683 850.636C215.683 848.659 216.728 847.364 218.296 847.364C219.478 847.364 220.183 848.091 220.387 848.886H221.728C221.501 847.25 220.114 846.159 218.273 846.159C215.91 846.159 214.342 848.023 214.342 850.682C214.342 853.295 215.842 855.182 218.296 855.182ZM223.688 855H225.029V849.477C225.029 848.295 225.961 847.432 227.234 847.432C227.592 847.432 227.961 847.5 228.052 847.523V846.159C227.898 846.148 227.546 846.136 227.347 846.136C226.302 846.136 225.393 846.727 225.075 847.591H224.984V846.273H223.688V855ZM229.641 855H230.982V846.273H229.641V855ZM230.323 844.818C230.846 844.818 231.278 844.409 231.278 843.909C231.278 843.409 230.846 843 230.323 843C229.8 843 229.369 843.409 229.369 843.909C229.369 844.409 229.8 844.818 230.323 844.818ZM233.438 858.273H234.779V853.659H234.893C235.188 854.136 235.756 855.182 237.438 855.182C239.62 855.182 241.143 853.432 241.143 850.659C241.143 847.909 239.62 846.159 237.415 846.159C235.711 846.159 235.188 847.205 234.893 847.659H234.734V846.273H233.438V858.273ZM234.756 850.636C234.756 848.682 235.62 847.364 237.256 847.364C238.961 847.364 239.802 848.795 239.802 850.636C239.802 852.5 238.938 853.977 237.256 853.977C235.643 853.977 234.756 852.614 234.756 850.636ZM246.984 846.273H245.12V844.182H243.779V846.273H242.461V847.409H243.779V852.864C243.779 854.386 245.006 855.114 246.143 855.114C246.643 855.114 246.961 855.023 247.143 854.955L246.87 853.75C246.756 853.773 246.575 853.818 246.279 853.818C245.688 853.818 245.12 853.636 245.12 852.5V847.409H246.984V846.273ZM252.452 855.182C254.816 855.182 256.407 853.386 256.407 850.682C256.407 847.955 254.816 846.159 252.452 846.159C250.089 846.159 248.498 847.955 248.498 850.682C248.498 853.386 250.089 855.182 252.452 855.182ZM252.452 853.977C250.657 853.977 249.839 852.432 249.839 850.682C249.839 848.932 250.657 847.364 252.452 847.364C254.248 847.364 255.066 848.932 255.066 850.682C255.066 852.432 254.248 853.977 252.452 853.977ZM261.977 858.455C264.067 858.455 265.749 857.5 265.749 855.25V846.273H264.454V847.659H264.317C264.022 847.205 263.477 846.159 261.772 846.159C259.567 846.159 258.045 847.909 258.045 850.591C258.045 853.318 259.636 854.864 261.749 854.864C263.454 854.864 263.999 853.864 264.295 853.386H264.408V855.159C264.408 856.614 263.386 857.273 261.977 857.273C260.391 857.273 259.835 856.438 259.477 855.955L258.408 856.705C258.954 857.619 260.028 858.455 261.977 858.455ZM261.931 853.659C260.249 853.659 259.386 852.386 259.386 850.568C259.386 848.795 260.227 847.364 261.931 847.364C263.567 847.364 264.431 848.682 264.431 850.568C264.431 852.5 263.545 853.659 261.931 853.659ZM268.204 855H269.545V849.477C269.545 848.295 270.477 847.432 271.749 847.432C272.107 847.432 272.477 847.5 272.567 847.523V846.159C272.414 846.148 272.062 846.136 271.863 846.136C270.817 846.136 269.908 846.727 269.59 847.591H269.499V846.273H268.204V855ZM276.725 855.205C278.248 855.205 279.043 854.386 279.316 853.818H279.384V855H280.725V849.25C280.725 846.477 278.612 846.159 277.498 846.159C276.18 846.159 274.68 846.614 273.998 848.205L275.271 848.659C275.566 848.023 276.265 847.341 277.543 847.341C278.776 847.341 279.384 847.994 279.384 849.114V849.159C279.384 849.807 278.725 849.75 277.134 849.955C275.515 850.165 273.748 850.523 273.748 852.523C273.748 854.227 275.066 855.205 276.725 855.205ZM276.93 854C275.862 854 275.089 853.523 275.089 852.591C275.089 851.568 276.021 851.25 277.066 851.114C277.634 851.045 279.157 850.886 279.384 850.614V851.841C279.384 852.932 278.521 854 276.93 854ZM287.059 846.273H285.104V845.386C285.104 844.523 285.468 844.068 286.354 844.068C286.741 844.068 286.968 844.159 287.104 844.205L287.491 843.045C287.286 842.955 286.877 842.818 286.218 842.818C284.968 842.818 283.763 843.568 283.763 845.068V846.273H282.354V847.409H283.763V855H285.104V847.409H287.059V846.273ZM291.256 855.205C292.779 855.205 293.575 854.386 293.847 853.818H293.915V855H295.256V849.25C295.256 846.477 293.143 846.159 292.029 846.159C290.711 846.159 289.211 846.614 288.529 848.205L289.802 848.659C290.097 848.023 290.796 847.341 292.075 847.341C293.308 847.341 293.915 847.994 293.915 849.114V849.159C293.915 849.807 293.256 849.75 291.665 849.955C290.046 850.165 288.279 850.523 288.279 852.523C288.279 854.227 289.597 855.205 291.256 855.205ZM291.461 854C290.393 854 289.62 853.523 289.62 852.591C289.62 851.568 290.552 851.25 291.597 851.114C292.165 851.045 293.688 850.886 293.915 850.614V851.841C293.915 852.932 293.052 854 291.461 854ZM297.704 855H299.045V849.477C299.045 848.295 299.977 847.432 301.249 847.432C301.607 847.432 301.977 847.5 302.067 847.523V846.159C301.914 846.148 301.562 846.136 301.363 846.136C300.317 846.136 299.408 846.727 299.09 847.591H298.999V846.273H297.704V855ZM303.634 855.091C304.197 855.091 304.657 854.631 304.657 854.068C304.657 853.506 304.197 853.045 303.634 853.045C303.072 853.045 302.612 853.506 302.612 854.068C302.612 854.631 303.072 855.091 303.634 855.091Z" fill="#495057"/>
</g>
<path fill-rule="evenodd" clip-rule="evenodd" d="M40.084 47.6529C40.0393 47.9311 39.9304 48.1959 39.7654 48.4275C39.6004 48.659 39.3836 48.8512 39.1313 48.9898C38.6231 49.3086 38.1785 49.468 37.7286 49.6274C36.7705 49.9488 35.7621 50.2702 34.6956 50.643C33.5708 51.0157 32.5624 51.3885 31.6626 51.6585C30.5404 52.0313 29.4738 52.3526 28.4602 52.7254C27.6976 53.0425 26.9812 53.4556 26.3297 53.9544C25.7237 54.4877 25.1949 55.0983 24.7576 55.7695C24.3077 56.515 24.0245 57.4766 24.0245 58.5975C24.0245 60.842 24.5856 62.5491 25.7104 63.6161C26.8325 64.7396 28.9127 65.2718 31.996 65.2718C35.1402 65.2718 37.2733 64.6856 38.4008 63.5107C39.5203 62.3357 40.0814 60.6826 40.0814 58.5487V47.6529H40.084ZM31.9987 24C37.5036 24 41.545 25.0155 44.1254 27.098C46.7085 29.1291 48 31.7412 48 34.8366V61.2148C48 62.2817 47.7777 63.4567 47.386 64.737C46.989 66.0225 46.2056 67.1949 44.9696 68.2592C43.7919 69.3313 42.1643 70.2389 40.0867 70.933C38.0091 71.6272 35.3149 72 32.0013 72C28.6931 72 25.9935 71.6272 23.9186 70.933C21.8437 70.2389 20.2134 69.3313 19.0356 68.2592C17.94 67.3001 17.1101 66.089 16.622 64.737C16.225 63.4592 16 62.2843 16 61.2174V57.001C16 54.7565 16.6167 52.674 17.8526 50.8563C19.0886 48.9898 20.8274 47.7095 23.0744 46.9073C24.1965 46.5345 25.488 46.1618 26.9463 45.681C28.4072 45.1976 29.7517 44.7169 31.1015 44.2927C32.4512 43.8633 33.629 43.434 34.6373 43.0586C35.2458 42.8221 35.8639 42.6094 36.49 42.421L37.5009 41.9402C37.8979 41.7268 38.287 41.4055 38.6813 40.9787C39.073 40.5545 39.4091 40.0737 39.6923 39.5389C39.9915 38.9599 40.1457 38.3203 40.1423 37.6724V35.9627C40.1464 35.3361 40.011 34.716 39.7453 34.145C39.523 33.5023 39.073 32.9161 38.4564 32.3839C37.8397 31.8492 36.9955 31.4224 35.9871 31.0984C34.9761 30.7822 33.6316 30.6202 32.1125 30.6202C28.9683 30.6202 26.8907 31.2116 25.7686 32.4354C24.8158 33.5049 24.2547 34.8392 24.1436 36.3329C24.1436 36.6543 23.863 36.8677 23.5243 36.8677L16.6775 36.9757C16.5149 36.9764 16.3586 36.9146 16.2426 36.8039C16.1266 36.6931 16.0603 36.5423 16.0582 36.3844V34.8418C16.0582 33.3429 16.3414 31.9546 16.9581 30.6202C17.5774 29.2833 18.5328 28.165 19.8217 27.2009C21.1132 26.2419 22.7991 25.4423 24.8185 24.9076C26.7849 24.2648 29.1986 24 32.004 24H31.9987Z" fill="#0A3871"/>
</g>
<defs>
<filter id="filter0_d_16_801" x="0" y="707" width="375" height="234" filterUnits="userSpaceOnUse" color-interpolation-filters="sRGB">
<feFlood flood-opacity="0" result="BackgroundImageFix"/>
<feColorMatrix in="SourceAlpha" type="matrix" values="0 0 0 0 0 0 0 0 0 0 0 0 0 0 0 0 0 0 127 0" result="hardAlpha"/>
<feMorphology radius="8" operator="erode" in="SourceAlpha" result="effect1_dropShadow_16_801"/>
<feOffset dy="24"/>
<feGaussianBlur stdDeviation="16"/>
<feComposite in2="hardAlpha" operator="out"/>
<feColorMatrix type="matrix" values="0 0 0 0 0 0 0 0 0 0 0 0 0 0 0 0 0 0 0.08 0"/>
<feBlend mode="normal" in2="BackgroundImageFix" result="effect1_dropShadow_16_801"/>
<feBlend mode="normal" in="SourceGraphic" in2="effect1_dropShadow_16_801" result="shape"/>
</filter>
<clipPath id="clip0_16_801">
<rect width="375" height="933" fill="white"/>
</clipPath>
</defs>
</svg>
